<svg width="34" height="34" viewBox="0 0 34 34" fill="none" xmlns="http://www.w3.org/2000/svg">
<path d="M22.3163 25.5754C22.3163 25.5754 22.3163 26.3773 22.3163 26.6149C22.3163 26.8376 22.0491 27.3425 21.4551 27.6394C20.876 27.9513 20.8166 28.5304 21.0987 28.8571C21.3957 29.1838 21.5145 29.2135 21.5145 29.5995H17.5201H14.3275H10.333C10.333 29.2135 10.4518 29.1838 10.734 28.8571C11.031 28.5304 10.9716 27.9513 10.3924 27.6394C9.79847 27.3425 9.51633 26.8376 9.51633 26.6149C9.51633 26.3773 9.51633 25.5754 9.51633 25.5754L15.9163 25.6942L22.3163 25.5754Z" fill="url(#paint0_linear_1_846)"/>
<path style="mix-blend-mode:screen" opacity="0.5" d="M11.7734 28.5898C11.6398 28.1592 11.4022 27.7731 10.9864 27.5801C10.4667 27.3425 10.1251 27.0752 10.0063 26.4664C9.9618 26.1991 10.0063 26.0358 10.0063 25.7536L12.308 25.7833C12.2189 25.7833 12.1743 25.9318 12.1595 25.9912C12.0852 26.3476 12.0704 26.7337 12.2634 27.0455C12.4268 27.3276 12.7089 27.5058 12.8722 27.7731C13.0356 28.0404 13.0653 28.3671 13.0801 28.6789C13.0801 28.7532 13.1098 29.4214 13.0653 29.4214L11.8476 29.4065C12.0258 29.4065 11.7882 28.6641 11.7734 28.5898Z" fill="url(#paint1_linear_1_846)"/>
<g style="mix-blend-mode:multiply" opacity="0.5">
<path d="M22.3163 25.5754C22.3163 25.5754 22.3163 26.3773 22.3163 26.6149C22.3163 26.8376 22.049 27.3425 21.4551 27.6394C20.876 27.9513 20.8166 28.5304 21.0987 28.8571C21.3957 29.1838 21.5145 29.2135 21.5145 29.5995H10.333C10.333 29.2135 10.4518 29.1838 10.734 28.8571C11.0309 28.5304 10.9715 27.9513 10.3924 27.6394C9.9915 27.4464 9.73907 27.1494 9.60542 26.897C10.1697 27.8919 11.4319 27.6543 12.3971 27.6988C13.3623 27.7434 16.3173 27.7582 16.9558 27.6097C18.1586 27.3425 18.2922 26.6891 18.7674 25.6348L22.3163 25.5754Z" fill="#D0D0D1"/>
</g>
<path d="M22.4054 30.1935L9.45694 30.2084C9.44209 30.149 9.42724 30.0005 9.42724 29.9411C9.42724 29.555 9.73907 29.2432 10.0955 29.2432H21.7372C22.1085 29.2432 22.4054 29.555 22.4054 29.9411C22.4054 30.0005 22.4203 30.1341 22.4054 30.1935Z" fill="url(#paint2_linear_1_846)"/>
<g style="mix-blend-mode:multiply" opacity="0.5">
<path d="M22.4054 29.9411C22.4054 30.0005 22.4203 30.1341 22.4054 30.1935L9.45694 30.2084C9.44209 30.149 9.42724 30.0005 9.42724 29.9411C9.42724 29.9114 9.43218 29.8767 9.44208 29.8371H22.4054C22.4054 29.8767 22.4054 29.9114 22.4054 29.9411Z" fill="#B9B8B9"/>
</g>
<path d="M24.5734 33H7.27411C7.27411 33 7.27411 32.9951 7.27411 32.9852C7.27411 31.4111 8.25415 30.1193 9.47179 30.1193H22.3609C23.5785 30.1193 24.5734 31.4111 24.5734 32.9852C24.5734 32.9951 24.5734 33 24.5734 33Z" fill="url(#paint3_linear_1_846)"/>
<g style="mix-blend-mode:multiply" opacity="0.5">
<path d="M24.5734 32.9852C24.5734 32.9951 24.5734 33 24.5734 33H11.8625C13.0504 32.8812 14.2384 32.6139 15.3521 32.2724C16.3618 31.9457 18.5298 31.2478 19.495 30.1193H22.3609C23.5785 30.1193 24.5734 31.4111 24.5734 32.9852Z" fill="#D0D0D1"/>
</g>
<path d="M11.3131 5.90024C11.3131 5.90024 10.0212 4.47472 9.53119 3.9847C9.02631 3.49467 9.73908 3.15314 10.8231 2.70767C11.7586 2.32159 12.7238 2.00975 13.7038 1.78702C15.2481 1.43063 16.9558 1.22275 18.5298 1.50488C20.0147 1.77217 21.3363 2.49978 22.5242 3.42043C24.618 5.06869 26.2662 7.02878 27.4245 9.4492C27.9739 10.6074 28.4639 11.8993 28.7312 13.1615C29.1767 15.2552 29.4142 15.5522 28.6718 15.9531C27.662 16.5026 26.6077 16.9629 25.6277 17.5569C24.6774 18.1211 23.6231 18.7002 22.8509 19.5021C22.0342 20.3634 23.3706 21.7889 23.8755 22.4422C24.1279 22.7689 24.2022 22.9917 23.9349 23.3332C23.7419 23.5856 23.4894 23.8084 23.2667 24.0459C23.0143 24.3132 22.2421 24.8775 22.2421 25.2933C22.2421 25.6794 21.0839 24.536 21.0839 24.6102C21.0839 24.6845 18.7971 21.7592 18.7971 21.7592C18.7971 21.7592 19.1089 19.903 20.8017 18.0469C22.4797 16.1907 25.5089 14.8395 25.6574 14.3791C25.8059 13.9188 25.3604 9.4195 21.8709 6.80604C18.3813 4.20744 17.134 5.36567 16.7924 4.17774C16.4509 2.9898 12.0555 5.57356 11.3131 5.90024Z" fill="#AEAEAF"/>
<path d="M11.8625 5.6181C11.6101 5.75174 11.417 5.85568 11.3131 5.90023C11.3131 5.90023 10.0212 4.47471 9.53119 3.98468C9.23421 3.6877 9.36784 3.45011 9.73907 3.21252C9.87271 3.18283 9.99151 3.21252 10.1103 3.33132C10.3627 3.58375 10.5409 3.91044 10.7785 4.17772C10.9716 4.40046 11.6843 5.36566 11.8625 5.6181Z" fill="url(#paint4_linear_1_846)"/>
<path d="M12.6941 5.18747C12.4268 5.32111 12.1892 5.45475 11.9664 5.5587C11.8328 5.30626 11.6546 5.05382 11.4764 4.81624C11.3873 4.66775 11.2834 4.50441 11.2091 4.35592C11.0607 4.07378 10.9419 3.79164 10.8379 3.49466C10.7488 3.27192 10.63 3.03433 10.7043 2.8116C10.734 2.7819 10.7637 2.7522 10.8082 2.70766C10.8181 2.70766 10.8231 2.70766 10.8231 2.70766C10.9617 2.65816 11.0953 2.60371 11.224 2.54431C11.4913 2.49977 11.5507 2.7225 11.6249 2.96009C11.7586 3.31647 11.9368 3.67285 12.1001 4.01438C12.2783 4.41531 12.4268 4.84594 12.6941 5.18747Z" fill="url(#paint5_linear_1_846)"/>
<path d="M13.7929 4.65291C13.5108 4.78655 13.2286 4.92019 12.9613 5.05383C12.7435 4.67766 12.5604 4.28663 12.4119 3.88075C12.2783 3.56892 12.1892 3.22738 12.1149 2.88585C12.0704 2.72251 12.0555 2.57402 12.0852 2.41068C12.1001 2.32159 12.1892 2.24734 12.2783 2.18794C12.4268 2.17309 12.5753 2.09885 12.7238 2.0543C13.1247 1.93551 13.1841 2.52948 13.2583 2.79676C13.4365 3.42043 13.6296 4.02924 13.7929 4.65291Z" fill="url(#paint6_linear_1_846)"/>
<path d="M14.6987 4.26683C14.5106 4.33612 14.3176 4.41532 14.1196 4.50442C14.0008 4.07379 13.8968 3.62831 13.7781 3.18283C13.7038 2.871 13.5999 2.54432 13.5999 2.23249C13.5999 2.00975 13.7335 1.84641 13.9117 1.72762C14.0701 1.69792 14.2285 1.66822 14.3869 1.63852C14.476 1.65337 14.5354 1.72761 14.5799 1.86126C14.6839 2.20279 14.6542 2.61857 14.669 2.9898C14.6987 3.42042 14.6987 3.8362 14.6987 4.26683Z" fill="url(#paint7_linear_1_846)"/>
<path d="M15.3224 4.0441C15.263 3.71742 15.2333 3.39073 15.2184 3.0789C15.1739 2.70767 15.1442 2.35129 15.159 1.99491C15.159 1.80187 15.1739 1.60883 15.3224 1.49004C15.6194 1.45044 15.9213 1.42074 16.2282 1.40094C16.4064 1.50488 16.4212 1.78702 16.4212 1.95036C16.4361 2.30674 16.3618 2.66312 16.3321 3.00466C16.3024 3.28679 16.2727 3.58377 16.243 3.86591C15.9906 3.86591 15.6788 3.9253 15.3224 4.0441Z" fill="url(#paint8_linear_1_846)"/>
<path d="M19.1683 5.26172C18.8812 5.16272 18.6238 5.08353 18.3962 5.02413C18.4704 4.54896 18.5446 4.05893 18.6337 3.56891C18.7228 3.13828 18.7971 2.70766 18.9159 2.29188C18.9753 2.05429 19.0792 1.80186 19.3317 1.74246C19.3911 1.74246 19.4455 1.74741 19.495 1.75731C19.6286 1.78701 19.7623 1.84641 19.8959 1.89095C19.9405 1.92065 19.985 1.95035 20.0296 1.98005C20.4899 2.36613 20.1484 3.03434 19.9405 3.45012C19.6732 4.05894 19.4207 4.66775 19.1683 5.26172Z" fill="url(#paint9_linear_1_846)"/>
<path d="M20.5641 5.94479C20.1929 5.72205 19.8365 5.54386 19.5247 5.41021C19.7326 5.00434 19.9306 4.59351 20.1187 4.17773C20.3067 3.77186 20.4948 3.36598 20.6829 2.9601C20.8017 2.70766 20.9502 2.48493 21.2769 2.57402C21.2967 2.58392 21.3165 2.59382 21.3363 2.60372C21.564 2.73241 21.7867 2.87595 22.0045 3.03434C22.0441 3.07394 22.0788 3.12344 22.1085 3.18284C22.3163 3.53922 21.8263 3.99954 21.6481 4.26683C21.2769 4.81625 20.9205 5.38052 20.5641 5.94479Z" fill="url(#paint10_linear_1_846)"/>
<path d="M21.8709 6.80604C21.559 6.58331 21.2769 6.37542 20.9948 6.21208C21.0443 6.13288 21.0938 6.05368 21.1433 5.97449C21.361 5.62801 21.5887 5.28648 21.8263 4.9499C22.0342 4.65291 22.2272 4.34108 22.4648 4.08864C22.6133 3.9253 22.8064 3.8065 23.044 3.85105C23.044 3.86095 23.0489 3.8659 23.0588 3.8659C23.2964 4.06389 23.534 4.27178 23.7716 4.48957C23.8013 4.52917 23.826 4.56876 23.8458 4.60836C23.9943 4.84595 23.831 5.08353 23.6825 5.26172C23.4152 5.54386 23.1479 5.84085 22.8806 6.13783C22.6232 6.42492 22.3708 6.71695 22.1233 7.01393C22.0441 6.94464 21.96 6.87534 21.8709 6.80604Z" fill="url(#paint11_linear_1_846)"/>
<path d="M22.45 7.29606C22.6282 7.07332 22.8212 6.85059 23.0142 6.62785C23.3261 6.28632 23.6528 5.94479 23.9497 5.58841C24.1428 5.38052 24.3507 5.20233 24.6328 5.35082C24.6328 5.35082 24.6328 5.35577 24.6328 5.36567C24.9001 5.64285 25.1575 5.93489 25.405 6.24177C25.4495 6.36056 25.4495 6.47936 25.3901 6.59815C25.2268 6.92483 24.8258 7.22182 24.5586 7.4594C24.2022 7.77124 23.8161 8.03852 23.4449 8.33551C23.1479 7.97913 22.8212 7.62274 22.45 7.29606Z" fill="url(#paint12_linear_1_846)"/>
<path d="M24.3804 9.74618C24.222 9.4492 24.0339 9.14726 23.8161 8.84038C24.0982 8.52855 24.3952 8.24641 24.7219 7.97913C24.9743 7.78609 25.2268 7.5782 25.5089 7.42971C25.6871 7.32576 25.8653 7.28122 26.0583 7.32576C26.1623 7.34061 26.2514 7.44456 26.3405 7.5485C26.4147 7.6673 26.4741 7.78609 26.4444 7.93458C26.4296 8.09792 26.2959 8.24641 26.192 8.35036C25.9989 8.5731 25.7465 8.75129 25.5238 8.92948C25.1674 9.22646 24.7813 9.50859 24.3804 9.74618Z" fill="url(#paint13_linear_1_846)"/>
<path d="M25.5386 12.9536C25.4792 12.5824 25.3753 12.1666 25.2268 11.7211C25.3901 11.6172 25.5386 11.5281 25.702 11.439C26.0435 11.2608 26.3999 11.0974 26.7562 10.9341C27.0532 10.8005 27.4393 10.5926 27.8105 10.6371C27.8254 10.6371 27.8402 10.6371 27.8551 10.652C27.9739 10.7114 28.0036 10.9341 28.0333 11.0529C28.0927 11.3053 28.2115 11.5578 28.1521 11.8399C28.1224 12.0775 27.7808 12.1963 27.6027 12.2854C27.3502 12.419 27.0978 12.523 26.8305 12.6269C26.5038 12.7457 26.1771 12.8348 25.8356 12.909C25.7762 12.909 25.6574 12.9239 25.5386 12.9536Z" fill="url(#paint14_linear_1_846)"/>
<path d="M25.6574 14.3791C25.6871 14.2752 25.6871 13.9633 25.6277 13.503C26.2365 13.3248 26.8156 13.0575 27.4245 12.8794C27.7808 12.7606 28.1818 12.6269 28.553 12.716C28.5827 12.7259 28.6124 12.7358 28.6421 12.7457C28.6718 12.8843 28.7015 13.0229 28.7312 13.1615C28.8203 13.5921 28.8945 13.9337 28.9688 14.2306C28.9391 14.3197 28.8945 14.394 28.8054 14.4534C28.6866 14.5425 28.5233 14.5722 28.3748 14.587C28.063 14.6316 27.7214 14.6464 27.4096 14.6613C27.0384 14.6761 26.6671 14.7058 26.2959 14.7504C25.9692 14.7801 25.6574 14.7207 25.3456 14.691C25.5238 14.5722 25.6277 14.4682 25.6574 14.3791Z" fill="url(#paint15_linear_1_846)"/>
<path d="M28.85 15.6562C28.85 15.7255 28.845 15.7898 28.8351 15.8492C28.7906 15.8789 28.7312 15.9234 28.6718 15.9531C28.3599 16.1165 28.0481 16.2798 27.7363 16.4283C27.667 16.4481 27.5977 16.4679 27.5284 16.4877C27.0532 16.6065 26.6671 16.458 26.2365 16.265C25.5683 15.9828 24.8852 15.7304 24.2319 15.4186C24.5734 15.2107 24.8852 15.0177 25.1228 14.8543C25.1228 14.8543 25.1278 14.8593 25.1377 14.8692C25.5089 15.0473 25.9395 15.0325 26.3405 15.0622C26.8453 15.0919 27.365 15.0919 27.8848 15.1216C28.3154 15.1364 28.8351 15.1216 28.85 15.6562Z" fill="url(#paint16_linear_1_846)"/>
<path d="M26.0138 17.3341C25.8851 17.4034 25.7564 17.4777 25.6277 17.5568C25.4198 17.6756 25.207 17.7994 24.9892 17.9281C24.7665 18.0023 24.5437 18.032 24.321 17.9726C23.9349 17.8835 23.6231 17.5568 23.3409 17.2896C23.1033 17.052 22.8658 16.8589 22.5985 16.651C22.5688 16.6213 22.5391 16.5916 22.5094 16.562C22.8955 16.2798 23.2815 16.0274 23.6528 15.7898C24.1725 15.9234 24.7071 16.0868 25.1971 16.3095C25.4792 16.4283 25.8356 16.6065 26.0138 16.8738C26.1177 17.0074 26.088 17.1708 26.0138 17.3341Z" fill="url(#paint17_linear_1_846)"/>
<path d="M20.7275 18.1211C20.7473 18.0914 20.772 18.0667 20.8017 18.0469C21.1729 17.6163 21.6333 17.2302 22.0936 16.8738C22.5391 17.1856 23.0143 17.4678 23.4449 17.8093C23.6528 17.9726 23.831 18.1508 23.9497 18.3884C23.9794 18.4379 23.9992 18.4874 24.0091 18.5369C23.5934 18.8339 23.1924 19.1457 22.8509 19.5021C22.8064 19.5467 22.7618 19.606 22.7321 19.6506C22.6529 19.6407 22.5638 19.6209 22.4648 19.5912C22.1827 19.5021 21.9303 19.2497 21.7075 19.0566C21.4996 18.8636 21.3066 18.6705 21.0987 18.4775C20.9948 18.3587 20.8463 18.2399 20.7275 18.1211Z" fill="url(#paint18_linear_1_846)"/>
<path d="M18.9901 21.0464C19.1832 20.497 19.5395 19.6951 20.1632 18.819C20.2226 18.8487 20.2968 18.8784 20.3414 18.9081C20.6829 19.0863 20.9948 19.2794 21.3214 19.4724C21.6036 19.6506 21.8857 19.8288 22.1678 19.9773C22.346 20.0664 22.4945 20.1852 22.5985 20.3336C22.6282 20.4821 22.6876 20.6455 22.747 20.8088C22.5985 21.0019 22.3609 21.0316 22.1381 21.0316C21.762 21.0316 21.3858 21.0316 21.0096 21.0316C20.6087 21.0464 20.2078 21.0613 19.8068 21.0761C19.5989 21.0761 19.4059 21.0613 19.2129 21.0464C19.1386 21.0316 19.0644 21.0316 18.9901 21.0464Z" fill="url(#paint19_linear_1_846)"/>
<path d="M20.4899 23.8826C19.8068 23.0362 18.7971 21.7592 18.7971 21.7592C18.7971 21.7493 18.7971 21.7344 18.7971 21.7146C19.5841 21.6552 20.3562 21.5216 21.1284 21.4919C21.6036 21.477 22.0639 21.4473 22.5242 21.4176C22.747 21.3879 22.9549 21.4176 23.1627 21.5067C23.2518 21.6552 23.3558 21.7889 23.4449 21.9077C23.4746 22.2343 23.2518 22.4422 22.9548 22.6353C22.6579 22.8283 22.346 22.9917 22.0342 23.1698C21.6778 23.3777 21.3214 23.5856 20.9354 23.7341C20.7869 23.7935 20.6384 23.8381 20.4899 23.8826Z" fill="url(#paint20_linear_1_846)"/>
<path d="M23.9943 22.6204C24.1428 22.858 24.1576 23.0511 23.9349 23.3332C23.7419 23.5856 23.4894 23.8084 23.2667 24.046C23.0143 24.3132 22.2421 24.8775 22.2421 25.2933C22.2421 25.6794 21.0839 24.536 21.0839 24.6102C21.0839 24.6251 20.9354 24.4469 20.7275 24.1796C21.2917 23.8826 21.8263 23.5262 22.3906 23.1847C22.6876 23.0065 23.0142 22.8432 23.3261 22.665C23.5488 22.561 23.7864 22.4571 23.9943 22.6204Z" fill="url(#paint21_linear_1_846)"/>
<path d="M25.0783 11.2905C24.9446 10.9193 24.7813 10.5183 24.5883 10.1323C24.7961 9.95407 25.004 9.77588 25.2119 9.61254C25.5535 9.34525 25.9098 9.07796 26.2662 8.85523C26.4593 8.72158 26.6968 8.61764 26.9196 8.73643C26.9691 8.75623 27.0136 8.78593 27.0532 8.82553C27.1126 8.88492 27.1671 8.95917 27.2166 9.04826C27.2859 9.17696 27.3552 9.3106 27.4245 9.44919C27.4393 9.49374 27.469 9.55314 27.4987 9.61254C27.5284 9.74618 27.5284 9.87982 27.4838 9.98377C27.3354 10.2807 26.8305 10.4292 26.5484 10.548C26.2217 10.6817 25.895 10.8599 25.5683 11.0381C25.4099 11.1272 25.2466 11.2113 25.0783 11.2905Z" fill="url(#paint22_linear_1_846)"/>
<path d="M18.4258 1.60883C18.5595 1.96521 18.3813 2.64827 18.3516 2.85616C18.2625 3.46498 18.1586 4.05895 18.0249 4.65291C17.9952 4.74201 17.9655 4.8311 17.9507 4.9202C17.6834 4.8608 17.4606 4.81625 17.2973 4.75685C17.2577 4.39057 17.2379 4.0243 17.2379 3.65802C17.2379 3.19769 17.2231 2.72252 17.2528 2.24734C17.2528 2.0246 17.2379 1.68307 17.4012 1.50488C17.4161 1.47518 17.4606 1.44549 17.5052 1.43064C17.5943 1.43064 17.6834 1.41579 17.7576 1.41579C17.916 1.42569 18.0695 1.44054 18.218 1.46034C18.307 1.49004 18.3664 1.53458 18.4258 1.60883Z" fill="url(#paint23_linear_1_846)"/>
<path d="M10.3182 25.3081C10.3182 25.3081 10.7934 23.9568 9.04116 22.2343C9.04116 22.2343 9.1451 20.5861 11.6398 18.136C14.1344 15.671 16.0797 13.5921 16.0797 13.5921C16.0797 13.5921 13.4959 12.9981 11.7883 14.0524C11.7883 14.0524 11.417 16.5174 11.3131 16.6065C11.1943 16.7104 7.80867 17.4381 7.45229 17.4678C7.09591 17.5123 7.08106 17.0223 7.22955 16.6213C7.22955 16.6213 5.61099 17.2896 6.05646 16.3392C6.05646 16.3392 5.3734 15.5225 5.12097 14.4979C4.86853 13.4882 4.94278 13.0872 6.01192 12.9239C6.01192 12.9239 8.2096 9.1522 11.2685 7.04362C11.2685 7.04362 9.97665 6.5833 10.1548 6.36056C10.333 6.12297 12.204 4.742 14.0156 4.17773C14.0156 4.17773 13.689 3.92529 13.9859 3.58376C14.2829 3.24223 15.7381 1.77216 17.0894 1C17.0894 1 17.8764 3.43527 17.8616 4.25197C17.8616 4.25197 25.1674 5.43991 26.2662 14.7949C26.2662 14.7949 20.579 17.0371 19.5247 21.3137C19.5247 21.3137 21.6184 23.3777 22.2569 25.0705V25.4121L10.3182 25.3081Z" fill="url(#paint24_linear_1_846)"/>
<path style="mix-blend-mode:screen" opacity="0.5" d="M12.4268 21.3137C12.1446 22.1453 12.0704 23.0956 12.1743 23.9717C11.8774 23.4817 11.4319 23.0956 11.1201 22.6056C10.7043 21.9819 10.6152 21.1801 10.927 20.497C11.1943 19.8882 11.6398 19.3833 12.0853 18.923C12.5456 18.4478 13.0504 18.032 13.5405 17.6014C14.075 17.1411 14.6096 16.6659 15.1442 16.2204C15.7233 15.7453 16.3024 15.2552 16.837 14.7355C17.6388 13.9782 19.1238 12.8942 19.5544 11.8696C18.7674 13.7406 17.4161 15.2849 16.05 16.755C15.56 17.2747 15.0105 17.8093 14.4611 18.3587C13.6147 19.2497 12.798 20.2149 12.4268 21.3137Z" fill="url(#paint25_linear_1_846)"/>
<g style="mix-blend-mode:multiply" opacity="0.5">
<path d="M10.3182 25.3081C10.3182 25.3081 10.7934 23.9569 9.04116 22.2343C9.04116 22.2343 9.1451 20.5861 11.6398 18.136C14.1344 15.671 16.0797 13.5921 16.0797 13.5921C16.0797 13.5921 13.4959 12.9981 11.7883 14.0524C11.7883 14.0524 11.417 16.5174 11.3131 16.6065C11.1943 16.7104 7.80867 17.4381 7.45229 17.4678C7.09591 17.5123 7.08106 17.0223 7.22955 16.6213C7.22955 16.6213 5.61099 17.2896 6.05646 16.3392C6.05646 16.3392 5.3734 15.5225 5.12097 14.4979C4.86853 13.4882 4.94278 13.0872 6.01192 12.9239C6.01192 12.9239 8.13535 9.271 11.1349 7.14757C11.1943 7.13767 11.2586 7.12777 11.3279 7.11787C11.5507 7.10302 11.7883 7.14757 11.9813 7.25151C11.9219 7.34061 11.8476 7.4297 11.7734 7.5188C11.4319 7.78608 11.0309 7.99397 10.6597 8.21671C10.2291 8.49884 9.82816 8.85522 9.44208 9.18191C8.59567 9.90952 7.82352 10.7114 7.11076 11.5429C6.60589 12.122 6.02676 12.9387 6.05646 13.7406C6.08616 14.1118 6.3683 14.29 6.66529 14.4237C6.87317 14.5276 7.06621 14.6019 7.2444 14.7504C7.40774 14.884 7.45229 15.0919 7.48199 15.2849C7.48199 15.2998 7.51168 15.3146 7.54138 15.3146C7.85322 15.2998 8.13535 15.1364 8.40263 14.9582C8.68477 14.7652 8.87781 14.3494 9.27874 14.5425C9.53118 14.6613 10.0212 14.884 9.87271 15.2404C9.76876 15.478 9.51633 15.6265 9.48663 15.8937C9.48663 15.9234 9.50148 15.9531 9.53118 15.9531C9.79846 15.968 10.036 15.9086 10.2142 15.7156C10.437 15.4631 10.4667 15.0176 10.5409 14.7058C10.7191 13.8446 10.8676 12.9833 11.1052 12.1369C11.2091 11.736 11.3725 11.3647 11.6398 11.0381C11.9219 10.6965 12.3674 10.4292 12.7386 10.1917C13.3029 9.82042 13.8968 9.49374 14.4908 9.18191C14.2532 9.43434 14.0156 9.68678 13.8077 9.96891C13.6147 10.2213 13.4217 10.4886 13.2286 10.7411C13.0801 10.9341 12.9168 11.142 12.8574 11.3796C12.7683 11.7805 13.4217 11.6914 13.6295 11.6766C14.3572 11.6172 15.1145 11.7805 15.8421 11.8251C16.4806 11.8696 17.0449 11.7657 17.5794 11.439C18.114 11.1123 18.4555 10.6371 18.3516 9.99861C18.2476 9.41949 17.8616 8.79583 17.4903 8.3355C17.4804 8.3256 17.4755 8.3157 17.4755 8.3058C17.6091 8.3949 17.7428 8.46914 17.8764 8.55824C18.1883 8.76613 18.4555 9.01857 18.7377 9.25615C18.9753 9.47889 19.2128 9.71647 19.4504 9.93921C19.6732 10.1619 19.9553 10.3847 19.8959 10.7411C19.8217 11.0529 19.4801 11.3499 19.2722 11.5875C19.0347 11.8548 18.7822 12.1072 18.5298 12.3596C18.0398 12.82 17.52 13.2654 17.0152 13.6961C15.9757 14.5722 14.9066 15.4037 13.8968 16.3095C13.4811 16.6807 13.0801 17.052 12.7089 17.4678C12.501 17.6459 12.3228 17.839 12.1446 18.032C11.6992 18.5072 11.3428 19.0121 10.9864 19.5318C10.63 20.0367 10.2142 20.5118 9.91725 21.0464C9.73906 21.4028 9.50148 21.9374 9.78362 22.2937C9.94696 22.4868 10.1548 22.6501 10.3479 22.8135C10.5954 23.0411 10.8082 23.2936 10.9864 23.5708C11.2537 23.9569 11.3576 24.5063 11.7586 24.7736C12.1446 25.0408 12.6347 25.2042 13.095 25.323L10.3182 25.3081Z" fill="#D0D0D1"/>
</g>
<g style="mix-blend-mode:multiply" opacity="0.5">
<path d="M22.2569 25.0705V25.4121L18.6783 25.3824C18.6783 25.2487 18.6634 25.1299 18.6634 25.026C18.6189 24.4172 18.4258 23.8232 18.2031 23.2589C17.921 22.5907 17.4904 22.0858 17.0597 21.5216C16.8964 21.3137 16.733 21.1058 16.4955 20.9722C16.3618 20.9128 16.9409 19.9921 17.0152 19.8882C17.4161 19.2497 17.8913 18.626 18.3516 18.032C18.8268 17.4232 19.3465 16.8589 19.9108 16.3541C20.5047 15.8195 21.1581 15.3592 21.8115 14.8988C22.1481 14.6811 22.4846 14.4732 22.8212 14.2752C23.0143 14.1712 23.2667 14.1118 23.3706 13.8891C23.3706 13.8742 23.3706 13.8445 23.3558 13.8297C23.4152 13.5327 23.2667 13.1912 23.1924 12.9239C23.0143 12.419 22.8361 11.9142 22.6727 11.3944C22.2866 10.162 21.7075 8.98886 20.9205 7.94942C20.3117 7.13271 19.5098 6.47935 18.5595 6.07842C18.114 5.88538 17.624 5.73689 17.134 5.6775C16.9706 5.66265 16.8073 5.66265 16.6291 5.6775C16.5598 5.6775 16.4856 5.68245 16.4064 5.69235C16.3024 5.70719 16.2133 5.73689 16.1094 5.76659C16.0302 5.79629 15.951 5.82598 15.8718 5.85568C15.8322 5.86558 15.7926 5.87053 15.753 5.87053C15.7827 5.81114 15.7975 5.76659 15.8272 5.70719C16.2876 5.29141 16.6291 4.72715 16.8518 4.17773C17.03 3.7174 17.0746 3.24223 17.0894 2.7522C17.1043 2.26218 17.1043 1.71276 16.9112 1.25243C16.8964 1.22274 16.8518 1.20789 16.837 1.22274C16.1836 1.53457 15.649 2.05429 15.159 2.57402C14.7284 3.03434 14.4017 3.61346 14.4611 4.25197C14.5057 4.6529 14.6096 5.05383 14.773 5.41021C14.7829 5.43001 14.7928 5.44981 14.8027 5.46961C14.0156 5.08353 13.0801 5.03898 12.2337 5.36566C11.818 5.529 10.4667 6.31601 10.7785 6.85058C10.437 6.68724 10.0509 6.47935 10.1549 6.36056C10.333 6.12297 12.204 4.742 14.0156 4.17773C14.0156 4.17773 13.689 3.92529 13.9859 3.58376C14.2829 3.24223 15.7381 1.77216 17.0894 1C17.0894 1 17.8764 3.43527 17.8616 4.25197C17.8616 4.25197 25.1674 5.43991 26.2662 14.7949C26.2662 14.7949 20.579 17.0371 19.5247 21.3137C19.5247 21.3137 21.6184 23.3777 22.2569 25.0705Z" fill="#D0D0D1"/>
</g>
<path d="M11.5952 8.98886C11.5952 8.98886 11.6843 8.40975 11.7437 8.26125C11.8625 7.89002 12.011 7.75638 12.011 7.75638L11.8922 7.74153C11.8922 7.74153 12.4416 7.3703 13.0505 7.31091C13.7484 7.22181 14.2384 7.41485 14.2384 7.41485L14.1641 7.44455C14.1641 7.44455 14.3126 7.47425 14.4908 7.44455C14.4908 7.44455 14.2829 7.65244 14.0156 7.81578C13.7632 7.96427 13.6444 8.23156 13.4514 8.43945C13.2732 8.63249 13.0356 8.64733 12.798 8.63248C12.6198 8.61763 12.4268 8.60279 12.2486 8.58794C12.1149 8.57309 11.9813 8.57309 11.8625 8.63248C11.7289 8.67703 11.5952 8.98886 11.5952 8.98886Z" fill="#AEAEAF"/>
<path d="M7.08108 14.7801C7.25927 14.884 6.88804 15.4037 6.81379 15.5819C6.73955 15.7453 6.5762 15.5522 6.47225 15.0622C6.35346 14.5573 6.01193 14.2455 6.01193 14.2455C6.01193 14.2455 6.91773 14.6761 7.08108 14.7801Z" fill="#AEAEAF"/>
<path d="M7.22955 16.6214C7.22955 16.6214 7.2444 16.5768 7.28894 16.5174C7.33349 16.4432 7.3929 16.3392 7.48199 16.2204C7.57109 16.1165 7.68988 15.9829 7.82352 15.8641C7.88292 15.8047 7.95221 15.7453 8.0314 15.6859C8.1106 15.6364 8.19475 15.5918 8.28384 15.5522C8.37294 15.5077 8.46203 15.478 8.55113 15.4483C8.64022 15.4186 8.72437 15.3839 8.80356 15.3443C8.9669 15.2849 9.1154 15.2107 9.23419 15.1364C9.29359 15.0968 9.34309 15.0572 9.38269 15.0177C9.41238 14.9731 9.44208 14.9286 9.44208 14.884C9.45198 14.8444 9.45693 14.8147 9.45693 14.7949C9.46683 14.8147 9.46683 14.8494 9.45693 14.8989C9.45693 14.9385 9.43713 14.983 9.39753 15.0325C9.36783 15.0919 9.32329 15.1364 9.26389 15.181C9.2045 15.2255 9.14509 15.2701 9.07085 15.3146C9.00155 15.3542 8.92731 15.3938 8.84811 15.4334C8.75901 15.4631 8.66992 15.4978 8.58083 15.5374C8.50658 15.5671 8.41748 15.5968 8.32839 15.6413C8.23929 15.6809 8.1601 15.7255 8.0908 15.775C8.01161 15.8245 7.93736 15.874 7.86807 15.9235C7.74927 16.0422 7.63048 16.161 7.52654 16.265C7.43744 16.3689 7.3632 16.458 7.3038 16.5174C7.25925 16.5917 7.22955 16.6214 7.22955 16.6214Z" fill="#AEAEAF"/>
<path d="M9.21935 14.5276C9.21935 14.5276 9.53119 14.5722 9.64998 14.6761C9.72423 14.7206 9.78363 14.9285 9.78363 14.9285C9.78363 14.9285 9.67968 14.8691 9.62028 14.8543C9.62028 14.8543 9.67968 15.0919 9.50149 15.2404C9.50149 15.2404 9.51634 14.9434 9.30845 14.8543C9.08572 14.7652 9.05602 14.5276 9.05602 14.5276C9.05602 14.5276 9.14511 14.6167 9.26391 14.6167L9.21935 14.5276Z" fill="#AEAEAF"/>
<path d="M16.4955 2.82646C16.4955 2.82646 15.6342 4.63807 15.4709 5.17264C15.3075 5.72206 15.3521 4.56382 15.0254 4.29653C14.6987 4.04409 15.5451 3.86591 16.1094 3.1383C16.6588 2.45523 16.5549 2.72252 16.4955 2.82646Z" fill="#AEAEAF"/>
<path d="M14.0156 4.17773C14.0156 4.17773 14.0255 4.19753 14.0453 4.23713C14.075 4.28663 14.1097 4.34603 14.1493 4.41532C14.2384 4.54897 14.3423 4.72715 14.4463 4.92019C14.5057 5.00929 14.5651 5.09838 14.6096 5.18748C14.669 5.27657 14.7284 5.35082 14.7581 5.41022C14.7878 5.45476 14.8026 5.48446 14.8323 5.49931C14.8521 5.52901 14.867 5.55376 14.8769 5.57356C14.9066 5.6181 14.9214 5.63295 14.9214 5.63295C14.9214 5.63295 14.9016 5.61811 14.862 5.58841C14.8422 5.56861 14.8224 5.54881 14.8026 5.52901C14.7729 5.51416 14.7432 5.48446 14.7284 5.45477C14.6987 5.42507 14.669 5.39042 14.6393 5.35082C14.6096 5.31122 14.5799 5.27163 14.5502 5.23203C14.4908 5.15283 14.4314 5.06373 14.372 4.96474C14.3126 4.87564 14.2532 4.7717 14.2235 4.68261C14.174 4.59351 14.1344 4.50937 14.1047 4.43017C14.075 4.35593 14.0453 4.29653 14.0305 4.25198C14.0156 4.20743 14.0156 4.17773 14.0156 4.17773Z" fill="#AEAEAF"/>
<path d="M15.9312 5.7963C15.9312 5.7963 16.0797 5.72205 16.2876 5.60326C16.3915 5.55871 16.5103 5.48446 16.6439 5.41022C16.7825 5.33102 16.9162 5.25183 17.0449 5.17264C17.1142 5.12314 17.1835 5.07364 17.2528 5.02414C17.3122 4.98455 17.3716 4.93999 17.431 4.8905C17.4904 4.841 17.5448 4.79645 17.5943 4.75686C17.6438 4.70736 17.6834 4.65786 17.7131 4.60836C17.7527 4.55887 17.7824 4.51432 17.8022 4.47472C17.8319 4.43017 17.8467 4.40048 17.8467 4.35593C17.8566 4.32623 17.8616 4.30148 17.8616 4.28168C17.8616 4.26188 17.8616 4.25198 17.8616 4.25198C17.8616 4.25198 17.8665 4.26188 17.8764 4.28168C17.8764 4.30148 17.8715 4.33118 17.8616 4.37078C17.8616 4.40047 17.8467 4.44502 17.8467 4.48957C17.817 4.53412 17.8022 4.59352 17.7576 4.63806C17.7279 4.69746 17.6834 4.74201 17.6388 4.80141C17.5992 4.8509 17.5498 4.90535 17.4904 4.96474C17.3716 5.06869 17.2379 5.15779 17.1043 5.24688C16.9706 5.33598 16.8221 5.41022 16.6885 5.48446C16.5549 5.55871 16.4212 5.61811 16.3173 5.66266C16.1985 5.7072 16.1094 5.7369 16.0351 5.7666C15.9757 5.78145 15.9312 5.7963 15.9312 5.7963Z" fill="#AEAEAF"/>
<path d="M22.2569 26.1397H9.59058C9.2936 26.1397 9.04117 25.9021 9.04117 25.6051C9.04117 25.3081 9.2936 25.0705 9.59058 25.0705H22.2569C22.5539 25.0705 22.7915 25.3081 22.7915 25.6051C22.7915 25.9021 22.5539 26.1397 22.2569 26.1397Z" fill="url(#paint26_linear_1_846)"/>
<g style="mix-blend-mode:multiply" opacity="0.5">
<path d="M22.7915 25.6051C22.7915 25.9021 22.5539 26.1397 22.257 26.1397H14.966C15.3521 25.9318 15.3818 25.323 15.0402 25.0705H22.257C22.5539 25.0705 22.7915 25.3081 22.7915 25.6051Z" fill="#D0D0D1"/>
</g>
<path style="mix-blend-mode:screen" opacity="0.5" d="M13.8968 8.58794C14.0255 8.51864 14.1493 8.43944 14.2681 8.35035C14.5948 8.08306 14.8323 7.71183 15.0105 7.32576C15.1293 7.01392 15.2333 6.65754 15.263 6.30116C15.2927 6.25166 15.3125 6.19227 15.3224 6.12297C15.5451 6.77634 15.946 7.41485 16.3321 7.97912C16.8815 8.79582 17.9358 10.4589 16.6439 11.1271C16.0351 11.4538 15.3372 11.2162 14.7135 11.1123C14.5057 11.0826 14.2978 11.0677 14.075 11.0826C14.0156 11.0974 13.5108 11.2014 13.5108 11.0974C13.4959 10.9193 13.7632 10.6668 13.8671 10.5332C14.0602 10.2956 14.2532 10.058 14.4314 9.80557C14.6393 9.52343 14.9957 9.00371 14.6096 8.72158C14.4314 8.60279 14.1493 8.57309 13.8968 8.58794Z" fill="url(#paint27_linear_1_846)"/>
<path style="mix-blend-mode:screen" opacity="0.5" d="M17.1191 5.88539C17.4013 5.90024 17.7279 5.95964 18.0101 6.03388C19.0644 6.27147 19.985 7.11787 20.6235 7.94943C21.1284 8.61764 22.6282 11.2014 22.8806 13.1169C22.8064 12.4784 21.3363 8.17217 17.1191 5.88539Z" fill="url(#paint28_linear_1_846)"/>
<path style="mix-blend-mode:screen" opacity="0.5" d="M17.0152 1.04456C16.8518 1.54943 16.6885 2.0543 16.3766 2.49978C16.05 2.97495 15.4857 3.24224 15.0848 3.64316C14.4166 4.34108 15.1442 5.14293 15.2184 5.92994C15.2927 6.65755 14.5057 6.65755 14.0008 6.65755C13.3771 6.65755 12.7831 6.89514 12.2931 7.23667C11.5358 7.77124 11.1794 8.64734 10.927 9.50859C10.4073 11.2014 10.14 13.8743 7.85322 14.0079C7.52654 14.0228 7.15531 13.9782 6.82862 13.8891C6.57619 13.8297 6.32375 13.7703 6.07132 13.8446C5.68524 13.9634 5.61099 14.4682 5.59614 14.8098C5.59614 15.181 5.65554 15.5374 5.74463 15.9086C5.53675 15.5671 5.26946 15.0622 5.12097 14.4979C4.86853 13.4882 4.94278 13.0872 6.01192 12.9239C6.01192 12.9239 6.01686 12.919 6.02676 12.9091C6.14556 12.7012 8.2987 9.07797 11.2685 7.04363C11.2685 7.04363 10.8082 6.86544 10.4667 6.68725C10.4469 6.67735 10.4271 6.66745 10.4073 6.65755C10.3875 6.64765 10.3726 6.63775 10.3627 6.62785H10.3479C10.338 6.61795 10.3281 6.60805 10.3182 6.59815C10.3083 6.59815 10.3033 6.59321 10.3033 6.58331C10.2934 6.57341 10.2786 6.56351 10.2588 6.55361C10.2489 6.54371 10.234 6.53381 10.2142 6.52391C10.2142 6.52391 10.2142 6.51896 10.2142 6.50906C10.1994 6.50906 10.1994 6.50906 10.1845 6.49421C10.1845 6.49421 10.1845 6.48926 10.1845 6.47936C10.1746 6.47936 10.1697 6.47441 10.1697 6.46451C10.1598 6.46451 10.1548 6.45956 10.1548 6.44966C10.1548 6.44966 10.1548 6.44471 10.1548 6.43481C10.1449 6.43481 10.14 6.43481 10.14 6.43481C10.14 6.42491 10.14 6.41501 10.14 6.40511C10.14 6.39522 10.14 6.39026 10.14 6.39026C10.14 6.38036 10.14 6.37541 10.14 6.37541C10.14 6.36551 10.1449 6.36057 10.1548 6.36057C10.2291 6.25662 10.5706 5.98934 11.0755 5.6478C12.9465 4.40047 14.0156 4.17774 14.0156 4.17774C13.8523 3.955 13.7483 3.8659 14.1344 3.42043C14.476 3.00465 15.4857 2.1434 16.1391 1.63852C16.243 1.56428 16.3618 1.49003 16.4509 1.38609C16.4608 1.38609 16.4707 1.38609 16.4806 1.38609C16.6588 1.2673 16.837 1.15345 17.0152 1.04456Z" fill="url(#paint29_linear_1_846)"/>
<g style="mix-blend-mode:screen" opacity="0.5">
<path d="M12.5901 30.1193C11.9071 30.8023 11.7586 32.0942 11.7586 33H8.62538C8.78872 31.5596 9.90242 30.3272 10.7191 30.1193H12.5901Z" fill="url(#paint30_linear_1_846)"/>
</g>
<defs>
<linearGradient id="paint0_linear_1_846" x1="10737.2" y1="1879.09" x2="11847" y2="1879.09" gradientUnits="userSpaceOnUse">
<stop stop-color="#E1E2E2"/>
<stop offset="0.3" stop-color="#C3C2C2"/>
<stop offset="0.6" stop-color="#B9B7B8"/>
</linearGradient>
<linearGradient id="paint1_linear_1_846" x1="2701.77" y1="1727.59" x2="2701.77" y2="1822.22" gradientUnits="userSpaceOnUse">
<stop offset="0.1" stop-color="#FEFEFE"/>
<stop offset="0.9" stop-color="#FEFEFE"/>
</linearGradient>
<linearGradient id="paint2_linear_1_846" x1="10727.1" y1="497.653" x2="11615.2" y2="497.653" gradientUnits="userSpaceOnUse">
<stop stop-color="#E1E2E2"/>
<stop offset="0.4" stop-color="#C3C2C2"/>
<stop offset="0.9" stop-color="#B9B7B8"/>
</linearGradient>
<linearGradient id="paint3_linear_1_846" x1="14270.6" y1="1445.14" x2="16285.9" y2="1445.14" gradientUnits="userSpaceOnUse">
<stop stop-color="#E1E2E2"/>
<stop offset="0.4" stop-color="#C3C2C2"/>
<stop offset="0.9" stop-color="#B9B7B8"/>
</linearGradient>
<linearGradient id="paint4_linear_1_846" x1="2125.48" y1="814.885" x2="2163.72" y2="857.798" gradientUnits="userSpaceOnUse">
<stop offset="0.1" stop-color="#E1E2E2"/>
<stop offset="1" stop-color="#B9B7B8"/>
</linearGradient>
<linearGradient id="paint5_linear_1_846" x1="1752.65" y1="900.417" x2="1784.99" y2="945.493" gradientUnits="userSpaceOnUse">
<stop offset="0.1" stop-color="#E1E2E2"/>
<stop offset="1" stop-color="#B9B7B8"/>
</linearGradient>
<linearGradient id="paint6_linear_1_846" x1="1522.2" y1="882.433" x2="1556.5" y2="923.377" gradientUnits="userSpaceOnUse">
<stop offset="0.1" stop-color="#E1E2E2"/>
<stop offset="1" stop-color="#B9B7B8"/>
</linearGradient>
<linearGradient id="paint7_linear_1_846" x1="990.802" y1="818.992" x2="1022.42" y2="844.343" gradientUnits="userSpaceOnUse">
<stop offset="0.1" stop-color="#E1E2E2"/>
<stop offset="1" stop-color="#B9B7B8"/>
</linearGradient>
<linearGradient id="paint8_linear_1_846" x1="1158.5" y1="791.705" x2="1146.4" y2="840.161" gradientUnits="userSpaceOnUse">
<stop offset="0.1" stop-color="#E1E2E2"/>
<stop offset="1" stop-color="#B9B7B8"/>
</linearGradient>
<linearGradient id="paint9_linear_1_846" x1="1748.08" y1="1080.39" x2="1709.49" y2="1143.93" gradientUnits="userSpaceOnUse">
<stop offset="0.1" stop-color="#E1E2E2"/>
<stop offset="0.5" stop-color="#C3C2C2"/>
<stop offset="0.9" stop-color="#B9B7B8"/>
</linearGradient>
<linearGradient id="paint10_linear_1_846" x1="2491.23" y1="1072.34" x2="2439.08" y2="1130.74" gradientUnits="userSpaceOnUse">
<stop offset="0.1" stop-color="#E1E2E2"/>
<stop offset="0.5" stop-color="#C3C2C2"/>
<stop offset="0.9" stop-color="#B9B7B8"/>
</linearGradient>
<linearGradient id="paint11_linear_1_846" x1="2778.13" y1="1023.42" x2="2727.93" y2="1090.1" gradientUnits="userSpaceOnUse">
<stop offset="0.1" stop-color="#E1E2E2"/>
<stop offset="0.5" stop-color="#C3C2C2"/>
<stop offset="0.9" stop-color="#B9B7B8"/>
</linearGradient>
<linearGradient id="paint12_linear_1_846" x1="2880.76" y1="1033.86" x2="2805.6" y2="1082.8" gradientUnits="userSpaceOnUse">
<stop offset="0.1" stop-color="#E1E2E2"/>
<stop offset="0.5" stop-color="#C3C2C2"/>
<stop offset="0.9" stop-color="#B9B7B8"/>
</linearGradient>
<linearGradient id="paint13_linear_1_846" x1="2556.33" y1="857.306" x2="2499.9" y2="897.443" gradientUnits="userSpaceOnUse">
<stop offset="0.1" stop-color="#E1E2E2"/>
<stop offset="0.5" stop-color="#C3C2C2"/>
<stop offset="0.9" stop-color="#B9B7B8"/>
</linearGradient>
<linearGradient id="paint14_linear_1_846" x1="2889.93" y1="864.193" x2="2837.89" y2="907.388" gradientUnits="userSpaceOnUse">
<stop offset="0.1" stop-color="#E1E2E2"/>
<stop offset="0.5" stop-color="#C3C2C2"/>
<stop offset="0.9" stop-color="#B9B7B8"/>
</linearGradient>
<linearGradient id="paint15_linear_1_846" x1="3549.63" y1="811.233" x2="3470.91" y2="842.343" gradientUnits="userSpaceOnUse">
<stop offset="0.1" stop-color="#E1E2E2"/>
<stop offset="0.5" stop-color="#C3C2C2"/>
<stop offset="0.9" stop-color="#B9B7B8"/>
</linearGradient>
<linearGradient id="paint16_linear_1_846" x1="4483.93" y1="690.566" x2="4402.16" y2="631.553" gradientUnits="userSpaceOnUse">
<stop offset="0.1" stop-color="#E1E2E2"/>
<stop offset="0.5" stop-color="#C3C2C2"/>
<stop offset="0.9" stop-color="#B9B7B8"/>
</linearGradient>
<linearGradient id="paint17_linear_1_846" x1="3394.55" y1="937.213" x2="3349.86" y2="889.032" gradientUnits="userSpaceOnUse">
<stop offset="0.1" stop-color="#E1E2E2"/>
<stop offset="0.5" stop-color="#C3C2C2"/>
<stop offset="0.9" stop-color="#B9B7B8"/>
</linearGradient>
<linearGradient id="paint18_linear_1_846" x1="3061.53" y1="1209.51" x2="3006.73" y2="1140.9" gradientUnits="userSpaceOnUse">
<stop offset="0.1" stop-color="#E1E2E2"/>
<stop offset="0.5" stop-color="#C3C2C2"/>
<stop offset="0.9" stop-color="#B9B7B8"/>
</linearGradient>
<linearGradient id="paint19_linear_1_846" x1="3504.59" y1="998.841" x2="3409.4" y2="960.656" gradientUnits="userSpaceOnUse">
<stop offset="0.1" stop-color="#E1E2E2"/>
<stop offset="0.5" stop-color="#C3C2C2"/>
<stop offset="0.9" stop-color="#B9B7B8"/>
</linearGradient>
<linearGradient id="paint20_linear_1_846" x1="4385.12" y1="1110.15" x2="4304.07" y2="1197.29" gradientUnits="userSpaceOnUse">
<stop offset="0.1" stop-color="#E1E2E2"/>
<stop offset="0.5" stop-color="#C3C2C2"/>
<stop offset="0.9" stop-color="#B9B7B8"/>
</linearGradient>
<linearGradient id="paint21_linear_1_846" x1="3217.92" y1="1308.62" x2="3136.36" y2="1363.72" gradientUnits="userSpaceOnUse">
<stop offset="0.1" stop-color="#E1E2E2"/>
<stop offset="0.5" stop-color="#C3C2C2"/>
<stop offset="0.9" stop-color="#B9B7B8"/>
</linearGradient>
<linearGradient id="paint22_linear_1_846" x1="2864.57" y1="941.138" x2="2801.37" y2="988.122" gradientUnits="userSpaceOnUse">
<stop offset="0.1" stop-color="#E1E2E2"/>
<stop offset="0.5" stop-color="#C3C2C2"/>
<stop offset="0.9" stop-color="#B9B7B8"/>
</linearGradient>
<linearGradient id="paint23_linear_1_846" x1="1167.55" y1="1059.75" x2="1145.97" y2="1122.77" gradientUnits="userSpaceOnUse">
<stop offset="0.1" stop-color="#E1E2E2"/>
<stop offset="1" stop-color="#B9B7B8"/>
</linearGradient>
<linearGradient id="paint24_linear_1_846" x1="20293" y1="6279.78" x2="22228.5" y2="9496.71" gradientUnits="userSpaceOnUse">
<stop offset="0.1" stop-color="#E1E2E2"/>
<stop offset="0.5" stop-color="#C3C2C2"/>
<stop offset="0.9" stop-color="#B9B7B8"/>
</linearGradient>
<linearGradient id="paint25_linear_1_846" x1="8225.3" y1="4464.23" x2="8225.3" y2="5475.96" gradientUnits="userSpaceOnUse">
<stop offset="0.1" stop-color="#FEFEFE"/>
<stop offset="0.9" stop-color="#FEFEFE"/>
</linearGradient>
<linearGradient id="paint26_linear_1_846" x1="11309.1" y1="513.881" x2="12570" y2="513.881" gradientUnits="userSpaceOnUse">
<stop stop-color="#E1E2E2"/>
<stop offset="0.9" stop-color="#AEAEAE"/>
</linearGradient>
<linearGradient id="paint27_linear_1_846" x1="3378.62" y1="1701" x2="3378.62" y2="1923.33" gradientUnits="userSpaceOnUse">
<stop offset="0.1" stop-color="#FEFEFE"/>
<stop offset="0.9" stop-color="#FEFEFE"/>
</linearGradient>
<linearGradient id="paint28_linear_1_846" x1="5341.88" y1="2228.87" x2="5605.8" y2="2488.61" gradientUnits="userSpaceOnUse">
<stop offset="0.1" stop-color="#FEFEFE"/>
<stop offset="0.9" stop-color="#FEFEFE"/>
</linearGradient>
<linearGradient id="paint29_linear_1_846" x1="10513.5" y1="3867.18" x2="12090.7" y2="5143.28" gradientUnits="userSpaceOnUse">
<stop offset="0.1" stop-color="#FEFEFE"/>
<stop offset="0.9" stop-color="#FEFEFE"/>
</linearGradient>
<linearGradient id="paint30_linear_1_846" x1="3336.23" y1="1505.06" x2="3338.32" y2="1405.63" gradientUnits="userSpaceOnUse">
<stop offset="0.1" stop-color="#FEFEFE"/>
<stop offset="0.7" stop-color="#FEFEFE"/>
</linearGradient>
</defs>
</svg>
