<svg width="34" height="34" viewBox="0 0 34 34" fill="none" xmlns="http://www.w3.org/2000/svg">
<path d="M15.7743 25.6942L9.37434 25.5754C9.37434 25.5754 9.37434 26.3773 9.37434 26.6148C9.37434 26.8376 9.65648 27.3425 10.2356 27.6394C10.8296 27.9513 10.889 28.5304 10.592 28.8571C10.295 29.1838 10.1762 29.2283 10.1762 29.5995H14.1855H17.3632H21.3725C21.3725 29.2283 21.2537 29.1838 20.9567 28.8571C20.6597 28.5304 20.7191 27.9513 21.3131 27.6394C21.8922 27.3425 22.1743 26.8376 22.1743 26.6148C22.1743 26.3773 22.1743 25.5754 22.1743 25.5754L15.7743 25.6942Z" fill="url(#paint0_linear_1_60)"/>
<path d="M11.7057 29.4065L12.9233 29.4214C12.953 29.4214 12.9381 28.7532 12.9381 28.6789C12.9233 28.3671 12.8936 28.0404 12.7303 27.7731C12.5669 27.5058 12.2848 27.3276 12.1214 27.0455C11.9284 26.7337 11.9432 26.3476 12.0175 25.9912C12.0323 25.9467 12.0769 25.7833 12.166 25.7833L9.86436 25.7536C9.86436 26.0506 9.80497 26.1991 9.86436 26.4812C9.96831 27.0752 10.3098 27.3425 10.8444 27.5801C11.2602 27.7731 11.4978 28.1592 11.6314 28.5898C11.6463 28.6641 11.869 29.4065 11.7057 29.4065Z" fill="url(#paint1_linear_1_60)"/>
<path opacity="0.5" d="M18.6254 25.6348C18.1354 26.6891 18.0166 27.3425 16.7989 27.6097C16.1604 27.7582 13.2203 27.7434 12.2551 27.6988C11.2899 27.6543 10.0129 27.8919 9.46344 26.9118C9.58223 27.1494 9.84951 27.4464 10.2356 27.6394C10.8296 27.9513 10.889 28.5304 10.592 28.8571C10.295 29.1838 10.1762 29.2283 10.1762 29.5995H21.3725C21.3725 29.2283 21.2537 29.1838 20.9567 28.8571C20.6597 28.5304 20.7191 27.9513 21.3131 27.6394C21.8922 27.3425 22.1743 26.8376 22.1743 26.6148C22.1743 26.3773 22.1743 25.5754 22.1743 25.5754L18.6254 25.6348Z" fill="#020202"/>
<path d="M22.2634 29.9411C22.2634 29.555 21.9665 29.2432 21.5952 29.2432H9.95346C9.58223 29.2432 9.28525 29.555 9.28525 29.9411C9.28525 30.0005 9.3001 30.149 9.31495 30.2084L22.2486 30.1935C22.2634 30.1341 22.2634 30.0005 22.2634 29.9411Z" fill="url(#paint2_linear_1_60)"/>
<g style="mix-blend-mode:multiply" opacity="0.5">
<path d="M22.2634 29.8371H9.3001C9.2902 29.8767 9.28525 29.9114 9.28525 29.9411C9.28525 30.0005 9.3001 30.149 9.31495 30.2084L22.2486 30.1935C22.2634 30.1341 22.2634 30.0005 22.2634 29.9411C22.2634 29.9114 22.2634 29.8767 22.2634 29.8371Z" fill="#221F1F"/>
</g>
<path d="M24.4314 33C24.4314 31.4111 23.4365 30.1193 22.2189 30.1193H9.32979C8.11216 30.1193 7.11726 31.4111 7.11726 33H24.4314Z" fill="url(#paint3_linear_1_60)"/>
<path d="M22.2189 30.1193H19.353C18.3878 31.2626 16.2198 31.9457 15.2101 32.2724C14.0815 32.6139 12.9084 32.8812 11.7057 33H24.4314C24.4314 31.4111 23.4365 30.1193 22.2189 30.1193Z" fill="#020202"/>
<path d="M16.6504 4.17771C16.992 5.38049 18.2393 4.20741 21.7289 6.82086C25.2184 9.43432 25.649 13.9188 25.5154 14.3791C25.3669 14.8394 22.3377 16.1907 20.6449 18.0469C18.9669 19.903 18.6551 21.7591 18.6551 21.7591C18.6551 21.7591 20.9419 24.6844 20.9419 24.6102C20.9419 24.5359 22.0852 25.6793 22.0852 25.2932C22.0852 24.8775 22.8574 24.3132 23.1247 24.0459C23.3474 23.8232 23.5999 23.5856 23.7929 23.3332C24.0602 22.9916 23.9711 22.7689 23.7335 22.4422C23.2286 21.7888 21.8922 20.3633 22.6941 19.5021C23.4662 18.7002 24.5354 18.1211 25.4857 17.5568C26.4658 16.9629 27.52 16.5025 28.5149 15.9531C29.2722 15.5522 29.0198 15.2701 28.5892 13.1615C28.3219 11.8993 27.8319 10.6074 27.2676 9.44917C26.1242 7.02875 24.476 5.06867 22.3674 3.42041C21.1943 2.49976 19.8727 1.77214 18.3878 1.50486C16.8138 1.22272 15.1061 1.43062 13.5618 1.787C12.5818 2.00973 11.6166 2.32156 10.6811 2.70764C9.59708 3.15311 8.88432 3.49465 9.38919 3.98467C9.87921 4.4747 11.1562 5.90021 11.1562 5.90021C11.9136 5.57353 16.3089 2.98978 16.6504 4.17771Z" fill="black"/>
<path d="M10.6365 4.17772C10.3989 3.91044 10.2207 3.58376 9.96831 3.34617C9.84952 3.21253 9.71587 3.18283 9.59708 3.21253C9.22585 3.45011 9.09221 3.6877 9.38919 3.98469C9.87921 4.47471 11.1562 5.90023 11.1562 5.90023C11.275 5.85568 11.4681 5.75174 11.7205 5.6181C11.5423 5.38051 10.8147 4.40046 10.6365 4.17772Z" fill="url(#paint4_linear_1_60)"/>
<path d="M11.9581 4.01437C11.7948 3.67284 11.6166 3.31645 11.4829 2.96007C11.4087 2.72249 11.3344 2.49975 11.082 2.5443C10.9434 2.60369 10.8098 2.65814 10.6811 2.70764C10.6712 2.70764 10.6662 2.70764 10.6662 2.70764C10.6266 2.74723 10.592 2.78188 10.5623 2.81158C10.488 3.03432 10.6068 3.27191 10.6811 3.49465C10.79 3.79163 10.9187 4.07872 11.0671 4.3559C11.1463 4.51429 11.2305 4.66773 11.3196 4.81622C11.5126 5.05381 11.6908 5.30625 11.8245 5.57354C12.0323 5.45474 12.2848 5.32109 12.5521 5.18745C12.2848 4.86077 12.1363 4.4153 11.9581 4.01437Z" fill="url(#paint5_linear_1_60)"/>
<path d="M13.1163 2.79676C13.0421 2.52948 12.9678 1.93551 12.5669 2.0543C12.4333 2.09885 12.2848 2.17309 12.1363 2.18794C12.0472 2.24734 11.9581 2.30673 11.9433 2.41068C11.8987 2.57402 11.9284 2.72251 11.9581 2.88585C12.0323 3.22738 12.1363 3.56892 12.2551 3.88075C12.4135 4.28663 12.6016 4.67766 12.8194 5.05384C13.0866 4.9202 13.3688 4.78655 13.6509 4.65291C13.4727 4.02924 13.2945 3.42043 13.1163 2.79676Z" fill="url(#paint6_linear_1_60)"/>
<path d="M14.527 2.98979C14.5122 2.63341 14.5419 2.20279 14.4379 1.86126C14.3934 1.72761 14.334 1.65337 14.2449 1.63852C14.0865 1.66822 13.9231 1.70286 13.7548 1.74246C13.5915 1.8464 13.4579 2.00975 13.4579 2.23249C13.4579 2.54432 13.5618 2.871 13.6361 3.18283C13.7548 3.6283 13.8588 4.05893 13.9776 4.50441C14.1706 4.41531 14.3637 4.34106 14.5567 4.26682C14.5567 3.83619 14.5419 3.42042 14.527 2.98979Z" fill="url(#paint7_linear_1_60)"/>
<path d="M16.101 3.86593C16.1307 3.57884 16.1555 3.29175 16.1753 3.00467C16.205 2.66313 16.2792 2.30675 16.2792 1.96522C16.2792 1.78703 16.2644 1.5049 16.0862 1.40096C15.7793 1.42075 15.4773 1.45046 15.1804 1.49006C15.0319 1.60885 15.017 1.80188 15.0022 1.99492C15.0022 2.3513 15.0319 2.72253 15.0616 3.07891C15.0913 3.39074 15.121 3.71743 15.1804 4.04411C15.5367 3.92531 15.8486 3.86593 16.101 3.86593Z" fill="url(#paint8_linear_1_60)"/>
<path d="M19.7985 3.46497C19.9915 3.03435 20.3479 2.36613 19.8876 1.9949C19.848 1.9553 19.8034 1.92065 19.7539 1.89095C19.6252 1.84146 19.4916 1.79691 19.353 1.75732C19.2936 1.74742 19.2391 1.74246 19.1896 1.74246C18.9372 1.80186 18.8333 2.0543 18.7739 2.29188C18.6551 2.70766 18.566 3.15314 18.4917 3.56892C18.4026 4.05894 18.3284 4.53411 18.2393 5.02414C18.4769 5.08353 18.7293 5.15778 19.0263 5.27657C19.2787 4.66776 19.5312 4.05894 19.7985 3.46497Z" fill="url(#paint9_linear_1_60)"/>
<path d="M21.5061 4.26682C21.6843 3.99954 22.1743 3.53921 21.9665 3.18283C21.9368 3.13829 21.8922 3.07889 21.8477 3.03434C21.6299 2.87595 21.4071 2.73241 21.1794 2.60372C21.1695 2.59382 21.1547 2.58887 21.1349 2.58887C20.8082 2.48492 20.6449 2.70766 20.5409 2.9601C20.3479 3.37587 20.1549 3.7768 19.9767 4.17773C19.7787 4.59351 19.5807 5.00433 19.3827 5.41021C19.6945 5.5587 20.0361 5.72205 20.4221 5.94479C20.7785 5.38052 21.1349 4.81624 21.5061 4.26682Z" fill="url(#paint10_linear_1_60)"/>
<path d="M21.9813 7.0139C22.2288 6.71692 22.4812 6.42489 22.7386 6.13781C22.991 5.84082 23.2732 5.55869 23.5405 5.2617C23.689 5.08351 23.8523 4.84593 23.7038 4.60834C23.6741 4.56875 23.6494 4.52914 23.6296 4.48954C23.392 4.28165 23.1544 4.07377 22.9168 3.86588C22.9069 3.86588 22.9019 3.86588 22.9019 3.86588C22.6644 3.80649 22.4713 3.92528 22.3228 4.08862C22.0704 4.35591 21.8774 4.66774 21.6843 4.94987C21.4467 5.28645 21.219 5.62798 21.0013 5.97446C20.9518 6.05366 20.9023 6.13286 20.8528 6.21205C21.12 6.39024 21.417 6.58328 21.7289 6.82087C21.8081 6.88026 21.8922 6.94461 21.9813 7.0139Z" fill="url(#paint11_linear_1_60)"/>
<path d="M23.3029 8.33552C23.6741 8.03854 24.0602 7.77125 24.4017 7.45942C24.6839 7.22183 25.0848 6.92485 25.2481 6.59817C25.3075 6.47937 25.2927 6.36059 25.263 6.24179C25.0155 5.94481 24.7581 5.65277 24.4908 5.36569C24.4908 5.36569 24.4908 5.36074 24.4908 5.35084C24.2087 5.20235 23.9859 5.38054 23.8077 5.58842C23.4959 5.94481 23.1692 6.28634 22.8723 6.62787C22.6792 6.85061 22.4862 7.07334 22.308 7.29608C22.6792 7.62276 23.0059 7.97914 23.3029 8.33552Z" fill="url(#paint12_linear_1_60)"/>
<path d="M25.3818 8.92947C25.6045 8.75128 25.8569 8.57309 26.05 8.35035C26.1539 8.24641 26.2876 8.09792 26.3024 7.93458C26.3321 7.78609 26.2727 7.6673 26.1985 7.5485C26.1094 7.44456 26.0203 7.34061 25.9015 7.32576C25.7233 7.28122 25.5303 7.34062 25.3669 7.42971C25.0848 7.5782 24.8175 7.78608 24.5799 7.97912C24.2532 8.24641 23.9562 8.52855 23.6741 8.84038C23.882 9.14727 24.0701 9.4492 24.2384 9.74618C24.6393 9.50859 25.0254 9.22646 25.3818 8.92947Z" fill="url(#paint13_linear_1_60)"/>
<path d="M25.6787 12.909C26.0351 12.8348 26.3618 12.7457 26.6885 12.6269C26.9558 12.5378 27.2082 12.419 27.4607 12.2854C27.6388 12.1963 27.9655 12.0775 28.0101 11.8399C28.0546 11.5726 27.9507 11.3053 27.8913 11.0529C27.8616 10.9341 27.8319 10.7114 27.6982 10.652C27.6883 10.6421 27.6735 10.6371 27.6537 10.6371C27.2973 10.5926 26.9112 10.8005 26.5994 10.9341C26.2579 11.0974 25.9015 11.2608 25.56 11.439C25.3966 11.5281 25.2481 11.6172 25.0848 11.7211C25.2184 12.1666 25.3224 12.5824 25.3966 12.9536C25.5154 12.9239 25.6194 12.9239 25.6787 12.909Z" fill="url(#paint14_linear_1_60)"/>
<path d="M25.2036 14.7058C25.5154 14.7207 25.8272 14.7949 26.1391 14.7503C26.5152 14.7108 26.8865 14.681 27.2528 14.6612C27.5794 14.6464 27.9061 14.6316 28.2328 14.587C28.3664 14.5722 28.5446 14.5425 28.6634 14.4682C28.7525 14.394 28.7971 14.3197 28.8268 14.2306C28.7525 13.9336 28.6783 13.5921 28.5892 13.1615C28.5595 13.0229 28.5248 12.8843 28.4852 12.7457C28.4654 12.7358 28.4407 12.7259 28.411 12.716C28.0398 12.6269 27.6388 12.7606 27.2825 12.8793C26.6736 13.0575 26.0945 13.3248 25.4857 13.5179C25.5451 13.9633 25.5451 14.2752 25.5154 14.3791C25.4857 14.4682 25.3669 14.5722 25.2036 14.7058Z" fill="url(#paint15_linear_1_60)"/>
<path d="M27.7428 15.1216C27.2231 15.0919 26.7033 15.1067 26.1836 15.0622C25.7827 15.0325 25.3669 15.0473 24.9957 14.8691C24.9858 14.8691 24.9808 14.8642 24.9808 14.8543C24.7433 15.0176 24.4314 15.2107 24.0899 15.4186C24.7433 15.7304 25.4263 15.9828 26.0945 16.2798C26.5252 16.458 26.8964 16.6065 27.3716 16.4877C27.4508 16.4778 27.525 16.458 27.5943 16.4283C27.9061 16.2798 28.218 16.1165 28.5149 15.9531C28.5892 15.9234 28.6486 15.8937 28.6931 15.8492C28.703 15.7898 28.708 15.7254 28.708 15.6561C28.6783 15.1216 28.1734 15.1364 27.7428 15.1216Z" fill="url(#paint16_linear_1_60)"/>
<path d="M25.8718 16.8738C25.6787 16.6214 25.3372 16.4432 25.0551 16.3095C24.565 16.0868 24.0305 15.9234 23.5108 15.7898C23.1395 16.0274 22.7386 16.2798 22.3525 16.562C22.3921 16.5917 22.4268 16.6214 22.4565 16.6511C22.7089 16.8589 22.9613 17.052 23.1989 17.2896C23.4662 17.5569 23.7929 17.8835 24.179 17.9726C24.4017 18.032 24.6244 18.0023 24.8472 17.9281C25.0551 17.8093 25.2778 17.6905 25.4857 17.5568C25.6144 17.4777 25.7431 17.4034 25.8718 17.3341C25.946 17.1708 25.9609 17.0074 25.8718 16.8738Z" fill="url(#paint17_linear_1_60)"/>
<path d="M20.9567 18.4775C21.1547 18.6755 21.3576 18.8685 21.5655 19.0566C21.7882 19.2645 22.0407 19.5021 22.3228 19.606C22.4218 19.6357 22.5109 19.6506 22.5901 19.6506C22.6198 19.6011 22.6545 19.5516 22.694 19.5021C23.0504 19.1457 23.4514 18.8339 23.8671 18.5369C23.8572 18.4874 23.8374 18.4379 23.8077 18.3884C23.6889 18.1656 23.4959 17.9726 23.3029 17.8093C22.8722 17.4826 22.3971 17.1856 21.9516 16.8738C21.4764 17.2301 21.0309 17.6162 20.6449 18.0469C20.6251 18.0667 20.6053 18.0914 20.5855 18.1211C20.7043 18.2399 20.8379 18.3587 20.9567 18.4775Z" fill="url(#paint18_linear_1_60)"/>
<path d="M19.0708 21.0464C19.2639 21.0612 19.4569 21.0761 19.65 21.0761C20.0509 21.0613 20.4518 21.0464 20.8676 21.0464C21.2339 21.0365 21.6051 21.0316 21.9813 21.0316C22.2189 21.0316 22.4565 21.0019 22.6049 20.8088C22.5307 20.6455 22.4862 20.4821 22.4565 20.3336C22.3525 20.1851 22.204 20.0812 22.0258 19.9773C21.7437 19.8288 21.4467 19.6506 21.1794 19.4724C20.8527 19.2794 20.5409 19.0863 20.1994 18.9081C20.1548 18.8784 20.0806 18.8487 20.0212 18.819C19.3827 19.6951 19.0411 20.497 18.8481 21.0464C18.9273 21.0365 19.0015 21.0365 19.0708 21.0464Z" fill="url(#paint19_linear_1_60)"/>
<path d="M20.7934 23.749C21.1646 23.5856 21.5358 23.3777 21.8922 23.1699C22.1892 23.0065 22.5159 22.8283 22.8129 22.6353C23.095 22.4422 23.3326 22.2344 23.3029 21.9077C23.2138 21.7889 23.1098 21.6552 23.0059 21.5067C22.8129 21.4176 22.605 21.4028 22.3822 21.4176C21.9219 21.4473 21.4616 21.477 20.9864 21.4919C20.1994 21.5216 19.4421 21.6552 18.6551 21.7146C18.6551 21.7443 18.6551 21.7592 18.6551 21.7592C18.6551 21.7592 19.6648 23.0362 20.333 23.8826C20.4964 23.8381 20.6449 23.8084 20.7934 23.749Z" fill="url(#paint20_linear_1_60)"/>
<path d="M23.1841 22.6649C22.8722 22.8431 22.5455 23.0065 22.2337 23.1847C21.6843 23.5262 21.1497 23.8826 20.5855 24.1796C20.7933 24.4469 20.9418 24.625 20.9418 24.6102C20.9418 24.5359 22.0852 25.6793 22.0852 25.2933C22.0852 24.8775 22.8574 24.3132 23.1247 24.0459C23.3474 23.8232 23.5998 23.5856 23.7929 23.3332C24.0008 23.051 23.9859 22.858 23.8523 22.6204C23.6444 22.4571 23.392 22.561 23.1841 22.6649Z" fill="url(#paint21_linear_1_60)"/>
<path d="M25.4263 11.0381C25.753 10.8599 26.0648 10.6817 26.4063 10.548C26.6885 10.4292 27.1785 10.2807 27.327 9.98376C27.3864 9.87982 27.3864 9.74617 27.3567 9.61253C27.327 9.55313 27.2973 9.49869 27.2676 9.44919C27.2082 9.3106 27.1439 9.17696 27.0746 9.04826C27.0251 8.95917 26.9706 8.88492 26.9112 8.82553C26.8716 8.78593 26.8271 8.75623 26.7776 8.73643C26.5548 8.61764 26.3172 8.72158 26.1242 8.85523C25.753 9.07796 25.4114 9.34525 25.0699 9.61253C24.862 9.77587 24.6393 9.95406 24.4463 10.1323C24.6393 10.5183 24.8026 10.9193 24.9363 11.2905C25.1046 11.2113 25.2679 11.1272 25.4263 11.0381Z" fill="url(#paint22_linear_1_60)"/>
<path d="M18.076 1.46033C17.9275 1.44053 17.774 1.42569 17.6156 1.41579C17.5265 1.41579 17.4424 1.42073 17.3632 1.43063C17.3187 1.44548 17.2741 1.47518 17.2444 1.50488C17.0811 1.68307 17.1108 2.0246 17.0959 2.24734C17.0811 2.72251 17.0811 3.19769 17.0959 3.65801C17.0959 4.02429 17.1157 4.39057 17.1553 4.75685C17.3187 4.81625 17.5414 4.86079 17.8087 4.92019C17.8285 4.8311 17.8483 4.742 17.8681 4.65291C18.0166 4.05894 18.1205 3.46497 18.2096 2.85615C18.2393 2.64826 18.4175 1.9652 18.2839 1.60882C18.2245 1.53953 18.1552 1.49003 18.076 1.46033Z" fill="url(#paint23_linear_1_60)"/>
<path d="M22.1149 25.4121V25.0705C21.4764 23.3777 19.3827 21.3137 19.3827 21.3137C20.437 17.0371 26.1242 14.7949 26.1242 14.7949C25.0254 5.45476 17.7196 4.25198 17.7196 4.25198C17.7344 3.43527 16.9474 1 16.9474 1C15.5813 1.77216 14.1409 3.24223 13.8439 3.58376C13.547 3.92529 13.8736 4.17773 13.8736 4.17773C12.062 4.742 10.191 6.13782 10.0129 6.36056C9.83467 6.5833 11.1265 7.04362 11.1265 7.04362C8.05277 9.1522 5.86994 12.9239 5.86994 12.9239C4.8008 13.0872 4.72655 13.4882 4.97899 14.4979C5.23142 15.5225 5.91448 16.3392 5.91448 16.3392C5.46901 17.2896 7.08757 16.6213 7.08757 16.6213C6.93908 17.0223 6.95393 17.5123 7.31031 17.4677C7.66669 17.4381 11.0523 16.7104 11.1562 16.6065C11.275 16.5174 11.6314 14.0524 11.6314 14.0524C13.3539 12.9981 15.9377 13.5921 15.9377 13.5921C15.9377 13.5921 13.9924 15.671 11.4978 18.136C9.00311 20.5861 8.88432 22.2343 8.88432 22.2343C10.6514 23.9717 10.1614 25.3081 10.1614 25.3081L22.1149 25.4121Z" fill="url(#paint24_linear_1_60)"/>
<path d="M14.3191 18.3736C14.8537 17.8093 15.4179 17.2747 15.8931 16.755C17.2741 15.2849 18.6254 13.7406 19.4124 11.8696C18.9818 12.8942 17.4968 13.9782 16.695 14.7504C16.1456 15.2552 15.5813 15.7453 15.0022 16.2204C14.4676 16.6659 13.933 17.1411 13.3985 17.6014C12.9084 18.032 12.4036 18.4478 11.9432 18.923C11.4978 19.3833 11.0523 19.8882 10.785 20.497C10.4732 21.1801 10.5623 21.9819 10.978 22.6056C11.2899 23.0956 11.7353 23.4817 12.0323 23.9717C11.9284 23.0956 12.0026 22.1453 12.2848 21.3137C12.656 20.2149 13.4579 19.2497 14.3191 18.3736Z" fill="url(#paint25_linear_1_60)"/>
<g style="mix-blend-mode:multiply">
<path d="M12.953 25.3378C12.4927 25.2042 12.0026 25.0408 11.6166 24.7735C11.2156 24.5062 11.1117 23.9568 10.8444 23.5707C10.6563 23.2936 10.4385 23.0411 10.191 22.8134C10.0128 22.6501 9.80496 22.5016 9.64162 22.2937C9.35948 21.9373 9.58222 21.4028 9.77526 21.0612C10.0722 20.5118 10.488 20.0366 10.8444 19.5318C11.2008 19.0121 11.5572 18.5072 11.9878 18.0469C12.1808 17.8538 12.359 17.6459 12.5521 17.4677C12.9381 17.052 13.3391 16.6807 13.74 16.3095C14.7497 15.4037 15.8337 14.5721 16.8583 13.696C17.378 13.2654 17.8978 12.8199 18.3878 12.3596C18.6402 12.1072 18.8778 11.8547 19.1154 11.6023C19.3381 11.3647 19.6797 11.0529 19.7391 10.7411C19.8133 10.3995 19.5163 10.1619 19.3084 9.95405C19.0709 9.71646 18.8333 9.47887 18.5808 9.25614C18.3135 9.01855 18.0314 8.76611 17.7344 8.55822C17.6008 8.46913 17.4671 8.39488 17.3186 8.30579C17.3285 8.31568 17.3384 8.32559 17.3483 8.33549C17.7196 8.79581 18.0908 9.41948 18.1947 9.9986C18.3135 10.6371 17.9572 11.1123 17.4374 11.439C16.9029 11.7657 16.3386 11.8696 15.7001 11.825C14.9725 11.7805 14.2152 11.6172 13.4876 11.6766C13.2797 11.6914 12.6115 11.7805 12.7154 11.3796C12.7748 11.142 12.9381 10.9341 13.0718 10.7411C13.2797 10.4886 13.4579 10.2213 13.6657 9.9689C13.8736 9.68676 14.0964 9.43433 14.3488 9.18189C13.7548 9.49372 13.1609 9.8204 12.5966 10.1916C12.2105 10.4441 11.7799 10.6965 11.4978 11.038C11.2305 11.3647 11.0671 11.7359 10.9483 12.1369C10.7108 12.9833 10.5771 13.8445 10.3989 14.7058C10.3247 15.0176 10.295 15.4631 10.0722 15.7155C9.89406 15.9086 9.65647 15.968 9.38918 15.9531C9.35948 15.9531 9.32979 15.9234 9.34463 15.8937C9.37433 15.6264 9.62677 15.4779 9.71586 15.2404C9.8792 14.884 9.38918 14.6612 9.13675 14.5424C8.73582 14.3643 8.54278 14.7652 8.26065 14.9582C7.99336 15.1364 7.71123 15.2997 7.38454 15.3294C7.3697 15.3294 7.33999 15.2998 7.33999 15.2849C7.29545 15.0919 7.26575 14.884 7.10241 14.7503C6.92422 14.6018 6.73118 14.5276 6.52329 14.4237C6.22631 14.29 5.92932 14.1118 5.91447 13.7406C5.88477 12.9387 6.46389 12.122 6.95391 11.5429C7.68152 10.7114 8.45368 9.9095 9.30009 9.18189C9.68617 8.85521 10.0722 8.49883 10.5177 8.21669C10.889 7.99396 11.275 7.78607 11.6314 7.51878C11.7057 7.42969 11.7799 7.34059 11.8393 7.2515C11.6463 7.14755 11.4087 7.103 11.1859 7.11785C11.1166 7.12775 11.0473 7.13765 10.978 7.14755C7.99336 9.27098 5.86993 12.9239 5.86993 12.9239C4.80079 13.0872 4.72654 13.4882 4.97898 14.4979C5.23141 15.5225 5.91447 16.3392 5.91447 16.3392C5.469 17.2895 7.08756 16.6213 7.08756 16.6213C6.93907 17.0223 6.95392 17.5123 7.3103 17.4677C7.66668 17.438 11.0523 16.7104 11.1562 16.6065C11.275 16.5174 11.6314 14.0524 11.6314 14.0524C13.3539 12.9981 15.9377 13.5921 15.9377 13.5921C15.9377 13.5921 13.9924 15.671 11.4978 18.1359C9.0031 20.5861 8.88431 22.2343 8.88431 22.2343C10.6514 23.9717 10.1613 25.3081 10.1613 25.3081L12.953 25.3378Z" fill="url(#paint26_linear_1_60)"/>
</g>
<g style="mix-blend-mode:multiply">
<path d="M19.3827 21.3137C20.437 17.0371 26.1242 14.7949 26.1242 14.7949C25.0254 5.45476 17.7196 4.25198 17.7196 4.25198C17.7344 3.43527 16.9474 1 16.9474 1C15.5813 1.77216 14.1409 3.24223 13.8439 3.58376C13.547 3.92529 13.8736 4.17773 13.8736 4.17773C12.062 4.742 10.191 6.13782 10.0129 6.36056C9.90891 6.47935 10.295 6.68724 10.6365 6.85058C10.3247 6.31601 11.676 5.52901 12.0769 5.36566C12.9381 5.03898 13.8736 5.08353 14.6458 5.46961C14.6458 5.43991 14.631 5.42506 14.631 5.41021C14.4676 5.05383 14.3637 4.6529 14.3191 4.26682C14.2449 3.61346 14.5864 3.03434 15.017 2.57402C15.5071 2.0543 16.0268 1.53457 16.6801 1.22274C16.7098 1.20789 16.7544 1.22274 16.7544 1.25244C16.9623 1.71276 16.9474 2.26219 16.9326 2.75221C16.9177 3.24223 16.888 3.7174 16.7098 4.17773C16.4871 4.72715 16.1456 5.29142 15.6852 5.70719C15.6556 5.75669 15.6308 5.81114 15.611 5.87054C15.6506 5.87054 15.6902 5.86558 15.7298 5.85569C15.809 5.82599 15.8882 5.79629 15.9674 5.76659C16.0565 5.7369 16.1604 5.7072 16.2495 5.69235C16.3287 5.68245 16.4079 5.67749 16.4871 5.67749C16.6554 5.65769 16.8237 5.65769 16.992 5.67749C17.482 5.73689 17.972 5.88538 18.4175 6.07842C19.353 6.47935 20.1697 7.13272 20.7785 7.94943C21.5507 8.98887 22.1446 10.1619 22.5307 11.3944C22.6941 11.9142 22.8574 12.419 23.0356 12.9239C23.1247 13.1912 23.2732 13.5327 23.2138 13.8297C23.2286 13.8445 23.2286 13.8742 23.2138 13.9039C23.1247 14.1267 22.8723 14.1712 22.6792 14.2752C22.3327 14.4732 21.9961 14.6811 21.6695 14.8988C21.0161 15.3592 20.3627 15.8343 19.7688 16.3541C19.1897 16.8589 18.6848 17.4232 18.2096 18.032C17.7344 18.626 17.2741 19.2496 16.8583 19.8882C16.7841 19.9921 16.2198 20.9128 16.3535 20.987C16.591 21.1058 16.7544 21.3137 16.9177 21.5216C17.3484 22.0858 17.779 22.5907 18.0611 23.2589C18.2839 23.8232 18.462 24.4172 18.5214 25.026C18.5214 25.1299 18.5363 25.2636 18.5363 25.3824L22.1149 25.4121V25.0705C21.4764 23.3777 19.3827 21.3137 19.3827 21.3137Z" fill="url(#paint27_linear_1_60)"/>
</g>
<path d="M11.7057 8.63249C11.8244 8.57309 11.9729 8.58794 12.1066 8.58794C12.2848 8.60279 12.463 8.61764 12.6412 8.63249C12.8936 8.64734 13.1312 8.63249 13.3094 8.43945C13.4876 8.23156 13.6212 7.96427 13.8736 7.81578C14.1261 7.65244 14.3488 7.44455 14.3488 7.44455C14.1558 7.4891 14.0221 7.44455 14.0221 7.44455L14.0964 7.41485C14.0964 7.41485 13.6063 7.22181 12.9084 7.31091C12.2996 7.3703 11.7502 7.74154 11.7502 7.74154L11.8541 7.75638C11.8541 7.75638 11.7205 7.89003 11.5869 8.26126C11.5423 8.40975 11.4532 9.00372 11.4532 9.00372C11.4532 9.00372 11.5869 8.69188 11.7057 8.63249Z" fill="black"/>
<path d="M5.85508 14.2455C5.85508 14.2455 6.21146 14.5573 6.3154 15.0622C6.4342 15.5522 6.59754 15.7601 6.67178 15.5819C6.74603 15.4037 7.10241 14.884 6.93907 14.7801C6.77573 14.6761 5.85508 14.2455 5.85508 14.2455Z" fill="black"/>
<path d="M7.16181 16.5174C7.20636 16.458 7.29545 16.3689 7.38455 16.265C7.48354 16.1561 7.59739 16.0422 7.72608 15.9235C7.79537 15.874 7.86962 15.8245 7.94882 15.775C8.01811 15.7255 8.09731 15.6809 8.1864 15.6413C8.26065 15.5968 8.34974 15.5671 8.43884 15.5374C8.52793 15.4978 8.61208 15.4631 8.69127 15.4334C8.78037 15.3938 8.85957 15.3542 8.92886 15.3146C8.99816 15.275 9.0625 15.2305 9.1219 15.181C9.1813 15.1364 9.22585 15.0919 9.25554 15.0325C9.28524 14.988 9.31494 14.9434 9.31494 14.8989C9.32484 14.8494 9.32484 14.8147 9.31494 14.7949C9.30504 14.7751 9.30009 14.7652 9.30009 14.7652C9.30009 14.7652 9.30009 14.7751 9.30009 14.7949C9.31494 14.8246 9.31494 14.8543 9.30009 14.884C9.28524 14.9286 9.27039 14.9731 9.22585 15.0177C9.18625 15.0573 9.1417 15.0969 9.0922 15.1365C8.97341 15.2107 8.82492 15.2849 8.66157 15.3592C8.58238 15.3889 8.49824 15.4186 8.40914 15.4483C8.32005 15.478 8.23095 15.5077 8.14185 15.5522C8.05276 15.5918 7.96862 15.6364 7.88942 15.6859C7.81022 15.7453 7.73598 15.8047 7.66668 15.8641C7.53304 15.9829 7.42909 16.1165 7.34 16.2353C7.2509 16.3392 7.19151 16.4432 7.14696 16.5174C7.10241 16.5768 7.08756 16.6214 7.08756 16.6214C7.08756 16.6214 7.11231 16.5867 7.16181 16.5174Z" fill="black"/>
<path d="M9.12191 14.6167C9.00312 14.6167 8.91402 14.5276 8.91402 14.5276C8.91402 14.5276 8.94372 14.7801 9.15161 14.8543C9.37435 14.9434 9.3595 15.2404 9.3595 15.2404C9.52284 15.0919 9.47829 14.8543 9.47829 14.8543C9.52284 14.8692 9.64163 14.9434 9.64163 14.9434C9.64163 14.9434 9.58224 14.7207 9.50799 14.6761C9.37435 14.5722 9.06251 14.5276 9.06251 14.5276L9.12191 14.6167Z" fill="black"/>
<path d="M15.9674 3.15314C15.4031 3.8659 14.5567 4.04409 14.8834 4.29653C15.2101 4.56381 15.1655 5.72205 15.3289 5.17263C15.4922 4.63806 16.3386 2.84131 16.3386 2.84131C16.398 2.72251 16.5019 2.45523 15.9674 3.15314Z" fill="black"/>
<path d="M13.8885 4.25196C13.9033 4.2965 13.933 4.3559 13.9627 4.43015C13.9924 4.50935 14.0271 4.59844 14.0667 4.69743C14.1112 4.78653 14.1706 4.87562 14.2152 4.96472C14.2746 5.06866 14.334 5.15775 14.3934 5.232C14.4231 5.27655 14.4528 5.3211 14.4825 5.3508C14.5122 5.3904 14.5419 5.42504 14.5716 5.45474C14.6013 5.48444 14.6309 5.51413 14.6606 5.52898C14.6804 5.54878 14.7002 5.56859 14.72 5.58838C14.7596 5.61808 14.7794 5.63293 14.7794 5.63293C14.7794 5.63293 14.7646 5.61809 14.7349 5.57354C14.725 5.55374 14.7052 5.53394 14.6755 5.51414C14.6606 5.48444 14.6458 5.45474 14.6161 5.42505C14.5765 5.35575 14.527 5.27655 14.4676 5.18745C14.4231 5.09836 14.3637 5.00927 14.3043 4.92017C14.2003 4.72713 14.0815 4.54894 14.0073 4.41529C13.9677 4.346 13.933 4.29156 13.9033 4.25196C13.8736 4.20741 13.8736 4.17771 13.8736 4.17771C13.8736 4.17771 13.8736 4.20741 13.8885 4.25196Z" fill="black"/>
<path d="M15.8931 5.76657C15.9525 5.73687 16.0565 5.70717 16.1604 5.66263C16.2792 5.61808 16.4129 5.55868 16.5465 5.48443C16.6801 5.41019 16.8286 5.33595 16.9623 5.24685C17.0959 5.15776 17.2296 5.06866 17.3484 4.96471C17.3978 4.91521 17.4473 4.86077 17.4968 4.80137C17.5463 4.75188 17.5859 4.69742 17.6156 4.63803C17.6453 4.59348 17.675 4.53408 17.6899 4.48954C17.7097 4.44004 17.7196 4.40044 17.7196 4.37074C17.7344 4.3262 17.7196 4.2965 17.7196 4.28165C17.7196 4.30145 17.7146 4.33115 17.7047 4.37074C17.7047 4.40044 17.675 4.43014 17.6602 4.47469C17.6404 4.51429 17.6107 4.55884 17.5711 4.60834C17.5414 4.66773 17.4968 4.69743 17.4523 4.75683C17.4028 4.80633 17.3484 4.85087 17.289 4.89047C17.2296 4.93996 17.1652 4.98946 17.0959 5.03896C17.0365 5.08351 16.9771 5.12806 16.9029 5.1726C16.7692 5.2617 16.6356 5.33594 16.5019 5.41019C16.3683 5.48443 16.2495 5.55868 16.1456 5.61808C15.9228 5.72202 15.7892 5.79627 15.7892 5.79627C15.7892 5.79627 15.8189 5.78142 15.8931 5.76657Z" fill="black"/>
<path d="M22.6495 25.6051C22.6495 25.3081 22.4119 25.0705 22.1149 25.0705H9.43373C9.13675 25.0705 8.89916 25.3081 8.89916 25.6051C8.89916 25.9021 9.13675 26.1397 9.43373 26.1397H22.1149C22.4119 26.1397 22.6495 25.9021 22.6495 25.6051Z" fill="url(#paint28_linear_1_60)"/>
<path d="M22.1149 25.0705H14.8982C15.2398 25.323 15.2101 25.9318 14.824 26.1397H22.1149C22.4119 26.1397 22.6495 25.9021 22.6495 25.6051C22.6495 25.3081 22.4119 25.0705 22.1149 25.0705Z" fill="#020202"/>
<path d="M14.4676 8.72158C14.8537 9.00371 14.4825 9.53829 14.2894 9.80558C14.1112 10.058 13.9182 10.2956 13.7251 10.5332C13.6212 10.6668 13.3539 10.9193 13.3688 11.1123C13.3688 11.2014 13.8736 11.0974 13.933 11.0974C14.1409 11.0677 14.3637 11.0826 14.5716 11.1123C15.1952 11.2162 15.8931 11.4538 16.4871 11.142C17.7938 10.4589 16.7247 8.79582 16.1753 7.97912C15.7892 7.41485 15.3883 6.77633 15.1655 6.12297C15.1556 6.18237 15.1408 6.24672 15.121 6.31602C15.0913 6.65755 14.9873 7.01393 14.8685 7.32576C14.6903 7.72669 14.4528 8.08306 14.1261 8.35035C14.0073 8.44934 13.8835 8.52854 13.7548 8.58794C13.9924 8.57309 14.2894 8.60278 14.4676 8.72158Z" fill="url(#paint29_linear_1_60)"/>
<path d="M22.7386 13.1169C22.4862 11.2014 20.9864 8.61762 20.4815 7.94941C19.8282 7.11785 18.9224 6.27145 17.8681 6.03386C17.5711 5.95961 17.2444 5.90022 16.9771 5.88537C21.1794 8.17214 22.6644 12.4784 22.7386 13.1169Z" fill="url(#paint30_linear_1_60)"/>
<path d="M16.3386 1.38609C16.3287 1.38609 16.3188 1.38609 16.3089 1.38609C16.205 1.49003 16.101 1.56428 15.9822 1.63852C15.3289 2.1434 14.334 3.00465 13.9924 3.42042C13.6063 3.8659 13.7103 3.95499 13.8736 4.17773C13.8736 4.17773 12.8045 4.40047 10.9335 5.6478C10.4286 5.98933 10.0871 6.27147 10.0128 6.36056C10.0029 6.36056 9.998 6.36551 9.998 6.37541C9.998 6.38531 9.998 6.39026 9.998 6.39026C9.998 6.39026 9.998 6.39521 9.998 6.40511C9.998 6.41501 9.998 6.42491 9.998 6.43481C9.998 6.43481 9.998 6.43975 9.998 6.44965C10.0079 6.44965 10.0128 6.45461 10.0128 6.46451C10.0128 6.46451 10.0178 6.46451 10.0277 6.46451C10.0277 6.47441 10.0277 6.47935 10.0277 6.47935C10.0376 6.48925 10.0425 6.4942 10.0425 6.4942C10.0524 6.5041 10.0623 6.514 10.0722 6.5239C10.0821 6.5338 10.097 6.5437 10.1168 6.5536C10.1168 6.5635 10.1168 6.56844 10.1168 6.56844C10.1267 6.56844 10.1366 6.57835 10.1465 6.59814C10.1564 6.59814 10.1613 6.59814 10.1613 6.59814C10.1811 6.60804 10.196 6.61795 10.2059 6.62784H10.2207C10.2306 6.63774 10.2405 6.64765 10.2504 6.65755C10.2603 6.65755 10.2653 6.65755 10.2653 6.65755C10.2851 6.66744 10.2999 6.67735 10.3098 6.68725H10.3247C10.6514 6.86544 11.1265 7.04362 11.1265 7.04362C8.1567 9.09281 6.00357 12.7012 5.86992 12.909C5.86992 12.9189 5.86992 12.9239 5.86992 12.9239C4.80078 13.0872 4.72654 13.4882 4.97897 14.4979C5.11262 15.0622 5.39475 15.5671 5.60264 15.9086C5.51355 15.5374 5.45415 15.181 5.45415 14.8097C5.45415 14.4682 5.54324 13.9633 5.92932 13.8445C6.18176 13.7554 6.43419 13.8297 6.68663 13.9039C7.01331 13.9782 7.36969 14.0227 7.71122 14.0079C9.98315 13.8742 10.2653 11.2014 10.7702 9.50859C11.0226 8.64734 11.3938 7.77123 12.1363 7.23666C12.6412 6.89513 13.2351 6.65755 13.8439 6.65755C14.3637 6.65755 15.1507 6.65754 15.0764 5.92993C15.0022 5.15777 14.2746 4.34107 14.9428 3.64316C15.3289 3.24223 15.908 2.97494 16.2198 2.51462C16.5316 2.05429 16.7098 1.56428 16.8732 1.04456C16.695 1.15345 16.5168 1.26729 16.3386 1.38609Z" fill="url(#paint31_linear_1_60)"/>
<g style="mix-blend-mode:screen" opacity="0.5">
<path d="M10.5623 30.1193C9.74557 30.3272 8.64673 31.5596 8.48339 33H11.6166C11.6166 32.0942 11.7651 30.8023 12.4481 30.1193H10.5623Z" fill="url(#paint32_linear_1_60)"/>
</g>
<defs>
<linearGradient id="paint0_linear_1_60" x1="-3246.94" y1="3139.05" x2="-2137.19" y2="3139.05" gradientUnits="userSpaceOnUse">
<stop stop-color="#A3A5A8"/>
<stop offset="0.3" stop-color="#434546"/>
<stop offset="0.6" stop-color="#201E1E"/>
</linearGradient>
<linearGradient id="paint1_linear_1_60" x1="11.3899" y1="25.7536" x2="11.3899" y2="29.4214" gradientUnits="userSpaceOnUse">
<stop stop-color="white" stop-opacity="0"/>
<stop offset="1" stop-color="white" stop-opacity="0.5"/>
</linearGradient>
<linearGradient id="paint2_linear_1_60" x1="-3457.19" y1="779.973" x2="-2569.48" y2="779.973" gradientUnits="userSpaceOnUse">
<stop stop-color="#A3A5A8"/>
<stop offset="0.4" stop-color="#434546"/>
<stop offset="0.9" stop-color="#201E1E"/>
</linearGradient>
<linearGradient id="paint3_linear_1_60" x1="-463.828" y1="143.332" x2="-1345.12" y2="143.332" gradientUnits="userSpaceOnUse">
<stop stop-color="#434546"/>
<stop offset="0.0001" stop-color="#2D2B2C"/>
<stop offset="0.9" stop-color="#201E1E"/>
</linearGradient>
<linearGradient id="paint4_linear_1_60" x1="10.4735" y1="3.202" x2="10.4735" y2="5.90023" gradientUnits="userSpaceOnUse">
<stop stop-color="white" stop-opacity="0"/>
<stop offset="1" stop-color="white" stop-opacity="0.5"/>
</linearGradient>
<linearGradient id="paint5_linear_1_60" x1="11.5454" y1="2.53857" x2="11.5454" y2="5.57354" gradientUnits="userSpaceOnUse">
<stop stop-color="white" stop-opacity="0"/>
<stop offset="1" stop-color="white" stop-opacity="0.5"/>
</linearGradient>
<linearGradient id="paint6_linear_1_60" x1="12.7857" y1="2.03879" x2="12.7857" y2="5.05384" gradientUnits="userSpaceOnUse">
<stop stop-color="white" stop-opacity="0"/>
<stop offset="1" stop-color="white" stop-opacity="0.5"/>
</linearGradient>
<linearGradient id="paint7_linear_1_60" x1="14.0073" y1="1.63852" x2="14.0073" y2="4.50441" gradientUnits="userSpaceOnUse">
<stop stop-color="white" stop-opacity="0"/>
<stop offset="1" stop-color="white" stop-opacity="0.5"/>
</linearGradient>
<linearGradient id="paint8_linear_1_60" x1="15.6407" y1="1.40096" x2="15.6407" y2="4.04411" gradientUnits="userSpaceOnUse">
<stop stop-color="white" stop-opacity="0"/>
<stop offset="1" stop-color="white" stop-opacity="0.5"/>
</linearGradient>
<linearGradient id="paint9_linear_1_60" x1="19.1761" y1="1.74246" x2="19.1761" y2="5.27658" gradientUnits="userSpaceOnUse">
<stop stop-color="white" stop-opacity="0"/>
<stop offset="1" stop-color="white" stop-opacity="0.5"/>
</linearGradient>
<linearGradient id="paint10_linear_1_60" x1="20.6998" y1="2.56271" x2="20.6998" y2="5.94479" gradientUnits="userSpaceOnUse">
<stop stop-color="white" stop-opacity="0"/>
<stop offset="1" stop-color="white" stop-opacity="0.5"/>
</linearGradient>
<linearGradient id="paint11_linear_1_60" x1="22.3076" y1="3.85035" x2="22.3076" y2="7.0139" gradientUnits="userSpaceOnUse">
<stop stop-color="white" stop-opacity="0"/>
<stop offset="1" stop-color="white" stop-opacity="0.5"/>
</linearGradient>
<linearGradient id="paint12_linear_1_60" x1="23.7985" y1="5.29604" x2="23.7985" y2="8.33552" gradientUnits="userSpaceOnUse">
<stop stop-color="white" stop-opacity="0"/>
<stop offset="1" stop-color="white" stop-opacity="0.5"/>
</linearGradient>
<linearGradient id="paint13_linear_1_60" x1="24.9922" y1="7.31062" x2="24.9922" y2="9.74618" gradientUnits="userSpaceOnUse">
<stop stop-color="white" stop-opacity="0"/>
<stop offset="1" stop-color="white" stop-opacity="0.5"/>
</linearGradient>
<linearGradient id="paint14_linear_1_60" x1="26.5528" y1="10.631" x2="26.5528" y2="12.9536" gradientUnits="userSpaceOnUse">
<stop stop-color="white" stop-opacity="0"/>
<stop offset="1" stop-color="white" stop-opacity="0.5"/>
</linearGradient>
<linearGradient id="paint15_linear_1_60" x1="27.0152" y1="12.687" x2="27.0152" y2="14.7644" gradientUnits="userSpaceOnUse">
<stop stop-color="white" stop-opacity="0"/>
<stop offset="1" stop-color="white" stop-opacity="0.5"/>
</linearGradient>
<linearGradient id="paint16_linear_1_60" x1="26.3989" y1="14.8543" x2="26.3989" y2="16.5304" gradientUnits="userSpaceOnUse">
<stop stop-color="white" stop-opacity="0"/>
<stop offset="1" stop-color="white" stop-opacity="0.5"/>
</linearGradient>
<linearGradient id="paint17_linear_1_60" x1="24.1428" y1="15.7898" x2="24.1428" y2="18.0042" gradientUnits="userSpaceOnUse">
<stop stop-color="white" stop-opacity="0"/>
<stop offset="1" stop-color="white" stop-opacity="0.5"/>
</linearGradient>
<linearGradient id="paint18_linear_1_60" x1="22.2263" y1="16.8738" x2="22.2263" y2="19.6506" gradientUnits="userSpaceOnUse">
<stop stop-color="white" stop-opacity="0"/>
<stop offset="1" stop-color="white" stop-opacity="0.5"/>
</linearGradient>
<linearGradient id="paint19_linear_1_60" x1="20.7265" y1="18.819" x2="20.7265" y2="21.0761" gradientUnits="userSpaceOnUse">
<stop stop-color="white" stop-opacity="0"/>
<stop offset="1" stop-color="white" stop-opacity="0.5"/>
</linearGradient>
<linearGradient id="paint20_linear_1_60" x1="20.9802" y1="21.4126" x2="20.9802" y2="23.8826" gradientUnits="userSpaceOnUse">
<stop stop-color="white" stop-opacity="0"/>
<stop offset="1" stop-color="white" stop-opacity="0.5"/>
</linearGradient>
<linearGradient id="paint21_linear_1_60" x1="22.2683" y1="22.5353" x2="22.2683" y2="25.3731" gradientUnits="userSpaceOnUse">
<stop stop-color="white" stop-opacity="0"/>
<stop offset="1" stop-color="white" stop-opacity="0.5"/>
</linearGradient>
<linearGradient id="paint22_linear_1_60" x1="25.9112" y1="8.68442" x2="25.9112" y2="11.2905" gradientUnits="userSpaceOnUse">
<stop stop-color="white" stop-opacity="0"/>
<stop offset="1" stop-color="white" stop-opacity="0.5"/>
</linearGradient>
<linearGradient id="paint23_linear_1_60" x1="17.7089" y1="1.41579" x2="17.7089" y2="4.92019" gradientUnits="userSpaceOnUse">
<stop stop-color="white" stop-opacity="0"/>
<stop offset="1" stop-color="white" stop-opacity="0.5"/>
</linearGradient>
<linearGradient id="paint24_linear_1_60" x1="-573.583" y1="960.394" x2="-1656.03" y2="960.394" gradientUnits="userSpaceOnUse">
<stop stop-color="#434546"/>
<stop offset="0.0001" stop-color="#2D2B2C"/>
<stop offset="0.9" stop-color="#201E1E"/>
</linearGradient>
<linearGradient id="paint25_linear_1_60" x1="15.0054" y1="11.8696" x2="15.0054" y2="23.9717" gradientUnits="userSpaceOnUse">
<stop stop-color="white" stop-opacity="0"/>
<stop offset="1" stop-color="white" stop-opacity="0.5"/>
</linearGradient>
<linearGradient id="paint26_linear_1_60" x1="1.82599" y1="19.71" x2="16.0812" y2="13.2506" gradientUnits="userSpaceOnUse">
<stop stop-color="#D9D9D9" stop-opacity="0"/>
<stop offset="0.46875" stop-color="#757575"/>
<stop offset="1" stop-color="#030303"/>
</linearGradient>
<linearGradient id="paint27_linear_1_60" x1="18.0599" y1="1" x2="18.0599" y2="25.4121" gradientUnits="userSpaceOnUse">
<stop stop-color="#D9D9D9" stop-opacity="0"/>
<stop offset="0.46875" stop-color="#757575"/>
<stop offset="1" stop-color="#030303"/>
</linearGradient>
<linearGradient id="paint28_linear_1_60" x1="-3713.32" y1="827.356" x2="-2452.41" y2="827.356" gradientUnits="userSpaceOnUse">
<stop stop-color="#A3A5A8"/>
<stop offset="0.9" stop-color="#050505"/>
</linearGradient>
<linearGradient id="paint29_linear_1_60" x1="15.2392" y1="6.12297" x2="15.2392" y2="11.2971" gradientUnits="userSpaceOnUse">
<stop stop-color="white" stop-opacity="0"/>
<stop offset="1" stop-color="white" stop-opacity="0.5"/>
</linearGradient>
<linearGradient id="paint30_linear_1_60" x1="19.8579" y1="5.88537" x2="19.8579" y2="13.1169" gradientUnits="userSpaceOnUse">
<stop stop-color="white" stop-opacity="0"/>
<stop offset="1" stop-color="white" stop-opacity="0.5"/>
</linearGradient>
<linearGradient id="paint31_linear_1_60" x1="10.8656" y1="1.04456" x2="10.8656" y2="15.9086" gradientUnits="userSpaceOnUse">
<stop stop-color="white" stop-opacity="0"/>
<stop offset="1" stop-color="white" stop-opacity="0.5"/>
</linearGradient>
<linearGradient id="paint32_linear_1_60" x1="10.4658" y1="30.1193" x2="10.4658" y2="33" gradientUnits="userSpaceOnUse">
<stop stop-color="white" stop-opacity="0"/>
<stop offset="1" stop-color="white" stop-opacity="0.5"/>
</linearGradient>
</defs>
</svg>
