<svg width="15" height="36" viewBox="0 0 15 36" fill="none" xmlns="http://www.w3.org/2000/svg">
<path d="M13.7984 29.944H9.30748H5.73642H1.24554L4.30259 26.2512L4.51901 25.886L7.52195 25.913L10.5249 25.886L10.6602 26.2512L13.7984 29.944Z" fill="url(#paint0_linear_1_982)"/>
<g style="mix-blend-mode:multiply" opacity="0.5">
<path d="M8.45515 25.913L10.5247 25.886L10.66 26.2512L13.7982 29.944H9.41555C9.45163 29.8989 9.48319 29.8493 9.51024 29.7952C9.7402 29.3353 9.71314 28.8078 9.5914 28.3343C9.3885 27.4551 8.90154 26.6841 8.45515 25.913Z" fill="#D0D0D1"/>
</g>
<path style="mix-blend-mode:screen" opacity="0.5" d="M9.51038 29.9173H1.25906C1.25906 29.9173 1.26357 29.9128 1.27259 29.9038C1.29964 29.8767 1.31317 29.8632 1.34022 29.8361C1.34022 29.8226 1.36728 29.7956 1.36728 29.7956C2.16535 28.8487 3.24749 27.4419 4.34316 26.2245C4.72191 25.8052 6.61565 25.8728 7.1432 25.954C7.15672 25.954 8.69877 26.0622 8.98283 29.3627C8.99636 29.6197 9.321 29.7685 9.51038 29.9173Z" fill="url(#paint1_linear_1_982)"/>
<path style="mix-blend-mode:screen" opacity="0.5" d="M3.88326 29.917H1.58371C1.90835 29.6194 4.76249 26.4677 5.06008 25.9401C5.46588 25.886 5.88521 25.9537 6.29101 25.9672C6.02048 26.5624 4.005 29.7547 3.88326 29.917Z" fill="url(#paint2_linear_1_982)"/>
<path d="M13.7983 29.9171L12.3239 32.4872H9.52382H5.51991H2.71987L1.23193 29.9171H7.52187H13.7983Z" fill="url(#paint3_linear_1_982)"/>
<path d="M11.2824 25.7509H3.76151C6.34511 20.8271 5.96636 15.7411 5.96636 15.7411L7.52194 15.944L9.07751 15.7411C9.07751 15.7411 8.69876 20.8271 11.2824 25.7509Z" fill="url(#paint4_linear_1_982)"/>
<g style="mix-blend-mode:multiply" opacity="0.5">
<path d="M11.2823 25.7509H9.46976C8.99632 24.8446 8.61757 23.8842 8.36057 22.8967C8.04945 21.7064 7.90065 20.1102 7.86007 18.8928C7.80597 16.9855 7.75186 16.3498 7.8736 15.8358C7.88713 15.7817 8.88811 15.8087 8.90164 15.7681L9.07748 15.7411C9.07748 15.7411 8.69873 20.8271 11.2823 25.7509Z" fill="#D0D0D1"/>
</g>
<path style="mix-blend-mode:screen" opacity="0.5" d="M9.44274 25.7509H3.76151C4.73543 23.8842 5.29002 21.9905 5.60114 20.3673C5.73641 19.6368 6.034 17.5267 5.99342 16.4581C5.97989 15.687 7.64368 15.0783 7.84658 16.2957C7.95479 16.9315 7.92774 19.204 8.02243 19.8533C8.2118 21.1789 7.75189 22.5316 8.17122 23.8166C8.4147 24.5471 8.82051 25.264 9.44274 25.7509Z" fill="url(#paint5_linear_1_982)"/>
<path style="mix-blend-mode:screen" opacity="0.5" d="M6.27732 25.751H4.49179C6.69665 20.5973 6.30437 16.7828 6.34495 16.2553C6.37201 15.9441 6.53433 16.0929 6.48022 15.7683C6.58843 15.7142 6.69665 15.6736 6.81839 15.6466C6.84544 15.9712 6.69665 20.2051 6.64254 21.2466C6.54785 22.7481 6.37201 24.2496 6.27732 25.751Z" fill="url(#paint6_linear_1_982)"/>
<path d="M11.2688 25.7507L10.6601 26.2512H4.30257L3.76151 25.7507H11.2688Z" fill="url(#paint7_linear_1_982)"/>
<path d="M12.8783 33.3122L2.1787 33.3392C2.16517 33.2851 2.15164 33.1499 2.15164 33.0957C2.15164 32.7441 2.42218 32.46 2.76035 32.46H12.2696C12.6078 32.46 12.8919 32.7441 12.8919 33.0957C12.8919 33.1499 12.8919 33.2716 12.8783 33.3122Z" fill="url(#paint8_linear_1_982)"/>
<g style="mix-blend-mode:multiply" opacity="0.5">
<path d="M12.8919 33.0959C12.8919 33.15 12.8919 33.2718 12.8783 33.3123L2.1787 33.3394C2.16517 33.2853 2.15164 33.15 2.15164 33.0959C2.15164 33.0598 2.15615 33.0283 2.16517 33.0012H12.8783C12.8783 33.0283 12.8829 33.0598 12.8919 33.0959Z" fill="#B9B8B9"/>
</g>
<path d="M14.8533 35.8823H0.176819C0.176819 35.8823 0.176819 35.8778 0.176819 35.8687C0.176819 34.4349 1.08311 33.2581 2.1923 33.2581H12.8378C13.9606 33.2581 14.8533 34.4349 14.8533 35.8687C14.8533 35.8778 14.8533 35.8823 14.8533 35.8823Z" fill="url(#paint9_linear_1_982)"/>
<g style="mix-blend-mode:multiply" opacity="0.5">
<path d="M14.8533 35.8687C14.8533 35.8778 14.8533 35.8823 14.8533 35.8823H0.176819C3.58556 35.6388 6.95371 34.3132 7.8059 33.9074C8.10349 33.7721 8.50929 33.5557 8.77982 33.2581H12.8378C13.9606 33.2581 14.8533 34.4349 14.8533 35.8687Z" fill="#D0D0D1"/>
</g>
<path style="mix-blend-mode:screen" opacity="0.5" d="M7.17021 35.8825H0.17689C0.163363 35.0303 0.515058 34.1917 1.11023 33.6777C1.29961 33.5018 1.48898 33.4071 1.69188 33.3395C2.11121 33.2042 2.57112 33.2854 2.99045 33.2854C3.42331 33.2854 3.84263 33.2854 4.26196 33.4071C5.16826 33.6641 5.60111 34.5839 6.20981 35.2197C6.49388 35.5173 6.81852 35.7337 7.17021 35.8825Z" fill="url(#paint10_linear_1_982)"/>
<path d="M9.45623 5.13621C9.45623 5.50143 8.59052 5.78549 7.52191 5.78549C6.4533 5.78549 5.58759 5.50143 5.58759 5.13621C5.58759 4.77098 6.4533 4.48692 7.52191 4.48692C8.59052 4.48692 9.45623 4.77098 9.45623 5.13621Z" fill="url(#paint11_linear_1_982)"/>
<path style="mix-blend-mode:screen" opacity="0.5" d="M6.68316 5.74494C6.37204 5.70436 6.08798 5.63672 5.87155 5.55556C5.87155 5.40677 5.8986 5.25798 5.93919 5.10918C6.02035 4.85218 6.18267 4.70338 6.38557 4.56811C6.5028 4.55008 6.62454 4.53204 6.75079 4.51401C6.602 4.75749 6.53436 5.05507 6.54789 5.33914C6.54789 5.50146 6.602 5.63672 6.68316 5.74494Z" fill="url(#paint12_linear_1_982)"/>
<g style="mix-blend-mode:multiply" opacity="0.3">
<path d="M7.50832 4.79804C6.85903 4.79804 6.27739 4.83862 5.9798 4.74393C6.34502 4.58161 6.89961 4.48692 7.52184 4.48692C8.13055 4.48692 8.67162 4.58161 9.02331 4.7304C8.75278 4.83862 8.18465 4.79804 7.50832 4.79804Z" fill="#B9B8B9"/>
</g>
<g style="mix-blend-mode:multiply" opacity="0.5">
<path d="M9.45623 5.13616C9.45623 5.50138 8.59052 5.78544 7.52191 5.78544C6.4533 5.78544 5.58759 5.50138 5.58759 5.13616C5.58759 5.02794 5.66874 4.93326 5.80401 4.83857C5.547 5.10911 6.7103 5.00089 7.49485 5.00089C8.30646 5.00089 9.40213 5.1091 9.22628 4.82504C9.36155 4.91973 9.45623 5.02794 9.45623 5.13616Z" fill="#B9B8B9"/>
</g>
<path d="M8.90161 3.08003L8.17116 2.6066L8.65813 4.12159H6.38563L6.85907 2.6066L6.14215 3.08003V1.19982L6.99434 1.48388L6.61559 0.117676H7.2784H7.76536H8.41465L8.03589 1.48388L8.90161 1.19982V3.08003Z" fill="url(#paint13_linear_1_982)"/>
<path style="mix-blend-mode:screen" opacity="0.5" d="M6.14215 1.19981L6.99434 1.48388L6.61559 0.117676H8.30643C8.25232 0.604638 8.15764 1.07807 7.95474 1.51093C7.73831 1.97084 7.37309 2.32253 6.85907 2.32253C6.49385 2.32253 6.27742 2.16021 6.14215 1.93026V1.19981Z" fill="url(#paint14_linear_1_982)"/>
<g style="mix-blend-mode:multiply" opacity="0.5">
<path d="M8.90159 3.0797L8.17115 2.60626L8.65811 4.12126H6.38562L6.57499 3.52608C6.58401 3.52608 6.58852 3.53059 6.58852 3.53961C6.7779 3.85072 7.10254 3.55313 7.21075 3.35023C7.41365 2.94443 7.50834 2.49805 7.54892 2.03814C7.55794 2.03814 7.56695 2.03814 7.57597 2.03814C8.00883 1.98403 8.45521 1.98403 8.90159 1.9705V3.0797Z" fill="#B9B8B9"/>
</g>
<path style="mix-blend-mode:screen" opacity="0.5" d="M6.14215 1.19982L6.99434 1.48388L6.61559 0.117676C6.61559 0.117676 7.49483 1.59209 7.22429 1.7003C6.98081 1.80852 6.14215 1.19982 6.14215 1.19982Z" fill="url(#paint15_linear_1_982)"/>
<path d="M8.90147 3.08003L8.17102 2.6066L8.65799 4.12159H7.5488V0.117676H8.41451L8.03576 1.48388L8.90147 1.19982V3.08003Z" fill="url(#paint16_linear_1_982)"/>
<path style="mix-blend-mode:screen" opacity="0.5" d="M7.5488 2.052V0.117676H8.41451L8.03576 1.48388L8.90147 1.19982V2.09258C8.64446 2.28195 8.34688 2.37664 8.02223 2.32254C7.79228 2.28196 7.65701 2.22785 7.5488 2.052Z" fill="url(#paint17_linear_1_982)"/>
<g style="mix-blend-mode:multiply" opacity="0.5">
<path d="M8.65799 4.12156H7.5488V2.16019C7.5488 2.17371 7.56232 2.18724 7.56232 2.18724C7.62995 3.40465 8.11692 3.8375 8.48214 3.59402L8.65799 4.12156Z" fill="#B9B8B9"/>
</g>
<path style="mix-blend-mode:screen" opacity="0.5" d="M8.03579 1.48388L8.9015 1.19981C8.9015 1.19981 8.11695 1.65973 7.84641 1.74089C7.48119 1.8491 8.41454 0.117676 8.41454 0.117676L8.03579 1.48388Z" fill="url(#paint18_linear_1_982)"/>
<path d="M8.79349 4.6762H6.25046C6.03403 4.6762 5.85818 4.48683 5.85818 4.2704C5.85818 4.05397 6.03403 3.87813 6.25046 3.87813H8.79349C9.00991 3.87813 9.18576 4.05397 9.18576 4.2704C9.18576 4.48683 9.00991 4.6762 8.79349 4.6762Z" fill="url(#paint19_linear_1_982)"/>
<path style="mix-blend-mode:screen" opacity="0.5" d="M6.83205 4.6762H6.33156C6.29549 4.64915 6.26392 4.61759 6.23687 4.58152C6.03397 4.36509 6.15571 3.99987 6.39919 3.87813H6.89968C6.75089 3.97282 6.64267 4.12161 6.66973 4.32451C6.66973 4.45978 6.73736 4.58152 6.83205 4.6762Z" fill="url(#paint20_linear_1_982)"/>
<g style="mix-blend-mode:multiply" opacity="0.5">
<g style="mix-blend-mode:multiply">
<path d="M9.15871 4.14854C9.17674 4.19363 9.18576 4.23421 9.18576 4.27028C9.18576 4.48671 9.00991 4.67609 8.79349 4.67609H6.25046C6.03403 4.67609 5.85818 4.48671 5.85818 4.27028C5.85818 4.23421 5.86269 4.19363 5.87171 4.14854C5.92582 4.31087 6.07461 4.43261 6.25046 4.43261H8.79349C8.96933 4.43261 9.11813 4.31087 9.15871 4.14854Z" fill="#B9B8B9"/>
</g>
</g>
<path d="M9.46979 16.4714H5.57409C5.2765 16.4714 5.03302 16.2279 5.03302 15.9304C5.03302 15.6328 5.2765 15.3758 5.57409 15.3758H9.46979C9.76738 15.3758 10.0109 15.6328 10.0109 15.9304C10.0109 16.2279 9.76738 16.4714 9.46979 16.4714Z" fill="url(#paint21_linear_1_982)"/>
<path style="mix-blend-mode:screen" opacity="0.5" d="M6.30442 16.4714H5.57397C5.50634 16.4714 4.9788 15.7816 5.65513 15.3758H6.26384C6.06094 15.5651 5.95272 15.7275 5.9933 16.0386C6.00683 16.2009 6.15562 16.4308 6.30442 16.4714Z" fill="url(#paint22_linear_1_982)"/>
<g style="mix-blend-mode:multiply" opacity="0.5">
<path d="M5.08704 15.6734C5.18172 15.4975 5.35757 15.3758 5.574 15.3758H9.4697C9.6726 15.3758 9.86197 15.4975 9.94313 15.6734H5.08704Z" fill="#B9B8B9"/>
</g>
<g style="mix-blend-mode:multiply" opacity="0.5">
<path d="M9.97012 16.1198C9.90248 16.3227 9.69958 16.4715 9.46962 16.4715H5.57392C5.33044 16.4715 5.14107 16.3227 5.05991 16.1198H9.97012Z" fill="#B9B8B9"/>
</g>
<path d="M12.0128 8.2338C11.5394 9.53237 9.84853 14.1315 9.84853 14.1315H8.91518H6.11515H5.1818C5.1818 14.1315 3.49096 9.53237 3.01753 8.2338C2.54409 6.92171 2.53056 5.97484 3.58565 5.56903C3.85618 5.46082 4.14024 5.39318 4.42431 5.33908C5.01948 5.21734 5.64171 5.16323 6.25042 5.10913C6.55702 5.08207 6.85912 5.06854 7.15671 5.06854C8.09005 5.04149 9.0234 5.10913 9.94321 5.23087C10.4437 5.2985 10.9712 5.37966 11.4582 5.56903C12.5133 5.97484 12.4862 6.92171 12.0128 8.2338Z" fill="url(#paint23_linear_1_982)"/>
<g style="mix-blend-mode:multiply" opacity="0.5">
<path d="M12.0126 8.23369C11.5392 9.53225 9.84835 14.1313 9.84835 14.1313H7.87344C7.98166 13.6534 8.08987 13.1755 8.19808 12.6975C8.49567 11.3178 8.88795 9.96511 9.18553 8.59891C9.56428 6.81338 9.56428 6.19115 9.13143 5.55539C9.02321 5.39307 8.92853 5.23075 8.77973 5.10901C9.1675 5.13606 9.55527 5.17664 9.94303 5.23075C10.4435 5.29838 10.9711 5.37954 11.458 5.56892C12.5131 5.97472 12.4861 6.92159 12.0126 8.23369Z" fill="#D0D0D1"/>
</g>
<path style="mix-blend-mode:screen" opacity="0.5" d="M2.78752 7.48983C2.48994 6.36711 2.9769 5.79899 3.5856 5.56903C3.85614 5.46082 4.1402 5.39318 4.42426 5.33908C5.01944 5.21734 5.64167 5.16323 6.25037 5.10913C6.55698 5.08207 6.85907 5.06854 7.15666 5.06854C8.09001 5.04149 9.02335 5.10913 9.94317 5.23087C10.1235 5.25792 10.3039 5.28497 10.4842 5.31203C10.863 5.37966 10.7954 6.09658 10.7818 6.32653C10.7142 7.16519 10.5925 7.99032 10.3625 8.80192C9.94317 10.2358 9.94317 13.7933 8.40112 14.2532C7.94121 14.3885 5.33055 14.5373 5.18176 14.1179C4.42426 11.9401 3.27449 9.30242 2.78752 7.48983Z" fill="url(#paint24_linear_1_982)"/>
<path style="mix-blend-mode:screen" opacity="0.5" d="M5.01947 5.24425C5.42528 5.17662 5.84461 5.13604 6.25041 5.10899C6.36764 5.09997 6.48036 5.09546 6.58858 5.09546C5.93929 5.27131 5.65523 5.66358 5.6417 6.51577C5.62818 7.16505 5.77697 8.17956 5.84461 8.81531C5.91675 9.48263 5.9934 10.15 6.07456 10.8173C6.20983 12.0076 6.35862 13.198 6.49389 14.3883C6.06103 14.3883 5.65523 14.3478 5.41175 14.2801C5.20885 13.7661 4.08613 8.78826 3.92381 8.03076C3.73443 7.19211 3.70738 6.42108 4.26198 5.71769C4.46488 5.47421 4.70836 5.28483 5.01947 5.24425Z" fill="url(#paint25_linear_1_982)"/>
<path d="M9.76734 15.3893H5.23588C4.88418 15.3893 4.61365 15.1053 4.61365 14.7536C4.61365 14.4019 4.88418 14.1178 5.23588 14.1178H9.76734C10.119 14.1178 10.4031 14.4019 10.4031 14.7536C10.4031 15.1053 10.119 15.3893 9.76734 15.3893Z" fill="url(#paint26_linear_1_982)"/>
<path style="mix-blend-mode:screen" opacity="0.5" d="M6.35866 15.3893H5.39826C5.33063 15.3893 5.20889 15.2405 5.16831 15.2C5.1142 15.1323 5.07362 15.0376 5.04657 14.9565C4.97894 14.7671 4.97893 14.5642 5.08715 14.3883C5.12773 14.3072 5.29005 14.1178 5.39826 14.1178C5.41179 14.1178 6.34513 14.1178 6.34513 14.1178C6.10165 14.3342 6.02049 14.6995 6.10165 15.0241C6.12871 15.1999 6.23692 15.3082 6.35866 15.3893Z" fill="url(#paint27_linear_1_982)"/>
<g style="mix-blend-mode:multiply" opacity="0.5">
<path d="M10.3489 15.0107C10.2542 15.2271 10.0243 15.3894 9.76726 15.3894H5.2358C4.97879 15.3894 4.74883 15.2271 4.65414 15.0107H10.3489Z" fill="#B9B8B9"/>
</g>
<g style="mix-blend-mode:screen" opacity="0.5">
<path d="M5.15467 33.2178C4.53244 33.8401 4.4107 35.0169 4.39717 35.842H1.54303C1.69182 34.5299 2.70633 33.4072 3.4503 33.2178H5.15467Z" fill="url(#paint28_linear_1_982)"/>
</g>
<defs>
<linearGradient id="paint0_linear_1_982" x1="5490.59" y1="1798.02" x2="6266.36" y2="1798.02" gradientUnits="userSpaceOnUse">
<stop stop-color="#E1E2E2"/>
<stop offset="0.4" stop-color="#C3C2C2"/>
<stop offset="0.9" stop-color="#B9B7B8"/>
</linearGradient>
<linearGradient id="paint1_linear_1_982" x1="3634.31" y1="1783.59" x2="4328.25" y2="1783.59" gradientUnits="userSpaceOnUse">
<stop stop-color="#FEFEFE"/>
<stop offset="0.7" stop-color="#C3C2C2"/>
<stop offset="0.9" stop-color="#B9B7B8"/>
</linearGradient>
<linearGradient id="paint2_linear_1_982" x1="2066.68" y1="1884.78" x2="2096.58" y2="1719.67" gradientUnits="userSpaceOnUse">
<stop stop-color="#FEFEFE"/>
<stop offset="0.7" stop-color="#C3C2C2"/>
<stop offset="0.9" stop-color="#B9B7B8"/>
</linearGradient>
<linearGradient id="paint3_linear_1_982" x1="5265.27" y1="1228.86" x2="6716.69" y2="1228.86" gradientUnits="userSpaceOnUse">
<stop stop-color="#E7E8E8"/>
<stop offset="0.9" stop-color="#AEAEAE"/>
</linearGradient>
<linearGradient id="paint4_linear_1_982" x1="3358.82" y1="3636.28" x2="3711.55" y2="3636.28" gradientUnits="userSpaceOnUse">
<stop stop-color="#E1E2E2"/>
<stop offset="0.4" stop-color="#C3C2C2"/>
<stop offset="0.9" stop-color="#B9B7B8"/>
</linearGradient>
<linearGradient id="paint5_linear_1_982" x1="2595.54" y1="3675.4" x2="2834.15" y2="3675.4" gradientUnits="userSpaceOnUse">
<stop offset="0.2" stop-color="#FEFEFE"/>
<stop offset="0.8" stop-color="#C3C2C2"/>
<stop offset="1" stop-color="#B9B7B8"/>
</linearGradient>
<linearGradient id="paint6_linear_1_982" x1="730.474" y1="4436.35" x2="730.474" y2="3576.46" gradientUnits="userSpaceOnUse">
<stop offset="0.2" stop-color="#FEFEFE"/>
<stop offset="0.8" stop-color="#C3C2C2"/>
<stop offset="1" stop-color="#B9B7B8"/>
</linearGradient>
<linearGradient id="paint7_linear_1_982" x1="3297.98" y1="243.813" x2="3725.15" y2="243.813" gradientUnits="userSpaceOnUse">
<stop stop-color="#E7E8E8"/>
<stop offset="0.9" stop-color="#AEAEAE"/>
</linearGradient>
<linearGradient id="paint8_linear_1_982" x1="4479.76" y1="459.154" x2="5326.09" y2="459.154" gradientUnits="userSpaceOnUse">
<stop stop-color="#E7E8E8"/>
<stop offset="0.9" stop-color="#AEAEAE"/>
</linearGradient>
<linearGradient id="paint9_linear_1_982" x1="6110.01" y1="1322.26" x2="7615.82" y2="1322.26" gradientUnits="userSpaceOnUse">
<stop stop-color="#E7E8E8"/>
<stop offset="0.9" stop-color="#AEAEAE"/>
</linearGradient>
<linearGradient id="paint10_linear_1_982" x1="3005.37" y1="1320.84" x2="3366.94" y2="1320.84" gradientUnits="userSpaceOnUse">
<stop stop-color="#FEFEFE"/>
<stop offset="0.6" stop-color="#C3C2C2"/>
<stop offset="0.9" stop-color="#B9B7B8"/>
</linearGradient>
<linearGradient id="paint11_linear_1_982" x1="1884.2" y1="358.606" x2="1884.2" y2="378.864" gradientUnits="userSpaceOnUse">
<stop stop-color="#B9B7B8"/>
<stop offset="0.2" stop-color="#E1E2E2"/>
<stop offset="0.6" stop-color="#C3C2C2"/>
<stop offset="1" stop-color="#B9B7B8"/>
</linearGradient>
<linearGradient id="paint12_linear_1_982" x1="429.137" y1="340.189" x2="429.137" y2="359.391" gradientUnits="userSpaceOnUse">
<stop stop-color="#FEFEFE"/>
<stop offset="0.9" stop-color="#C3C2C2"/>
</linearGradient>
<linearGradient id="paint13_linear_1_982" x1="1313.3" y1="985.881" x2="1346.41" y2="985.881" gradientUnits="userSpaceOnUse">
<stop stop-color="#E1E2E2"/>
<stop offset="0.4" stop-color="#C3C2C2"/>
<stop offset="0.9" stop-color="#B9B7B8"/>
</linearGradient>
<linearGradient id="paint14_linear_1_982" x1="967.515" y1="621.447" x2="1110.14" y2="623.359" gradientUnits="userSpaceOnUse">
<stop stop-color="#FEFEFE"/>
<stop offset="0.8" stop-color="#C3C2C2"/>
</linearGradient>
<linearGradient id="paint15_linear_1_982" x1="545.17" y1="418.782" x2="531.879" y2="408.225" gradientUnits="userSpaceOnUse">
<stop stop-color="#FEFEFE"/>
<stop offset="0.6" stop-color="#C3C2C2"/>
</linearGradient>
<linearGradient id="paint16_linear_1_982" x1="677.664" y1="1104.4" x2="660.891" y2="1104.4" gradientUnits="userSpaceOnUse">
<stop stop-color="#E1E2E2"/>
<stop offset="0.4" stop-color="#C3C2C2"/>
<stop offset="0.9" stop-color="#B9B7B8"/>
</linearGradient>
<linearGradient id="paint17_linear_1_982" x1="608.407" y1="625.702" x2="697.558" y2="626.444" gradientUnits="userSpaceOnUse">
<stop stop-color="#FEFEFE"/>
<stop offset="0.8" stop-color="#C3C2C2"/>
</linearGradient>
<linearGradient id="paint18_linear_1_982" x1="554.773" y1="407.138" x2="567.981" y2="397.782" gradientUnits="userSpaceOnUse">
<stop stop-color="#FEFEFE"/>
<stop offset="0.6" stop-color="#C3C2C2"/>
</linearGradient>
<linearGradient id="paint19_linear_1_982" x1="1618.73" y1="220.795" x2="1618.73" y2="228.218" gradientUnits="userSpaceOnUse">
<stop stop-color="#B9B7B8"/>
<stop offset="0.2" stop-color="#E1E2E2"/>
<stop offset="0.6" stop-color="#C3C2C2"/>
<stop offset="1" stop-color="#B9B7B8"/>
</linearGradient>
<linearGradient id="paint20_linear_1_982" x1="372.689" y1="220.795" x2="372.689" y2="228.218" gradientUnits="userSpaceOnUse">
<stop stop-color="#FEFEFE"/>
<stop offset="0.9" stop-color="#C3C2C2"/>
</linearGradient>
<linearGradient id="paint21_linear_1_982" x1="2305.29" y1="408.72" x2="2501.92" y2="408.72" gradientUnits="userSpaceOnUse">
<stop stop-color="#E7E8E8"/>
<stop offset="0.9" stop-color="#AEAEAE"/>
</linearGradient>
<linearGradient id="paint22_linear_1_982" x1="474.416" y1="410.583" x2="474.416" y2="418.143" gradientUnits="userSpaceOnUse">
<stop stop-color="#FEFEFE"/>
<stop offset="0.9" stop-color="#C3C2C2"/>
</linearGradient>
<linearGradient id="paint23_linear_1_982" x1="4289.08" y1="2569.73" x2="4798.79" y2="2569.73" gradientUnits="userSpaceOnUse">
<stop stop-color="#E1E2E2"/>
<stop offset="0.4" stop-color="#C3C2C2"/>
<stop offset="0.9" stop-color="#B9B7B8"/>
</linearGradient>
<linearGradient id="paint24_linear_1_982" x1="3599.57" y1="2634.52" x2="4133.21" y2="2640.85" gradientUnits="userSpaceOnUse">
<stop stop-color="#FEFEFE"/>
<stop offset="0.8" stop-color="#C3C2C2"/>
</linearGradient>
<linearGradient id="paint25_linear_1_982" x1="1588.72" y1="2403.59" x2="1933.22" y2="2916.93" gradientUnits="userSpaceOnUse">
<stop stop-color="#FEFEFE"/>
<stop offset="0.9" stop-color="#C3C2C2"/>
</linearGradient>
<linearGradient id="paint26_linear_1_982" x1="2646.92" y1="458.766" x2="2912.07" y2="458.766" gradientUnits="userSpaceOnUse">
<stop stop-color="#E7E8E8"/>
<stop offset="0.9" stop-color="#AEAEAE"/>
</linearGradient>
<linearGradient id="paint27_linear_1_982" x1="649.942" y1="458.639" x2="649.942" y2="470.464" gradientUnits="userSpaceOnUse">
<stop stop-color="#FEFEFE"/>
<stop offset="0.9" stop-color="#C3C2C2"/>
</linearGradient>
<linearGradient id="paint28_linear_1_982" x1="1610.53" y1="1376.01" x2="1612.44" y2="1285.18" gradientUnits="userSpaceOnUse">
<stop offset="0.1" stop-color="#FEFEFE"/>
<stop offset="0.7" stop-color="#FEFEFE"/>
</linearGradient>
</defs>
</svg>
