<svg width="19" height="32" viewBox="0 0 19 32" fill="none" xmlns="http://www.w3.org/2000/svg">
<path d="M16.4733 28.1126L2.8954 28.1282C2.87981 28.0659 2.86421 27.91 2.86421 27.8476C2.86421 27.4423 3.17599 27.1149 3.56571 27.1149H15.7718C16.1615 27.1149 16.4733 27.4423 16.4733 27.8476C16.4733 27.91 16.4889 28.0503 16.4733 28.1126Z" fill="url(#paint0_linear_1_570)"/>
<g style="mix-blend-mode:multiply" opacity="0.5">
<path d="M16.4733 27.8475C16.4733 27.9099 16.4889 28.0502 16.4733 28.1125L2.8954 28.1281C2.87981 28.0658 2.86421 27.9099 2.86421 27.8475C2.86421 27.8163 2.86942 27.78 2.87982 27.7384H16.4733C16.4733 27.78 16.4733 27.8163 16.4733 27.8475Z" fill="#B9B8B9"/>
</g>
<path d="M18.7492 31.0588H0.588226C0.588226 31.0588 0.588226 31.0536 0.588226 31.0432C0.588226 29.3908 1.63268 28.0346 2.91097 28.0346H16.4265C17.7204 28.0346 18.7492 29.3908 18.7492 31.0432C18.7492 31.0536 18.7492 31.0588 18.7492 31.0588Z" fill="url(#paint1_linear_1_570)"/>
<path style="mix-blend-mode:screen" opacity="0.5" d="M18.7492 31.0588H0.588226C0.588226 31.0588 0.588226 31.0536 0.588226 31.0432C0.588226 29.3908 1.63268 28.0346 2.91097 28.0346H16.4265C17.7204 28.0346 18.7492 29.3908 18.7492 31.0432C18.7492 31.0536 18.7492 31.0588 18.7492 31.0588Z" fill="url(#paint2_linear_1_570)"/>
<g style="mix-blend-mode:multiply" opacity="0.5">
<path d="M18.7492 31.0432C18.7492 31.0536 18.7492 31.0588 18.7492 31.0588H0.588226V31.0432C4.08013 31.012 5.73256 30.6379 6.15346 30.5444C7.97735 30.1702 9.77007 29.4376 11.2354 28.2684C11.3186 28.1957 11.4017 28.1177 11.4848 28.0346H16.4265C17.7204 28.0346 18.7492 29.3908 18.7492 31.0432Z" fill="#D0D0D1"/>
</g>
<path d="M13.1528 4.41749C13.1528 6.33492 11.5939 7.89381 9.66091 7.89381C7.74348 7.89381 6.18459 6.33492 6.18459 4.41749C6.18459 2.50007 7.74348 0.941177 9.66091 0.941177C11.5939 0.941177 13.1528 2.50007 13.1528 4.41749Z" fill="url(#paint3_linear_1_570)"/>
<path style="mix-blend-mode:screen" opacity="0.5" d="M13.1528 4.41749C13.1528 6.33492 11.5939 7.89381 9.66091 7.89381C7.74348 7.89381 6.18459 6.33492 6.18459 4.41749C6.18459 2.50007 7.74348 0.941177 9.66091 0.941177C11.5939 0.941177 13.1528 2.50007 13.1528 4.41749Z" fill="url(#paint4_radial_1_570)"/>
<path d="M15.4756 19.5698L10.191 19.8815H9.14653L3.86191 19.5698C7.43175 17.6835 7.72795 10.6841 7.72795 10.6841L7.83706 9.93585L9.66097 10.1229L11.5004 9.93585L11.6096 10.6841C11.6096 10.6841 11.9058 17.6835 15.4756 19.5698Z" fill="url(#paint5_linear_1_570)"/>
<path style="mix-blend-mode:screen" opacity="0.5" d="M15.4756 19.5698L10.191 19.8815H9.14653L3.86191 19.5698C7.43175 17.6835 7.72795 10.6841 7.72795 10.6841L7.83706 9.93585L9.66097 10.1229L11.5004 9.93585L11.6096 10.6841C11.6096 10.6841 11.9058 17.6835 15.4756 19.5698Z" fill="url(#paint6_linear_1_570)"/>
<g style="mix-blend-mode:multiply" opacity="0.5">
<path d="M10.1754 10.0762L11.5004 9.93585L11.6095 10.6841C11.6095 10.6841 11.9057 17.6835 15.4756 19.5698L12.4513 19.7412C12.2954 19.6165 12.1448 19.4814 11.9993 19.3359C11.2822 18.5721 10.908 17.5744 10.7054 16.5767C10.4715 15.4075 10.378 14.2384 10.3157 13.038C10.2689 12.0559 10.2065 11.0582 10.1754 10.0762Z" fill="#D0D0D1"/>
</g>
<path d="M4.9843 9.48379H9.27123H10.0663H14.3532L11.6251 10.6841H10.0663H9.27123H7.71235L4.9843 9.48379Z" fill="url(#paint7_linear_1_570)"/>
<path d="M17.1748 24.2933C17.0812 26.3042 15.8029 27.1148 15.8029 27.1148H3.51894C3.51894 27.1148 2.25624 26.3042 2.1627 24.2933C2.0224 21.2846 4.51663 20.3493 4.51663 20.3493L7.46291 20.131L9.66095 20.209L11.8746 20.131L14.8053 20.3493C14.8053 20.3493 17.3151 21.2846 17.1748 24.2933Z" fill="url(#paint8_linear_1_570)"/>
<path style="mix-blend-mode:screen" opacity="0.5" d="M17.1748 24.2933C17.0812 26.3042 15.8029 27.1148 15.8029 27.1148H3.51894C3.51894 27.1148 2.25624 26.3042 2.1627 24.2933C2.0224 21.2846 4.51663 20.3493 4.51663 20.3493L7.46291 20.131L9.66095 20.209L11.8746 20.131L14.8053 20.3493C14.8053 20.3493 17.3151 21.2846 17.1748 24.2933Z" fill="url(#paint9_linear_1_570)"/>
<g style="mix-blend-mode:multiply" opacity="0.5">
<path d="M17.1748 24.2933C17.0812 26.3042 15.8029 27.1148 15.8029 27.1148H12.2175C12.6384 26.7095 12.997 26.2263 13.262 25.7118C13.714 24.87 13.9635 23.8879 13.8855 22.9214C13.8232 21.8614 13.2464 20.9417 12.5449 20.1778L14.8053 20.3493C14.8053 20.3493 17.3151 21.2846 17.1748 24.2933Z" fill="#D0D0D1"/>
</g>
<path d="M15.4756 19.5698L14.8053 20.3493H11.4693H7.79031H4.51665L3.86191 19.5698H15.4756Z" fill="url(#paint10_linear_1_570)"/>
<g style="mix-blend-mode:multiply" opacity="0.5">
<path d="M13.1529 4.41752C13.1529 6.33494 11.594 7.89383 9.66098 7.89383C8.0865 7.89383 6.76144 6.83378 6.34055 5.39961C6.9641 6.24141 7.97738 6.80261 9.11537 6.80261C11.0484 6.80261 12.5917 5.24372 12.5917 3.31071C12.5917 2.98334 12.5449 2.64038 12.4514 2.32861C12.8879 2.90539 13.1529 3.63807 13.1529 4.41752Z" fill="#D0D0D1"/>
</g>
<path d="M14.3532 9.4839H10.0663H9.27123H4.9843L7.71235 7.28587H9.27123H10.0663H11.6251L14.3532 9.4839Z" fill="url(#paint11_linear_1_570)"/>
<path style="mix-blend-mode:screen" opacity="0.5" d="M14.3532 9.4839H10.0663H9.27123H4.9843L7.71235 7.28587H9.27123H10.0663H11.6251L14.3532 9.4839Z" fill="url(#paint12_linear_1_570)"/>
<g style="mix-blend-mode:multiply" opacity="0.5">
<path d="M10.0195 7.28587H11.6251L14.3532 9.4839H11.8434C11.7654 9.3436 11.6719 9.2033 11.5783 9.07859C11.2977 8.68887 10.9392 8.3615 10.6274 8.00296C10.4092 7.76913 10.2221 7.51971 10.0195 7.28587Z" fill="#D0D0D1"/>
</g>
<path style="mix-blend-mode:screen" opacity="0.5" d="M4.64132 28.019H6.69906C6.0755 28.2684 5.57666 28.8296 5.38959 29.5311C5.24929 30.0143 5.2337 30.5443 5.24929 31.0588H2.27182C2.303 28.3775 4.59455 28.0501 4.64132 28.019Z" fill="url(#paint13_linear_1_570)"/>
<path style="mix-blend-mode:screen" opacity="0.5" d="M5.40518 20.3493H7.49409C7.32261 20.6455 7.15113 20.9573 7.04201 21.1288C6.58993 21.8147 6.2158 22.5474 6.02873 23.358C5.82608 24.1686 5.87285 25.0416 6.07551 25.8678C6.16904 26.2107 6.30933 26.5381 6.4964 26.8499C6.55875 26.9434 6.6211 27.0369 6.68346 27.1305H4.57896C4.58936 27.1201 4.59457 27.1149 4.59457 27.1149C4.59457 27.1149 4.57897 27.1149 4.48543 27.0369C4.34513 26.9122 4.23602 26.7563 4.1269 26.6004C3.90866 26.2887 3.73717 25.9613 3.61246 25.6028C3.37863 24.948 3.34745 24.2309 3.45657 23.545C3.64364 22.3291 4.31396 21.0041 5.40518 20.3805C5.41557 20.3805 5.41557 20.3701 5.40518 20.3493Z" fill="url(#paint14_linear_1_570)"/>
<path d="M9.81687 7.27029H8.42946C8.3827 7.22352 8.11769 7.03645 8.02416 6.9741C7.88386 6.88057 7.75914 6.77144 7.65002 6.64673C7.4006 6.39731 7.19794 6.10112 7.04205 5.80493C6.73027 5.18138 6.58998 4.46429 6.63674 3.77838C6.68351 3.09248 6.96411 2.43774 7.41619 1.90772C7.57208 1.73625 7.75914 1.54918 7.9618 1.3777C8.36711 1.15946 8.83476 1.00357 9.31802 0.956802C8.21121 1.50241 7.43177 2.65599 7.43177 3.94986C7.43177 5.47757 8.41388 6.88056 9.81687 7.27029Z" fill="url(#paint15_linear_1_570)"/>
<path style="mix-blend-mode:screen" opacity="0.5" d="M8.10205 10.6687H9.34916C9.34916 11.0428 9.33356 11.5417 9.30238 11.9158C9.22444 13.1941 9.05295 14.488 8.94383 15.7662C8.88147 16.4054 8.81913 17.0601 8.66324 17.6837C8.50735 18.3072 8.24235 18.9775 7.94616 19.5543C7.94616 19.5543 7.94095 19.5595 7.93055 19.5699H4.96867C4.98426 19.6011 5.67018 18.962 5.71695 18.8996C6.4808 17.9954 6.91728 16.8886 7.22906 15.7662C7.50966 14.753 7.7435 13.7241 7.89938 12.6952C7.96174 12.3211 8.07087 11.5417 8.11763 11.074C8.13322 10.8713 8.14881 10.7155 8.13322 10.6843C8.13322 10.6843 8.12283 10.6791 8.10205 10.6687Z" fill="url(#paint16_linear_1_570)"/>
<path style="mix-blend-mode:screen" opacity="0.5" d="M7.9618 9.48387C7.9618 9.48387 7.96699 9.48387 7.97738 9.48387H6.24702C6.37174 9.35916 6.51203 9.25003 6.63675 9.10973C6.9797 8.76678 7.33824 8.43941 7.68119 8.09646C7.93061 7.86262 8.28916 7.59762 8.44505 7.28584C8.44505 7.28584 8.44505 7.28584 8.42946 7.27025H9.81687C9.83766 7.28064 9.85843 7.28584 9.87922 7.28584C9.48949 7.64438 8.24239 8.93825 8.0865 9.12532C7.88384 9.37474 7.9618 9.46828 7.9618 9.48387Z" fill="url(#paint17_linear_1_570)"/>
<defs>
<linearGradient id="paint0_linear_1_570" x1="14746.3" y1="518.857" x2="15898.2" y2="518.857" gradientUnits="userSpaceOnUse">
<stop stop-color="#B9B7B8"/>
<stop offset="0.2" stop-color="#E1E2E2"/>
<stop offset="0.6" stop-color="#C3C2C2"/>
<stop offset="1" stop-color="#B9B7B8"/>
</linearGradient>
<linearGradient id="paint1_linear_1_570" x1="19797.9" y1="1513.54" x2="21913.7" y2="1513.54" gradientUnits="userSpaceOnUse">
<stop stop-color="#E1E2E2"/>
<stop offset="0.4" stop-color="#C3C2C2"/>
<stop offset="0.9" stop-color="#B9B7B8"/>
</linearGradient>
<linearGradient id="paint2_linear_1_570" x1="19868.7" y1="1513.54" x2="20713.2" y2="1513.54" gradientUnits="userSpaceOnUse">
<stop stop-color="#FEFEFE"/>
<stop offset="0.5" stop-color="#C3C2C2"/>
</linearGradient>
<linearGradient id="paint3_linear_1_570" x1="7859.36" y1="2207.71" x2="8177.8" y2="2207.71" gradientUnits="userSpaceOnUse">
<stop stop-color="#E1E2E2"/>
<stop offset="0.4" stop-color="#C3C2C2"/>
<stop offset="0.9" stop-color="#B9B7B8"/>
</linearGradient>
<radialGradient id="paint4_radial_1_570" cx="0" cy="0" r="1" gradientUnits="userSpaceOnUse" gradientTransform="translate(8159.68 2376.65) scale(268.973 268.371)">
<stop offset="0.4" stop-color="#C3C2C2"/>
<stop offset="1" stop-color="#FEFEFE"/>
</radialGradient>
<linearGradient id="paint5_linear_1_570" x1="12907.8" y1="3740.56" x2="13773.1" y2="3740.56" gradientUnits="userSpaceOnUse">
<stop stop-color="#E1E2E2"/>
<stop offset="0.4" stop-color="#C3C2C2"/>
<stop offset="0.9" stop-color="#B9B7B8"/>
</linearGradient>
<linearGradient id="paint6_linear_1_570" x1="12982.2" y1="3740.56" x2="13505.9" y2="3740.56" gradientUnits="userSpaceOnUse">
<stop stop-color="#FEFEFE"/>
<stop offset="0.7" stop-color="#C3C2C2"/>
</linearGradient>
<linearGradient id="paint7_linear_1_570" x1="10367" y1="456.25" x2="10856" y2="456.25" gradientUnits="userSpaceOnUse">
<stop stop-color="#B9B7B8"/>
<stop offset="0.2" stop-color="#E1E2E2"/>
<stop offset="0.6" stop-color="#C3C2C2"/>
<stop offset="1" stop-color="#B9B7B8"/>
</linearGradient>
<linearGradient id="paint8_linear_1_570" x1="16529.4" y1="3096.5" x2="17977.7" y2="3096.5" gradientUnits="userSpaceOnUse">
<stop stop-color="#E1E2E2"/>
<stop offset="0.4" stop-color="#C3C2C2"/>
<stop offset="0.9" stop-color="#B9B7B8"/>
</linearGradient>
<linearGradient id="paint9_linear_1_570" x1="16514.4" y1="3096.5" x2="17818.5" y2="3096.5" gradientUnits="userSpaceOnUse">
<stop stop-color="#FEFEFE"/>
<stop offset="0.6" stop-color="#C3C2C2"/>
</linearGradient>
<linearGradient id="paint10_linear_1_570" x1="12562.9" y1="360.108" x2="13490.8" y2="360.108" gradientUnits="userSpaceOnUse">
<stop stop-color="#B9B7B8"/>
<stop offset="0.2" stop-color="#E1E2E2"/>
<stop offset="0.6" stop-color="#C3C2C2"/>
<stop offset="1" stop-color="#B9B7B8"/>
</linearGradient>
<linearGradient id="paint11_linear_1_570" x1="10459.7" y1="794.4" x2="10978.8" y2="794.4" gradientUnits="userSpaceOnUse">
<stop stop-color="#E1E2E2"/>
<stop offset="0.4" stop-color="#C3C2C2"/>
<stop offset="0.9" stop-color="#B9B7B8"/>
</linearGradient>
<linearGradient id="paint12_linear_1_570" x1="10596.5" y1="794.4" x2="10980.6" y2="794.4" gradientUnits="userSpaceOnUse">
<stop stop-color="#FEFEFE"/>
<stop offset="0.6" stop-color="#C3C2C2"/>
</linearGradient>
<linearGradient id="paint13_linear_1_570" x1="4876.66" y1="1567.99" x2="4904.22" y2="1484.33" gradientUnits="userSpaceOnUse">
<stop stop-color="#FEFEFE"/>
<stop offset="0.9" stop-color="#FEFEFE"/>
</linearGradient>
<linearGradient id="paint14_linear_1_570" x1="4394.72" y1="3342.43" x2="4577.5" y2="2980.34" gradientUnits="userSpaceOnUse">
<stop stop-color="#C3C2C2"/>
<stop offset="0.5" stop-color="#FEFEFE"/>
<stop offset="0.9" stop-color="#FEFEFE"/>
</linearGradient>
<linearGradient id="paint15_linear_1_570" x1="3756.81" y1="1929.09" x2="3859.12" y2="2204.13" gradientUnits="userSpaceOnUse">
<stop stop-color="#FEFEFE"/>
<stop offset="0.9" stop-color="#FEFEFE"/>
</linearGradient>
<linearGradient id="paint16_linear_1_570" x1="4645.65" y1="3617" x2="4989.38" y2="3320.52" gradientUnits="userSpaceOnUse">
<stop stop-color="#FEFEFE"/>
<stop offset="0.9" stop-color="#FEFEFE"/>
</linearGradient>
<linearGradient id="paint17_linear_1_570" x1="4113.53" y1="831.4" x2="4118.92" y2="786.733" gradientUnits="userSpaceOnUse">
<stop stop-color="#FEFEFE"/>
<stop offset="0.9" stop-color="#FEFEFE"/>
</linearGradient>
</defs>
</svg>
