<svg width="18" height="32" viewBox="0 0 18 32" fill="none" xmlns="http://www.w3.org/2000/svg">
<path d="M12.8766 7.33704C12.9356 8.26521 10.5341 11.1676 10.5341 11.1676H6.46779C6.46779 11.1676 4.06631 8.26521 4.12524 7.33704C4.15471 6.83612 4.8619 5.06815 5.51015 3.52119C5.92267 4.25784 7.07184 6.21733 7.10131 6.2026C7.1455 6.18786 7.63169 5.68694 7.60223 5.64274C7.57276 5.61328 6.54145 3.62433 5.95214 2.47516C6.29099 1.67957 6.55619 1.09025 6.61512 0.987119C6.74772 0.707193 7.05711 0.677731 7.05711 0.677731H9.93004C9.93004 0.677731 10.2394 0.707193 10.3868 0.987119C10.5341 1.28178 12.803 6.42359 12.8766 7.33704Z" fill="url(#paint0_linear_1_445)"/>
<path d="M5.51013 3.52117C5.95212 4.28728 7.02763 6.14364 7.10129 6.20257C7.10129 6.2173 6.67403 6.20257 6.42357 5.89318C6.24678 5.67219 6.18785 5.55432 6.06998 5.30386C5.81952 4.75874 5.64273 4.09575 5.51013 3.52117Z" fill="black"/>
<path d="M12.8766 7.33704C12.9356 8.26521 10.5341 11.1676 10.5341 11.1676H6.4678C6.4678 11.1676 6.3352 11.0055 6.12894 10.7551C6.35484 10.814 6.59057 10.8582 6.83612 10.8877C9.37019 11.1529 11.4033 8.54514 11.1234 6.17313C10.9614 4.92083 10.4162 3.66852 9.76798 2.60775C9.37019 1.93003 8.82507 1.22285 8.17682 0.677731H9.93005C9.93005 0.677731 10.2394 0.707193 10.3868 0.987119C10.5341 1.28178 12.803 6.42359 12.8766 7.33704Z" fill="black"/>
<path d="M7.04237 4.58197C6.79191 4.09578 6.49725 3.52119 6.23206 3.00554C6.45305 2.19523 6.68878 1.39965 6.90977 0.707198C6.99817 0.677732 7.0571 0.677731 7.0571 0.677731H7.91161C7.60222 1.69431 7.26336 3.04974 7.04237 4.58197Z" fill="url(#paint1_linear_1_445)"/>
<path d="M7.95581 11.1676H7.41069C6.45305 10.3278 5.55434 9.07553 5.42174 7.18971C5.37754 6.57092 5.59853 5.43648 5.90793 4.21365C6.24678 4.78823 6.65931 5.49542 6.89504 5.89321C6.87539 6.18787 6.85575 6.49234 6.83611 6.80665C6.74771 9.37018 7.29282 10.5488 7.95581 11.1676Z" fill="url(#paint2_linear_1_445)"/>
<path d="M10.2689 1.00184H6.73298C6.45305 1.00184 6.23206 0.766109 6.23206 0.500916C6.23206 0.220989 6.45305 0 6.73298 0H10.2689C10.5341 0 10.7698 0.220989 10.7698 0.500916C10.7698 0.766109 10.5341 1.00184 10.2689 1.00184Z" fill="url(#paint3_linear_1_445)"/>
<path d="M7.91159 1.00184H6.73295C6.71331 1.00184 6.69367 0.996924 6.67402 0.987102C6.54143 0.662977 6.55616 0.250461 6.79188 0H7.83793C7.7348 0.162063 7.70533 0.412523 7.73479 0.589319C7.76426 0.736649 7.82319 0.874155 7.91159 1.00184Z" fill="url(#paint4_linear_1_445)"/>
<path style="mix-blend-mode:multiply" opacity="0.5" d="M10.7256 0.692444C10.6519 0.86924 10.4751 1.00184 10.2689 1.00184H6.73297C6.52671 1.00184 6.34991 0.86924 6.27625 0.692444C6.30571 0.692444 6.33518 0.692444 6.36464 0.692444H10.7256Z" fill="url(#paint5_linear_1_445)"/>
<path d="M10.6077 12.0368H6.46778C6.18786 12.0368 5.96686 11.8158 5.96686 11.5359C5.96686 11.256 6.18786 11.035 6.46778 11.035H10.6077C10.8877 11.035 11.1087 11.256 11.1087 11.5359C11.1087 11.8158 10.8877 12.0368 10.6077 12.0368Z" fill="#1C1C1C"/>
<path d="M7.66116 12.0368H7.01291C6.92451 11.9681 6.84103 11.8895 6.76245 11.8011C6.64459 11.6538 6.55619 11.4622 6.65932 11.2854C6.73299 11.1528 6.85085 11.0792 6.98345 11.035H7.64643C7.4991 11.197 7.42544 11.4328 7.46964 11.6538C7.4991 11.8011 7.55803 11.9337 7.66116 12.0368Z" fill="url(#paint6_linear_1_445)"/>
<path style="mix-blend-mode:multiply" d="M11.1087 11.4622C11.1087 11.4917 11.1087 11.5162 11.1087 11.5359C11.1087 11.8158 10.8877 12.0368 10.6077 12.0368H6.46778C6.18786 12.0368 5.96686 11.8158 5.96686 11.5359C5.96686 11.5162 5.97177 11.4917 5.98159 11.4622H11.1087Z" fill="url(#paint7_linear_1_445)"/>
<path d="M12.4936 22.7477H8.75139H8.33886H4.61142C7.86741 15.8379 6.12891 13.1271 6.12891 13.1271L6.11418 12.5967L8.54512 12.6998L10.9908 12.5967L10.9761 13.1271C10.9761 13.1271 9.23757 15.8379 12.4936 22.7477Z" fill="url(#paint8_linear_1_445)"/>
<path d="M10.9761 13.1271C10.9761 13.1271 9.23758 15.8379 12.4936 22.7477H10.8287C10.0184 21.0387 9.26704 19.3002 8.94292 17.4291C8.75139 16.3241 8.72192 15.1455 8.92818 14.0405C9.00185 13.5838 9.13445 13.0976 9.34071 12.6704L10.9908 12.5967L10.9761 13.1271Z" fill="black"/>
<path d="M6.74769 22.7477H4.97974C5.87845 21.3923 6.68876 18.6519 6.92449 16.4862C7.13075 14.6593 6.82136 13.3481 6.5709 12.6262L7.17495 12.6409C7.42541 13.4217 7.76427 14.7477 7.8232 16.4862C7.89686 18.6814 7.46961 21.407 6.74769 22.7477Z" fill="url(#paint9_linear_1_445)"/>
<path d="M10.9171 13.1418H6.17313C5.84901 13.1418 5.59854 12.8913 5.59854 12.5819C5.59854 12.2578 5.84901 11.9926 6.17313 11.9926H10.9171C11.2265 11.9926 11.4917 12.2578 11.4917 12.5819C11.4917 12.8913 11.2265 13.1418 10.9171 13.1418Z" fill="#1C1C1C"/>
<path d="M7.36648 13.1418H6.55617C6.44813 13.0436 6.35482 12.9306 6.27624 12.8029C6.17311 12.5967 6.18784 12.3757 6.33517 12.1989C6.42357 12.0958 6.5267 12.0368 6.6593 11.9926H7.30755C7.04236 12.1694 6.86556 12.4346 7.01289 12.7735C7.08655 12.9355 7.21915 13.0534 7.36648 13.1418Z" fill="url(#paint10_linear_1_445)"/>
<path style="mix-blend-mode:multiply" d="M11.477 12.4788C11.4868 12.5083 11.4917 12.5427 11.4917 12.582C11.4917 12.8913 11.2265 13.1418 10.9171 13.1418H6.17313C5.84901 13.1418 5.59854 12.8913 5.59854 12.582C5.59854 12.5427 5.59854 12.5083 5.59854 12.4788H11.477Z" fill="url(#paint11_linear_1_445)"/>
<path d="M12.523 24V24.0147H8.91346H8.19155H4.58197V24C5.25969 23.9116 5.27442 22.8655 4.61144 22.7329H8.19155H8.91346H12.4788C11.8159 22.8655 11.8306 23.9116 12.523 24Z" fill="url(#paint12_linear_1_445)"/>
<path d="M12.523 24V24.0147H10.1215C9.75322 23.8379 9.59116 23.558 9.70902 23.1455C9.75322 22.9834 9.85635 22.8508 9.98895 22.7329H12.4788C11.8158 22.8655 11.8306 23.9116 12.523 24Z" fill="black"/>
<path d="M15.337 26.9024C15.2781 27.1234 15.0571 27.3149 14.9098 27.4622C14.6888 27.6832 13.8048 28.4788 13.7901 28.4788C13.7901 28.4788 10.7109 28.4494 8.54511 28.4494C6.37937 28.4494 3.31491 28.4788 3.31491 28.4788C3.30018 28.4788 2.40147 27.6832 2.19521 27.4622C2.03314 27.3149 1.82688 27.1234 1.76795 26.9024C1.72375 26.7256 1.81215 26.5193 1.95948 26.4015C2.15101 26.2247 2.34254 26.0626 2.53406 25.8858C2.71086 25.7385 2.88766 25.5912 3.04972 25.4291C3.37384 25.1344 4.37568 24.1915 4.58195 24H6.45303H10.6372H12.5083C12.7293 24.1915 13.7311 25.1344 14.0405 25.4291C14.2173 25.5912 14.3941 25.7385 14.5562 25.8858C14.7477 26.0626 14.9392 26.2247 15.1455 26.4015C15.2781 26.5193 15.3812 26.7256 15.337 26.9024Z" fill="url(#paint13_linear_1_445)"/>
<path d="M15.337 26.9024C15.2781 27.1234 15.0571 27.3149 14.9098 27.4622C14.6888 27.6832 13.8048 28.4788 13.7901 28.4788C13.7901 28.4788 13.2155 28.4641 12.3904 28.4641C12.5378 28.302 12.6998 28.1252 12.8471 27.9484C13.1271 27.6243 13.3186 27.2413 13.3775 26.7993C13.4365 26.2689 12.7735 25.6943 12.4346 25.2523C12.0958 24.825 11.7422 24.4273 11.3886 24H12.5083C12.7293 24.1915 13.7311 25.1344 14.0405 25.4291C14.2173 25.5912 14.3941 25.7385 14.5562 25.8858C14.7477 26.0626 14.9392 26.2247 15.1455 26.4015C15.2781 26.5193 15.3812 26.7256 15.337 26.9024Z" fill="black"/>
<path d="M3.68325 28.4641C3.44753 28.4788 3.31493 28.4788 3.31493 28.4788C3.3002 28.4788 2.40149 27.6832 2.19523 27.4622C2.06263 27.3297 2.20996 27.1971 2.13629 27.0203C2.56355 26.6667 4.97976 24.3241 5.24495 24H6.26152C4.74403 26.4899 4.24311 26.8287 3.68325 28.4641Z" fill="url(#paint14_linear_1_445)"/>
<path d="M15.337 26.814C15.337 26.8435 15.337 26.8729 15.337 26.9024C15.2781 27.1234 15.0571 27.3149 14.9098 27.4623C14.6888 27.6833 13.8048 28.4788 13.7901 28.4788C13.7901 28.4788 10.7109 28.4494 8.54513 28.4494C6.37938 28.4494 3.31493 28.4788 3.31493 28.4788C3.30019 28.4788 2.40149 27.6833 2.19522 27.4623C2.03316 27.3149 1.8269 27.1234 1.76796 26.9024C1.75814 26.8729 1.75323 26.8435 1.75323 26.814H15.337Z" fill="url(#paint15_linear_1_445)"/>
<path d="M15.337 26.814C15.337 26.8435 15.337 26.8729 15.337 26.9024C15.2781 27.1234 15.0571 27.3149 14.9098 27.4623C14.6888 27.6833 13.8048 28.4788 13.7901 28.4788C13.7901 28.4788 10.1216 28.4641 8.10315 28.4494C8.31923 28.4297 8.53041 28.4003 8.73667 28.361C9.67958 28.2136 10.151 27.9632 10.9319 27.3591C11.1234 27.2118 11.3002 27.035 11.4033 26.814H15.337Z" fill="black"/>
<path d="M15.0129 29.2155L2.16577 29.2302C2.16577 29.1713 2.15103 29.0239 2.15103 28.965C2.15103 28.582 2.44569 28.2726 2.81402 28.2726H14.3647C14.733 28.2726 15.0276 28.582 15.0276 28.965C15.0276 29.0239 15.0277 29.1565 15.0129 29.2155Z" fill="url(#paint16_linear_1_445)"/>
<g style="mix-blend-mode:multiply" opacity="0.5">
<path d="M15.0276 28.965C15.0276 29.0239 15.0277 29.1565 15.0129 29.2155L2.16577 29.2302C2.16577 29.1713 2.15103 29.0239 2.15103 28.965C2.15103 28.9355 2.15594 28.9012 2.16577 28.8619H15.0129C15.0227 28.9012 15.0276 28.9355 15.0276 28.965Z" fill="#221F1F"/>
</g>
<path d="M17.1786 32H0C0 30.4236 0.987113 29.1418 2.19522 29.1418H14.9834C16.1915 29.1418 17.1786 30.4236 17.1786 32Z" fill="url(#paint17_linear_1_445)"/>
<path d="M17.1786 32H4.55249C5.74586 31.8821 6.90976 31.6169 8.02947 31.2781C9.03131 30.9539 11.1823 30.2762 12.1252 29.1418H14.9834C16.1915 29.1418 17.1786 30.4236 17.1786 32Z" fill="#020202"/>
<g style="mix-blend-mode:screen" opacity="0.5">
<path d="M5.20073 29.1418C4.52302 29.8195 4.37569 31.1013 4.37569 32H1.26703C1.42909 30.5709 2.51933 29.3481 3.34438 29.1418H5.20073Z" fill="url(#paint18_linear_1_445)"/>
</g>
<defs>
<linearGradient id="paint0_linear_1_445" x1="250.974" y1="412.93" x2="696.528" y2="412.93" gradientUnits="userSpaceOnUse">
<stop stop-color="#434546"/>
<stop offset="0.0001" stop-color="#2D2B2C"/>
<stop offset="0.9" stop-color="#201E1E"/>
</linearGradient>
<linearGradient id="paint1_linear_1_445" x1="7.07183" y1="0.677731" x2="7.07183" y2="4.58197" gradientUnits="userSpaceOnUse">
<stop stop-color="white" stop-opacity="0"/>
<stop offset="1" stop-color="white" stop-opacity="0.5"/>
</linearGradient>
<linearGradient id="paint2_linear_1_445" x1="6.68596" y1="4.21365" x2="6.68596" y2="11.1676" gradientUnits="userSpaceOnUse">
<stop stop-color="white" stop-opacity="0"/>
<stop offset="1" stop-color="white" stop-opacity="0.5"/>
</linearGradient>
<linearGradient id="paint3_linear_1_445" x1="134.197" y1="39.3723" x2="365.168" y2="39.3723" gradientUnits="userSpaceOnUse">
<stop stop-color="#434546"/>
<stop offset="0.0001" stop-color="#2D2B2C"/>
<stop offset="0.9" stop-color="#201E1E"/>
</linearGradient>
<linearGradient id="paint4_linear_1_445" x1="7.25095" y1="0" x2="7.25095" y2="1.00184" gradientUnits="userSpaceOnUse">
<stop stop-color="white" stop-opacity="0"/>
<stop offset="1" stop-color="white" stop-opacity="0.5"/>
</linearGradient>
<linearGradient id="paint5_linear_1_445" x1="1572.45" y1="179.958" x2="1572.45" y2="182.061" gradientUnits="userSpaceOnUse">
<stop stop-color="#A3A5A8"/>
<stop offset="0.4" stop-color="#434546"/>
<stop offset="0.9" stop-color="#201E1E"/>
</linearGradient>
<linearGradient id="paint6_linear_1_445" x1="7.13748" y1="11.035" x2="7.13748" y2="12.0368" gradientUnits="userSpaceOnUse">
<stop stop-color="white" stop-opacity="0"/>
<stop offset="1" stop-color="white" stop-opacity="0.5"/>
</linearGradient>
<linearGradient id="paint7_linear_1_445" x1="1818.46" y1="386.146" x2="1818.46" y2="391.432" gradientUnits="userSpaceOnUse">
<stop stop-color="#A3A5A8"/>
<stop offset="0.4" stop-color="#434546"/>
<stop offset="0.9" stop-color="#201E1E"/>
</linearGradient>
<linearGradient id="paint8_linear_1_445" x1="226.888" y1="411.531" x2="628.089" y2="411.531" gradientUnits="userSpaceOnUse">
<stop stop-color="#434546"/>
<stop offset="0.0001" stop-color="#2D2B2C"/>
<stop offset="0.9" stop-color="#201E1E"/>
</linearGradient>
<linearGradient id="paint9_linear_1_445" x1="6.40557" y1="12.6262" x2="6.40557" y2="22.7477" gradientUnits="userSpaceOnUse">
<stop stop-color="white" stop-opacity="0"/>
<stop offset="1" stop-color="white" stop-opacity="0.5"/>
</linearGradient>
<linearGradient id="paint10_linear_1_445" x1="6.78811" y1="11.9926" x2="6.78811" y2="13.1418" gradientUnits="userSpaceOnUse">
<stop stop-color="white" stop-opacity="0"/>
<stop offset="1" stop-color="white" stop-opacity="0.5"/>
</linearGradient>
<linearGradient id="paint11_linear_1_445" x1="2082.95" y1="448.921" x2="2082.95" y2="455.882" gradientUnits="userSpaceOnUse">
<stop stop-color="#A3A5A8"/>
<stop offset="0.4" stop-color="#434546"/>
<stop offset="0.9" stop-color="#201E1E"/>
</linearGradient>
<linearGradient id="paint12_linear_1_445" x1="2486.96" y1="963.168" x2="2877.66" y2="963.168" gradientUnits="userSpaceOnUse">
<stop stop-color="#201E1E"/>
<stop offset="0.2" stop-color="#A3A5A8"/>
<stop offset="0.6" stop-color="#434546"/>
<stop offset="1" stop-color="#201E1E"/>
</linearGradient>
<linearGradient id="paint13_linear_1_445" x1="385.019" y1="200.018" x2="1076.79" y2="200.018" gradientUnits="userSpaceOnUse">
<stop stop-color="#434546"/>
<stop offset="0.0001" stop-color="#2D2B2C"/>
<stop offset="0.9" stop-color="#201E1E"/>
</linearGradient>
<linearGradient id="paint14_linear_1_445" x1="4.19891" y1="24" x2="4.19891" y2="28.4788" gradientUnits="userSpaceOnUse">
<stop stop-color="white" stop-opacity="0"/>
<stop offset="1" stop-color="white" stop-opacity="0.5"/>
</linearGradient>
<linearGradient id="paint15_linear_1_445" x1="3913.89" y1="1294.41" x2="5076.66" y2="1294.41" gradientUnits="userSpaceOnUse">
<stop stop-color="#201E1E"/>
<stop offset="0.2" stop-color="#A3A5A8"/>
<stop offset="0.6" stop-color="#434546"/>
<stop offset="1" stop-color="#201E1E"/>
</linearGradient>
<linearGradient id="paint16_linear_1_445" x1="4027.38" y1="730.895" x2="4660.91" y2="730.895" gradientUnits="userSpaceOnUse">
<stop stop-color="#201E1E"/>
<stop offset="0.2" stop-color="#A3A5A8"/>
<stop offset="0.6" stop-color="#434546"/>
<stop offset="1" stop-color="#201E1E"/>
</linearGradient>
<linearGradient id="paint17_linear_1_445" x1="484.438" y1="141.469" x2="1358.83" y2="141.469" gradientUnits="userSpaceOnUse">
<stop stop-color="#434546"/>
<stop offset="0.0001" stop-color="#2D2B2C"/>
<stop offset="0.9" stop-color="#201E1E"/>
</linearGradient>
<linearGradient id="paint18_linear_1_445" x1="3.23388" y1="29.1418" x2="3.23388" y2="32" gradientUnits="userSpaceOnUse">
<stop stop-color="white" stop-opacity="0"/>
<stop offset="1" stop-color="white" stop-opacity="0.5"/>
</linearGradient>
</defs>
</svg>
