<svg width="20" height="32" viewBox="0 0 20 32" fill="none" xmlns="http://www.w3.org/2000/svg">
<path d="M14.5821 22.1283V22.5125H11.6757H7.80048H4.8941V22.1283C4.8941 22.1283 6.76488 11.7722 7.18246 9.31678C7.60004 6.86138 5.69586 6.84468 5.69586 6.84468L5.71256 6.56072H7.80048H11.6757H13.7803V6.84468C13.7803 6.84468 11.8761 6.86138 12.2937 9.31678C12.7113 11.7722 14.5821 22.1283 14.5821 22.1283Z" fill="url(#paint0_linear_1_812)"/>
<g style="mix-blend-mode:multiply" opacity="0.5">
<path d="M11.375 6.54404L13.7803 6.56074V6.8447C13.7803 6.8447 11.8761 6.8614 12.2937 9.31679C12.7113 11.7722 14.5821 22.1283 14.5821 22.1283V22.5125H12.444C12.3661 22.3566 12.2937 22.1951 12.2269 22.0281C11.6256 20.5582 10.8238 9.65086 10.6735 8.73218C10.5565 7.99723 10.3895 6.76118 11.375 6.54404Z" fill="#D0D0D1"/>
</g>
<path style="mix-blend-mode:screen" opacity="0.5" d="M14.5821 22.1283V22.5125H11.6757H7.80048H4.8941V22.1283C4.8941 22.1283 6.76488 11.7722 7.18246 9.31678C7.60004 6.86138 5.69586 6.84468 5.69586 6.84468L5.71256 6.56072H7.80048H11.6757H13.7803V6.84468C13.7803 6.84468 11.8761 6.86138 12.2937 9.31678C12.7113 11.7722 14.5821 22.1283 14.5821 22.1283Z" fill="url(#paint1_linear_1_812)"/>
<path d="M16.0352 5.62531L15.4339 6.20993H13.1456H6.33058H4.04222L3.4409 5.62531L9.73807 4.77344L16.0352 5.62531Z" fill="#AEAEAF"/>
<path d="M9.52093 26.0703L17.6054 26.705C17.6165 26.7162 17.6276 26.7273 17.6388 26.7384L16.1355 28.0079H12.0598H7.4163H3.34068L1.83737 26.7384C1.84851 26.7273 1.86521 26.7162 1.88748 26.705L9.52093 26.0703Z" fill="url(#paint2_linear_1_812)"/>
<path style="mix-blend-mode:multiply" d="M17.0542 27.2229L16.1355 28.008H3.34068L2.422 27.2229H17.0542Z" fill="url(#paint3_linear_1_812)"/>
<path d="M17.6054 26.7051H1.88748C4.17584 25.2519 5.01101 22.5125 5.01101 22.5125L9.73807 22.6295L14.4651 22.5125C14.4651 22.5125 15.3003 25.2519 17.6054 26.7051Z" fill="url(#paint4_linear_1_812)"/>
<g style="mix-blend-mode:multiply" opacity="0.5">
<path d="M12.5108 22.546L14.4651 22.5125C14.4651 22.5125 15.3003 25.2519 17.6054 26.7051H13.8972C13.8749 26.6828 13.8527 26.6494 13.8304 26.6049C13.062 25.3354 12.728 23.9824 12.5108 22.546Z" fill="#D0D0D1"/>
</g>
<path style="mix-blend-mode:screen" opacity="0.5" d="M17.6054 26.7051H1.88748C4.17584 25.2519 5.01101 22.5125 5.01101 22.5125L9.73807 22.6295L14.4651 22.5125C14.4651 22.5125 15.3003 25.2519 17.6054 26.7051Z" fill="url(#paint5_linear_1_812)"/>
<path d="M17.0207 28.8431L2.4721 28.8598C2.45539 28.7929 2.43869 28.6259 2.43869 28.5591C2.43869 28.1248 2.77276 27.774 3.19034 27.774H16.2858C16.7034 27.774 17.0374 28.1248 17.0374 28.5591C17.0374 28.6259 17.0374 28.7762 17.0207 28.8431Z" fill="url(#paint6_linear_1_812)"/>
<g style="mix-blend-mode:multiply" opacity="0.5">
<path d="M17.0374 28.5592C17.0374 28.626 17.0374 28.7763 17.0207 28.8431L2.4721 28.8598C2.45539 28.793 2.43869 28.626 2.43869 28.5592C2.43869 28.5257 2.44426 28.4868 2.45539 28.4422H17.0374C17.0374 28.4868 17.0374 28.5257 17.0374 28.5592Z" fill="#B9B8B9"/>
</g>
<path d="M19.4761 32H0C0 32 0 31.9945 0 31.9833C0 30.2128 1.11913 28.7596 2.4888 28.7596H16.9873C18.357 28.7596 19.4761 30.2128 19.4761 31.9833C19.4761 31.9945 19.4761 32 19.4761 32Z" fill="url(#paint7_linear_1_812)"/>
<g style="mix-blend-mode:multiply" opacity="0.5">
<path d="M19.4761 31.9833C19.4761 31.9945 19.4761 32 19.4761 32H5.16135C6.51432 31.8664 7.83389 31.5658 9.10334 31.1816C10.2392 30.8141 12.6779 30.029 13.7469 28.7596H16.9873C18.357 28.7596 19.4761 30.2128 19.4761 31.9833Z" fill="#D0D0D1"/>
</g>
<path d="M5.94641 3.08648L5.49541 3.57088V0.263611L5.94641 0.915042V3.08648Z" fill="url(#paint8_linear_1_812)"/>
<path d="M6.96531 3.08653V3.57093H5.49541L5.94641 3.08653H6.96531Z" fill="url(#paint9_linear_1_812)"/>
<path d="M9.27038 3.08648L8.80268 3.57087V0.129974L9.27038 0.78141V3.08648Z" fill="url(#paint10_linear_1_812)"/>
<path d="M10.2392 0.78141L10.6902 0.129974V3.57087L10.2392 3.08648V0.78141Z" fill="url(#paint11_linear_1_812)"/>
<path d="M10.2392 3.08653L10.7069 3.57093L8.71916 3.65445L9.27037 3.08653H10.2392Z" fill="url(#paint12_linear_1_812)"/>
<path d="M13.5631 0.915042L14.0141 0.263611V3.60429L13.5631 3.08648V0.915042Z" fill="url(#paint13_linear_1_812)"/>
<path d="M13.5631 3.08653L14.0141 3.60434H12.4941L12.4774 3.08653H13.5631Z" fill="url(#paint14_linear_1_812)"/>
<path d="M16.0352 0.514144V5.62538H3.4409V0.514144C4.29277 -0.0203637 5.49541 0.263594 5.49541 0.263594V3.57086H6.96531V0.230185C7.81718 -0.220806 8.80268 0.129964 8.80268 0.129964V3.57086H9.67126H9.82159H10.6735V0.129964C10.6735 0.129964 11.659 -0.220806 12.5108 0.230185V3.57086H13.9807V0.263594C13.9807 0.263594 15.2001 -0.0203637 16.0352 0.514144Z" fill="url(#paint15_linear_1_812)"/>
<g style="mix-blend-mode:multiply" opacity="0.5">
<path d="M16.0353 0.514112V5.62535H11.7091C12.2269 5.49172 12.728 5.25787 13.1957 4.94051C14.0643 4.33919 14.3315 3.53742 14.4651 2.51852C14.5821 1.75016 14.5988 0.965104 14.4985 0.196749C14.9328 0.163342 15.5509 0.196748 16.0353 0.514112Z" fill="#D0D0D1"/>
</g>
<path style="mix-blend-mode:screen" opacity="0.5" d="M16.0352 0.514144V5.62538H3.4409V0.514144C4.29277 -0.0203637 5.49541 0.263594 5.49541 0.263594V3.57086H6.96531V0.230185C7.81718 -0.220806 8.80268 0.129964 8.80268 0.129964V3.57086H9.67126H9.82159H10.6735V0.129964C10.6735 0.129964 11.659 -0.220806 12.5108 0.230185V3.57086H13.9807V0.263594C13.9807 0.263594 15.2001 -0.0203637 16.0352 0.514144Z" fill="url(#paint16_linear_1_812)"/>
<path style="mix-blend-mode:screen" opacity="0.5" d="M7.56663 0.0297089V5.62534H4.29277C4.29277 4.02182 4.29277 1.73345 4.29277 0.213442C4.9275 0.129925 5.49541 0.263555 5.49541 0.263555V3.57082H6.96531V0.230146C7.16575 0.129926 7.36619 0.079819 7.56663 0.0297089Z" fill="url(#paint17_linear_1_812)"/>
<path style="mix-blend-mode:screen" opacity="0.5" d="M9.08664 9.26675C8.70246 12.1731 8.25147 19.2387 7.884 22.5125H5.77937C6.3974 19.3723 7.26597 12.5239 7.75037 9.71774C8.03433 8.14763 7.85059 6.87817 6.81498 6.62762L7.80048 6.5608L8.10114 6.31025C8.61895 6.39377 9.42071 6.69443 9.08664 9.26675Z" fill="url(#paint18_linear_1_812)"/>
<path style="mix-blend-mode:screen" opacity="0.5" d="M6.09673 26.7051H2.75606C4.19255 26.0369 5.49541 23.7319 5.77937 22.5292L7.83389 22.596C7.66685 23.8154 7.56663 25.6862 6.09673 26.7051Z" fill="url(#paint19_linear_1_812)"/>
<g style="mix-blend-mode:screen" opacity="0.5">
<path d="M5.61234 28.7596C4.86069 29.5279 4.69366 30.9811 4.67695 32H1.16924C1.35298 30.3798 2.58903 28.9934 3.50772 28.7596H5.61234Z" fill="url(#paint20_linear_1_812)"/>
</g>
<path d="M15.484 6.84475H4.00881C3.82507 6.84475 3.67474 6.69442 3.67474 6.51068C3.67474 6.32694 3.82507 6.17661 4.00881 6.17661H15.484C15.6678 6.17661 15.8014 6.32694 15.8014 6.51068C15.8014 6.69442 15.6678 6.84475 15.484 6.84475Z" fill="url(#paint21_linear_1_812)"/>
<path style="mix-blend-mode:multiply" opacity="0.5" d="M15.8014 6.47716C15.8014 6.4883 15.8014 6.49944 15.8014 6.51057C15.8014 6.69431 15.6678 6.84464 15.484 6.84464H4.00881C3.82507 6.84464 3.67474 6.69431 3.67474 6.51057C3.67474 6.49944 3.67474 6.48274 3.67474 6.46046C3.69701 6.4716 3.71929 6.47716 3.74156 6.47716H15.8014Z" fill="url(#paint22_linear_1_812)"/>
<path d="M14.6656 23.0804H4.81058C4.50992 23.0804 4.25937 22.8299 4.25937 22.5292C4.25937 22.2285 4.50992 21.978 4.81058 21.978H14.6656C14.9662 21.978 15.2168 22.2285 15.2168 22.5292C15.2168 22.8299 14.9662 23.0804 14.6656 23.0804Z" fill="url(#paint23_linear_1_812)"/>
<path style="mix-blend-mode:multiply" opacity="0.5" d="M15.2001 22.4457C15.2001 22.4624 15.2168 22.4958 15.2168 22.5292C15.2168 22.8298 14.9662 23.0804 14.6656 23.0804H4.81058C4.50992 23.0804 4.25937 22.8298 4.25937 22.5292C4.25937 22.4958 4.26494 22.4679 4.27607 22.4457H15.2001Z" fill="url(#paint24_linear_1_812)"/>
<defs>
<linearGradient id="paint0_linear_1_812" x1="280.032" y1="5722.07" x2="773.149" y2="5722.07" gradientUnits="userSpaceOnUse">
<stop stop-color="#E1E2E2"/>
<stop offset="0.4" stop-color="#C3C2C2"/>
<stop offset="0.9" stop-color="#B9B7B8"/>
</linearGradient>
<linearGradient id="paint1_linear_1_812" x1="300.377" y1="5722.07" x2="857.435" y2="5722.07" gradientUnits="userSpaceOnUse">
<stop offset="0.1" stop-color="#FEFEFE"/>
<stop offset="0.7" stop-color="#C3C2C2"/>
</linearGradient>
<linearGradient id="paint2_linear_1_812" x1="-380.556" y1="946.621" x2="810.869" y2="946.621" gradientUnits="userSpaceOnUse">
<stop stop-color="#C3C2C2"/>
<stop offset="1" stop-color="#B9B7B8"/>
</linearGradient>
<linearGradient id="paint3_linear_1_812" x1="-351.676" y1="405.622" x2="751.589" y2="405.622" gradientUnits="userSpaceOnUse">
<stop stop-color="#C3C2C2"/>
<stop offset="1" stop-color="#B9B7B8"/>
</linearGradient>
<linearGradient id="paint4_linear_1_812" x1="121.343" y1="1925.09" x2="1411.78" y2="1925.09" gradientUnits="userSpaceOnUse">
<stop stop-color="#E1E2E2"/>
<stop offset="0.4" stop-color="#C3C2C2"/>
<stop offset="0.9" stop-color="#B9B7B8"/>
</linearGradient>
<linearGradient id="paint5_linear_1_812" x1="265.948" y1="1925.09" x2="1457.36" y2="1925.09" gradientUnits="userSpaceOnUse">
<stop offset="0.1" stop-color="#FEFEFE"/>
<stop offset="0.7" stop-color="#C3C2C2"/>
</linearGradient>
<linearGradient id="paint6_linear_1_812" x1="30.1763" y1="554.674" x2="1028.73" y2="554.674" gradientUnits="userSpaceOnUse">
<stop stop-color="#E1E2E2"/>
<stop offset="0.4" stop-color="#C3C2C2"/>
<stop offset="0.9" stop-color="#B9B7B8"/>
</linearGradient>
<linearGradient id="paint7_linear_1_812" x1="17.5285" y1="1620.47" x2="2288.45" y2="1620.47" gradientUnits="userSpaceOnUse">
<stop stop-color="#E1E2E2"/>
<stop offset="0.4" stop-color="#C3C2C2"/>
<stop offset="0.9" stop-color="#B9B7B8"/>
</linearGradient>
<linearGradient id="paint8_linear_1_812" x1="20.7389" y1="1060.57" x2="21.9566" y2="1060.57" gradientUnits="userSpaceOnUse">
<stop offset="0.1" stop-color="#B9B7B8"/>
<stop offset="0.6" stop-color="#C3C2C2"/>
<stop offset="1" stop-color="#E1E2E2"/>
</linearGradient>
<linearGradient id="paint9_linear_1_812" x1="62.3804" y1="166.28" x2="62.3804" y2="167.975" gradientUnits="userSpaceOnUse">
<stop stop-color="#E1E2E2"/>
<stop offset="0.4" stop-color="#C3C2C2"/>
<stop offset="0.9" stop-color="#B9B7B8"/>
</linearGradient>
<linearGradient id="paint10_linear_1_812" x1="33.8711" y1="1100.53" x2="35.1807" y2="1100.53" gradientUnits="userSpaceOnUse">
<stop offset="0.1" stop-color="#B9B7B8"/>
<stop offset="0.6" stop-color="#C3C2C2"/>
<stop offset="1" stop-color="#E1E2E2"/>
</linearGradient>
<linearGradient id="paint11_linear_1_812" x1="38.2908" y1="1100.53" x2="39.5085" y2="1100.53" gradientUnits="userSpaceOnUse">
<stop stop-color="#E1E2E2"/>
<stop offset="0.4" stop-color="#C3C2C2"/>
<stop offset="0.9" stop-color="#B9B7B8"/>
</linearGradient>
<linearGradient id="paint12_linear_1_812" x1="126.987" y1="194.36" x2="126.987" y2="196.688" gradientUnits="userSpaceOnUse">
<stop stop-color="#E1E2E2"/>
<stop offset="0.4" stop-color="#C3C2C2"/>
<stop offset="0.9" stop-color="#B9B7B8"/>
</linearGradient>
<linearGradient id="paint13_linear_1_812" x1="50.5896" y1="1071.28" x2="51.8073" y2="1071.28" gradientUnits="userSpaceOnUse">
<stop stop-color="#E1E2E2"/>
<stop offset="0.4" stop-color="#C3C2C2"/>
<stop offset="0.9" stop-color="#B9B7B8"/>
</linearGradient>
<linearGradient id="paint14_linear_1_812" x1="136.644" y1="177.484" x2="136.644" y2="179.451" gradientUnits="userSpaceOnUse">
<stop stop-color="#E1E2E2"/>
<stop offset="0.4" stop-color="#C3C2C2"/>
<stop offset="0.9" stop-color="#B9B7B8"/>
</linearGradient>
<linearGradient id="paint15_linear_1_812" x1="68.9315" y1="1794.5" x2="1104.19" y2="1794.5" gradientUnits="userSpaceOnUse">
<stop stop-color="#E1E2E2"/>
<stop offset="0.2" stop-color="#C3C2C2"/>
<stop offset="0.7" stop-color="#B9B7B8"/>
</linearGradient>
<linearGradient id="paint16_linear_1_812" x1="746.507" y1="2052.7" x2="657.079" y2="1750.52" gradientUnits="userSpaceOnUse">
<stop offset="0.1" stop-color="#C3C2C2"/>
<stop offset="0.9" stop-color="#FEFEFE"/>
</linearGradient>
<linearGradient id="paint17_linear_1_812" x1="30.1563" y1="1975.29" x2="30.1563" y2="1787.83" gradientUnits="userSpaceOnUse">
<stop offset="0.1" stop-color="#FEFEFE"/>
<stop offset="0.9" stop-color="#FEFEFE"/>
</linearGradient>
<linearGradient id="paint18_linear_1_812" x1="-516.041" y1="7404.27" x2="-516.041" y2="5698.17" gradientUnits="userSpaceOnUse">
<stop offset="0.1" stop-color="#FEFEFE"/>
<stop offset="0.9" stop-color="#FEFEFE"/>
</linearGradient>
<linearGradient id="paint19_linear_1_812" x1="115.992" y1="2024.01" x2="115.992" y2="1919.2" gradientUnits="userSpaceOnUse">
<stop offset="0.1" stop-color="#FEFEFE"/>
<stop offset="0.7" stop-color="#FEFEFE"/>
</linearGradient>
<linearGradient id="paint20_linear_1_812" x1="61.5954" y1="1687.87" x2="63.7231" y2="1576.04" gradientUnits="userSpaceOnUse">
<stop offset="0.1" stop-color="#FEFEFE"/>
<stop offset="0.7" stop-color="#FEFEFE"/>
</linearGradient>
<linearGradient id="paint21_linear_1_812" x1="126.154" y1="244.033" x2="1042.93" y2="244.033" gradientUnits="userSpaceOnUse">
<stop stop-color="#E1E2E2"/>
<stop offset="0.2" stop-color="#C3C2C2"/>
<stop offset="0.9" stop-color="#B9B7B8"/>
</linearGradient>
<linearGradient id="paint22_linear_1_812" x1="126.154" y1="143.88" x2="1042.93" y2="143.88" gradientUnits="userSpaceOnUse">
<stop stop-color="#E1E2E2"/>
<stop offset="0.2" stop-color="#C3C2C2"/>
<stop offset="0.9" stop-color="#B9B7B8"/>
</linearGradient>
<linearGradient id="paint23_linear_1_812" x1="656.226" y1="516.415" x2="656.226" y2="526.117" gradientUnits="userSpaceOnUse">
<stop stop-color="#E1E2E2"/>
<stop offset="0.4" stop-color="#C3C2C2"/>
<stop offset="0.9" stop-color="#B9B7B8"/>
</linearGradient>
<linearGradient id="paint24_linear_1_812" x1="654.034" y1="307.059" x2="654.034" y2="312.708" gradientUnits="userSpaceOnUse">
<stop stop-color="#E1E2E2"/>
<stop offset="0.4" stop-color="#C3C2C2"/>
<stop offset="0.9" stop-color="#B9B7B8"/>
</linearGradient>
</defs>
</svg>
