<svg width="20" height="32" viewBox="0 0 20 32" fill="none" xmlns="http://www.w3.org/2000/svg">
<path d="M14.55 22.0688V22.4521H11.65H7.78333H4.88333V22.0688C4.88333 22.0688 6.75 11.7355 7.16666 9.28548C7.58333 6.83548 5.68333 6.81881 5.68333 6.81881L5.7 6.53548H7.78333H11.65H13.75V6.81881C13.75 6.81881 11.85 6.83548 12.2667 9.28548C12.7 11.7355 14.55 22.0688 14.55 22.0688Z" fill="url(#paint0_linear_1_115)"/>
<path d="M11.3667 6.51881L13.75 6.53547V6.81881C13.75 6.81881 11.85 6.83547 12.2667 9.28547C12.7 11.7355 14.55 22.0688 14.55 22.0688V22.4521H12.4167C12.3389 22.2966 12.2667 22.141 12.2 21.9855C11.6167 20.5021 10.8 9.61881 10.65 8.70214C10.5333 7.96881 10.3667 6.73547 11.3667 6.51881Z" fill="black"/>
<path d="M16 5.60214L15.4167 6.18547H13.1167H6.31667H4.03333L3.43333 5.60214L9.71667 4.76881L16 5.60214Z" fill="black"/>
<path d="M9.5 26.0021L17.5667 26.6355C17.5778 26.6466 17.5889 26.6577 17.6 26.6688L16.1 27.9355H12.0333H7.4H3.33334L1.83334 26.6688C1.84445 26.6577 1.86111 26.6466 1.88334 26.6355L9.5 26.0021Z" fill="url(#paint1_linear_1_115)"/>
<path style="mix-blend-mode:multiply" d="M17.0167 27.1521L16.1 27.9355H3.33333L2.41666 27.1521H17.0167Z" fill="url(#paint2_linear_1_115)"/>
<path d="M17.5667 26.6355H1.88333C4.16666 25.1855 5 22.4521 5 22.4521L9.71666 22.5688L14.4333 22.4521C14.4333 22.4521 15.2667 25.1855 17.5667 26.6355Z" fill="url(#paint3_linear_1_115)"/>
<path d="M12.5 22.4855L14.4333 22.4521C14.4333 22.4521 15.2667 25.1855 17.5667 26.6355H13.8667C13.8444 26.6133 13.8222 26.5799 13.8 26.5355C13.0333 25.2688 12.7167 23.9188 12.5 22.4855Z" fill="black"/>
<path d="M17 28.7688L2.46667 28.7855C2.45 28.7188 2.43333 28.5521 2.43333 28.4855C2.43333 28.0521 2.76667 27.7021 3.18333 27.7021H16.25C16.6667 27.7021 17 28.0521 17 28.4855C17 28.5521 17.0167 28.7021 17 28.7688Z" fill="url(#paint4_linear_1_115)"/>
<g style="mix-blend-mode:multiply" opacity="0.5">
<path d="M17 28.4855C17 28.5521 17.0167 28.7021 17 28.7688L2.46667 28.7855C2.45 28.7188 2.43333 28.5521 2.43333 28.4855C2.43333 28.4521 2.43889 28.4132 2.45 28.3688H17C17 28.4132 17 28.4521 17 28.4855Z" fill="#221F1F"/>
</g>
<path d="M19.4333 31.9188H0C0 30.1355 1.11667 28.6855 2.48333 28.6855H16.95C18.3167 28.6855 19.4333 30.1355 19.4333 31.9188Z" fill="url(#paint5_linear_1_115)"/>
<path d="M19.4333 31.9188H5.16666C6.5 31.7855 7.81666 31.4855 9.08333 31.1021C10.2167 30.7355 12.65 29.9688 13.7333 28.6855H16.95C18.3167 28.6855 19.4333 30.1355 19.4333 31.9188Z" fill="#221F1F"/>
<path d="M5.93333 3.06881L5.48333 3.55214V0.252144L5.93333 0.902144V3.06881Z" fill="url(#paint6_linear_1_115)"/>
<path d="M6.95 3.06881V3.55214H5.48333L5.93333 3.06881H6.95Z" fill="url(#paint7_linear_1_115)"/>
<path d="M9.25 3.06881L8.78333 3.55215V0.118813L9.25 0.768813V3.06881Z" fill="url(#paint8_linear_1_115)"/>
<path d="M10.2167 0.768813L10.6667 0.118813V3.55215L10.2167 3.06881V0.768813Z" fill="url(#paint9_linear_1_115)"/>
<path d="M10.2167 3.06881L10.6833 3.55214L8.71667 3.63548L9.25 3.06881H10.2167Z" fill="url(#paint10_linear_1_115)"/>
<path d="M13.5333 0.902144L13.9833 0.252144V3.58548L13.5333 3.06881V0.902144Z" fill="url(#paint11_linear_1_115)"/>
<path d="M13.5333 3.06881L13.9833 3.58548H12.4667L12.45 3.06881H13.5333Z" fill="url(#paint12_linear_1_115)"/>
<path d="M16 0.502142V5.60214H3.43333V0.502142C4.28333 -0.0311911 5.48333 0.252142 5.48333 0.252142V3.55214H6.95V0.235476C7.8 -0.214524 8.78333 0.118809 8.78333 0.118809V3.55214H9.65H9.8H10.6667V0.118809C10.6667 0.118809 11.6333 -0.214524 12.5 0.235476V3.55214H13.95V0.252142C13.95 0.252142 15.1667 -0.0311911 16 0.502142Z" fill="url(#paint13_linear_1_115)"/>
<path d="M16 0.50214V5.60214H11.7C12.2 5.46881 12.7 5.23547 13.1667 4.91881C14.0333 4.31881 14.3 3.51881 14.4333 2.50214C14.55 1.73547 14.5667 0.95214 14.4667 0.185473C14.9 0.168806 15.5167 0.20214 16 0.50214Z" fill="black"/>
<path d="M7.55 0.0354767V5.60214H4.3C4.3 4.00214 4.3 1.71881 4.3 0.21881C4.91667 0.11881 5.48334 0.252143 5.48334 0.252143V3.55214H6.95V0.235477C7.15 0.11881 7.35 0.06881 7.55 0.0354767Z" fill="url(#paint14_linear_1_115)"/>
<path d="M9.06666 9.25214C8.7 12.1355 8.25 19.1855 7.86666 22.4521H5.76666C6.38333 19.3188 7.25 12.4855 7.73333 9.68548C8.01666 8.11881 7.83333 6.85214 6.8 6.60214L7.78333 6.53548L8.1 6.28548C8.6 6.38548 9.41666 6.66881 9.06666 9.25214Z" fill="url(#paint15_linear_1_115)"/>
<path d="M6.08333 26.6355H2.75C4.18333 25.9688 5.48333 23.6688 5.76667 22.4688L7.81667 22.5355C7.66667 23.7688 7.55 25.6188 6.08333 26.6355Z" fill="url(#paint16_linear_1_115)"/>
<path d="M5.61666 28.6855C4.85 29.4521 4.68333 30.9021 4.68333 31.9188H1.16666C1.35 30.3021 2.58333 28.9188 3.5 28.6855H5.61666Z" fill="url(#paint17_linear_1_115)"/>
<path d="M15.45 6.81881H4C3.81666 6.81881 3.66666 6.66881 3.66666 6.48547C3.66666 6.31881 3.81666 6.16881 4 6.16881H15.45C15.6333 6.16881 15.7833 6.31881 15.7833 6.48547C15.7833 6.66881 15.6333 6.81881 15.45 6.81881Z" fill="url(#paint18_linear_1_115)"/>
<path style="mix-blend-mode:multiply" opacity="0.5" d="M15.7667 6.45214C15.7778 6.46326 15.7833 6.47437 15.7833 6.48548C15.7833 6.66881 15.6333 6.81881 15.45 6.81881H4C3.81666 6.81881 3.66666 6.66881 3.66666 6.48548C3.66666 6.47437 3.66666 6.4577 3.66666 6.43548C3.68889 6.44659 3.71111 6.45214 3.73333 6.45214H15.7667Z" fill="url(#paint19_linear_1_115)"/>
<path d="M14.6333 23.0188H4.8C4.5 23.0188 4.26666 22.7688 4.26666 22.4688C4.26666 22.1688 4.5 21.9188 4.8 21.9188H14.6333C14.9333 21.9188 15.1833 22.1688 15.1833 22.4688C15.1833 22.7688 14.9333 23.0188 14.6333 23.0188Z" fill="url(#paint20_linear_1_115)"/>
<path style="mix-blend-mode:multiply" opacity="0.5" d="M15.1667 22.3855C15.1778 22.4077 15.1833 22.4355 15.1833 22.4688C15.1833 22.7688 14.9333 23.0188 14.6333 23.0188H4.8C4.5 23.0188 4.26666 22.7688 4.26666 22.4688C4.26666 22.4355 4.26666 22.4077 4.26666 22.3855H15.1667Z" fill="url(#paint21_linear_1_115)"/>
<defs>
<linearGradient id="paint0_linear_1_115" x1="277.483" y1="632.06" x2="769.517" y2="632.06" gradientUnits="userSpaceOnUse">
<stop stop-color="#434546"/>
<stop offset="0.0001" stop-color="#2D2B2C"/>
<stop offset="0.9" stop-color="#201E1E"/>
</linearGradient>
<linearGradient id="paint1_linear_1_115" x1="-382.873" y1="327.795" x2="805.933" y2="327.795" gradientUnits="userSpaceOnUse">
<stop stop-color="#434546"/>
<stop offset="1" stop-color="#201E1E"/>
</linearGradient>
<linearGradient id="paint2_linear_1_115" x1="-353.823" y1="154.835" x2="747.017" y2="154.835" gradientUnits="userSpaceOnUse">
<stop stop-color="#434546"/>
<stop offset="1" stop-color="#201E1E"/>
</linearGradient>
<linearGradient id="paint3_linear_1_115" x1="444.153" y1="186.857" x2="1242.43" y2="186.857" gradientUnits="userSpaceOnUse">
<stop stop-color="#434546"/>
<stop offset="0.0001" stop-color="#2D2B2C"/>
<stop offset="0.9" stop-color="#201E1E"/>
</linearGradient>
<linearGradient id="paint4_linear_1_115" x1="413.422" y1="70.2771" x2="1155.24" y2="70.2771" gradientUnits="userSpaceOnUse">
<stop stop-color="#434546"/>
<stop offset="0.0001" stop-color="#2D2B2C"/>
<stop offset="0.9" stop-color="#201E1E"/>
</linearGradient>
<linearGradient id="paint5_linear_1_115" x1="548.02" y1="155.756" x2="1537.18" y2="155.756" gradientUnits="userSpaceOnUse">
<stop stop-color="#434546"/>
<stop offset="0.0001" stop-color="#2D2B2C"/>
<stop offset="0.9" stop-color="#201E1E"/>
</linearGradient>
<linearGradient id="paint6_linear_1_115" x1="20.6033" y1="5.53214" x2="21.8183" y2="5.53214" gradientUnits="userSpaceOnUse">
<stop offset="0.1" stop-color="#201E1E"/>
<stop offset="0.6" stop-color="#434546"/>
<stop offset="1" stop-color="#A3A5A8"/>
</linearGradient>
<linearGradient id="paint7_linear_1_115" x1="61.95" y1="11.7205" x2="61.95" y2="13.4121" gradientUnits="userSpaceOnUse">
<stop stop-color="#A3A5A8"/>
<stop offset="0.4" stop-color="#434546"/>
<stop offset="0.9" stop-color="#201E1E"/>
</linearGradient>
<linearGradient id="paint8_linear_1_115" x1="33.7033" y1="2.86548" x2="35.01" y2="2.86548" gradientUnits="userSpaceOnUse">
<stop offset="0.1" stop-color="#201E1E"/>
<stop offset="0.6" stop-color="#434546"/>
<stop offset="1" stop-color="#A3A5A8"/>
</linearGradient>
<linearGradient id="paint9_linear_1_115" x1="38.1166" y1="2.86548" x2="39.3316" y2="2.86548" gradientUnits="userSpaceOnUse">
<stop stop-color="#A3A5A8"/>
<stop offset="0.4" stop-color="#434546"/>
<stop offset="0.9" stop-color="#201E1E"/>
</linearGradient>
<linearGradient id="paint10_linear_1_115" x1="125.34" y1="13.1555" x2="125.34" y2="15.4788" gradientUnits="userSpaceOnUse">
<stop stop-color="#A3A5A8"/>
<stop offset="0.4" stop-color="#434546"/>
<stop offset="0.9" stop-color="#201E1E"/>
</linearGradient>
<linearGradient id="paint11_linear_1_115" x1="50.3883" y1="5.58548" x2="51.6033" y2="5.58548" gradientUnits="userSpaceOnUse">
<stop stop-color="#A3A5A8"/>
<stop offset="0.4" stop-color="#434546"/>
<stop offset="0.9" stop-color="#201E1E"/>
</linearGradient>
<linearGradient id="paint12_linear_1_115" x1="136.037" y1="12.2655" x2="136.037" y2="14.2288" gradientUnits="userSpaceOnUse">
<stop stop-color="#A3A5A8"/>
<stop offset="0.4" stop-color="#434546"/>
<stop offset="0.9" stop-color="#201E1E"/>
</linearGradient>
<linearGradient id="paint13_linear_1_115" x1="357.813" y1="220.164" x2="997.457" y2="220.164" gradientUnits="userSpaceOnUse">
<stop stop-color="#434546"/>
<stop offset="0.0001" stop-color="#2D2B2C"/>
<stop offset="0.9" stop-color="#201E1E"/>
</linearGradient>
<linearGradient id="paint14_linear_1_115" x1="5.925" y1="0.0354767" x2="5.925" y2="5.60214" gradientUnits="userSpaceOnUse">
<stop stop-color="white" stop-opacity="0"/>
<stop offset="1" stop-color="white" stop-opacity="0.5"/>
</linearGradient>
<linearGradient id="paint15_linear_1_115" x1="7.45899" y1="6.28548" x2="7.45899" y2="22.4521" gradientUnits="userSpaceOnUse">
<stop stop-color="white" stop-opacity="0"/>
<stop offset="1" stop-color="white" stop-opacity="0.5"/>
</linearGradient>
<linearGradient id="paint16_linear_1_115" x1="5.28333" y1="22.4688" x2="5.28333" y2="26.6355" gradientUnits="userSpaceOnUse">
<stop stop-color="white" stop-opacity="0"/>
<stop offset="1" stop-color="white" stop-opacity="0.5"/>
</linearGradient>
<linearGradient id="paint17_linear_1_115" x1="3.39166" y1="28.6855" x2="3.39166" y2="31.9188" gradientUnits="userSpaceOnUse">
<stop stop-color="white" stop-opacity="0"/>
<stop offset="1" stop-color="white" stop-opacity="0.5"/>
</linearGradient>
<linearGradient id="paint18_linear_1_115" x1="345.357" y1="31.7138" x2="962.095" y2="31.7138" gradientUnits="userSpaceOnUse">
<stop stop-color="#434546"/>
<stop offset="0.0001" stop-color="#2D2B2C"/>
<stop offset="0.9" stop-color="#201E1E"/>
</linearGradient>
<linearGradient id="paint19_linear_1_115" x1="124.833" y1="21.2705" x2="1040.85" y2="21.2705" gradientUnits="userSpaceOnUse">
<stop stop-color="#A3A5A8"/>
<stop offset="0.2" stop-color="#434546"/>
<stop offset="0.9" stop-color="#201E1E"/>
</linearGradient>
<linearGradient id="paint20_linear_1_115" x1="312.117" y1="65.1487" x2="867.775" y2="65.1487" gradientUnits="userSpaceOnUse">
<stop stop-color="#434546"/>
<stop offset="0.0001" stop-color="#2D2B2C"/>
<stop offset="0.9" stop-color="#201E1E"/>
</linearGradient>
<linearGradient id="paint21_linear_1_115" x1="649.442" y1="104.402" x2="649.442" y2="109.976" gradientUnits="userSpaceOnUse">
<stop stop-color="#A3A5A8"/>
<stop offset="0.4" stop-color="#434546"/>
<stop offset="0.9" stop-color="#201E1E"/>
</linearGradient>
</defs>
</svg>
