<svg width="34" height="34" viewBox="0 0 34 34" fill="none" xmlns="http://www.w3.org/2000/svg">
<path d="M20.8707 8.34841C20.9296 9.27616 18.5292 12.1772 18.5292 12.1772H14.4648C14.4648 12.1772 12.0497 9.27616 12.1233 8.34841C12.1528 7.84772 12.8596 6.08057 13.5076 4.53432C13.9199 5.25591 15.0686 7.21449 15.098 7.21449C15.1422 7.19976 15.6282 6.69908 15.584 6.6549C15.5693 6.62545 14.5384 4.63741 13.9494 3.48877C14.2881 2.69355 14.5531 2.1045 14.612 2.00142C14.7446 1.72162 15.0538 1.69217 15.0538 1.69217H17.9254C17.9254 1.69217 18.2347 1.72162 18.382 2.00142C18.5292 2.29594 20.797 7.43539 20.8707 8.34841Z" fill="url(#paint0_linear_1_896)"/>
<path d="M13.5076 4.53427C13.9494 5.30003 15.0244 7.15554 15.098 7.21444C15.0833 7.22917 14.671 7.21444 14.4206 6.90519C14.2439 6.6843 14.185 6.56649 14.0672 6.31614C13.8021 5.77127 13.6254 5.10859 13.5076 4.53427Z" fill="#AEAEAF"/>
<g style="mix-blend-mode:multiply" opacity="0.5">
<path d="M20.8707 8.34841C20.9296 9.27616 18.5292 12.1772 18.5292 12.1772H14.4648C14.4648 12.1772 14.3323 12.0152 14.1261 11.7502C14.347 11.8238 14.5826 11.868 14.833 11.8827C17.3659 12.1625 19.3981 9.55596 19.1035 7.17031C18.9563 5.93331 18.4114 4.68159 17.7635 3.6213C17.3659 2.9439 16.821 2.22231 16.173 1.69217H17.9255C17.9255 1.69217 18.2347 1.72162 18.382 2.00142C18.5292 2.29594 20.7971 7.43539 20.8707 8.34841Z" fill="#D0D0D1"/>
</g>
<path style="mix-blend-mode:screen" opacity="0.5" d="M20.8707 8.34841C20.9296 9.27616 18.5292 12.1772 18.5292 12.1772H14.4648C14.4648 12.1772 12.0497 9.27616 12.1233 8.34841C12.1528 7.84772 12.8596 6.08057 13.5076 4.53432C13.9199 5.25591 15.0686 7.21449 15.098 7.21449C15.1422 7.19976 15.6282 6.69908 15.584 6.6549C15.5693 6.62545 14.5384 4.63741 13.9494 3.48877C14.2881 2.69355 14.5531 2.1045 14.612 2.00142C14.7446 1.72162 15.0538 1.69217 15.0538 1.69217H17.9254C17.9254 1.69217 18.2347 1.72162 18.382 2.00142C18.5292 2.29594 20.797 7.43539 20.8707 8.34841Z" fill="url(#paint1_linear_1_896)"/>
<path opacity="0.5" d="M15.0391 5.59461C14.7888 5.10865 14.4795 4.53432 14.2145 4.01891C14.4501 3.20897 14.6857 2.41375 14.9066 1.72162C14.9949 1.69217 15.0539 1.69217 15.0539 1.69217H15.908C15.5987 2.70828 15.2453 4.06309 15.0391 5.59461Z" fill="url(#paint2_linear_1_896)"/>
<path opacity="0.5" d="M15.9521 12.1772H15.4073C14.4353 11.3231 13.5518 10.0861 13.4192 8.20113C13.3751 7.58263 13.596 6.44871 13.9052 5.22644C14.2439 5.80076 14.6562 6.50762 14.8919 6.8905C14.8624 7.19484 14.8428 7.50409 14.8329 7.81825C14.7446 10.3659 15.2747 11.5587 15.9521 12.1772Z" fill="url(#paint3_linear_1_896)"/>
<path d="M18.2494 2.01611H14.7299C14.4501 2.01611 14.2292 1.78049 14.2292 1.51542C14.2292 1.23562 14.4501 1 14.7299 1H18.2494C18.5292 1 18.7501 1.23562 18.7501 1.51542C18.7501 1.78049 18.5292 2.01611 18.2494 2.01611Z" fill="url(#paint4_linear_1_896)"/>
<path style="mix-blend-mode:screen" opacity="0.5" d="M15.908 2.01611H14.7299C14.7102 2.01611 14.6906 2.0112 14.671 2.00138C14.5384 1.67741 14.5532 1.26507 14.7888 1H15.8343C15.7313 1.17671 15.7018 1.42706 15.7312 1.60377C15.7607 1.75104 15.8196 1.88848 15.908 2.01611Z" fill="url(#paint5_linear_1_896)"/>
<path style="mix-blend-mode:multiply" opacity="0.5" d="M18.7207 1.70691C18.6323 1.88362 18.4556 2.01616 18.2494 2.01616H14.7299C14.5237 2.01616 14.347 1.88362 14.2586 1.70691C14.2979 1.70691 14.3323 1.70691 14.3617 1.70691H18.7207Z" fill="url(#paint6_linear_1_896)"/>
<path d="M18.6029 13.046H14.4648C14.185 13.046 13.9641 12.8251 13.9641 12.5453C13.9641 12.2655 14.185 12.0446 14.4648 12.0446H18.6029C18.8827 12.0446 19.1036 12.2655 19.1036 12.5453C19.1036 12.8251 18.8827 13.046 18.6029 13.046Z" fill="url(#paint7_linear_1_896)"/>
<path style="mix-blend-mode:screen" opacity="0.5" d="M15.6576 13.046H15.0097C14.9213 12.9773 14.8379 12.8987 14.7593 12.8104C14.6268 12.6631 14.5532 12.4717 14.6562 12.2949C14.7151 12.1624 14.8477 12.0888 14.9802 12.0446H15.6429C15.4956 12.2066 15.4073 12.4422 15.4515 12.6631C15.4809 12.8104 15.5545 12.9429 15.6576 13.046Z" fill="url(#paint8_linear_1_896)"/>
<path style="mix-blend-mode:multiply" opacity="0.5" d="M19.1036 12.4718C19.1036 12.5012 19.1036 12.5258 19.1036 12.5454C19.1036 12.8252 18.8827 13.0461 18.6029 13.0461H14.4648C14.185 13.0461 13.9641 12.8252 13.9641 12.5454C13.9641 12.5258 13.9641 12.5012 13.9641 12.4718H19.1036Z" fill="url(#paint9_linear_1_896)"/>
<path d="M20.4731 23.7372H16.7474H16.335H12.6093C15.8491 16.8454 14.1261 14.1357 14.1261 14.1357L14.1114 13.6056L16.5412 13.7087L18.971 13.6056L18.9563 14.1357C18.9563 14.1357 17.2333 16.8454 20.4731 23.7372Z" fill="url(#paint10_linear_1_896)"/>
<g style="mix-blend-mode:multiply" opacity="0.5">
<path d="M18.9563 14.1357C18.9563 14.1357 17.2333 16.8454 20.4731 23.7372H18.8238C18.0138 22.0437 17.2628 20.306 16.9388 18.4358C16.7474 17.3313 16.7179 16.1532 16.9093 15.0488C16.9977 14.5775 17.1302 14.1063 17.3364 13.6792L18.971 13.6056L18.9563 14.1357Z" fill="#D0D0D1"/>
</g>
<path style="mix-blend-mode:screen" opacity="0.5" d="M20.4731 23.7372H16.7474H16.335H12.6093C15.8491 16.8454 14.1261 14.1357 14.1261 14.1357L14.1114 13.6056L16.5412 13.7087L18.971 13.6056L18.9563 14.1357C18.9563 14.1357 17.2333 16.8454 20.4731 23.7372Z" fill="url(#paint11_linear_1_896)"/>
<path opacity="0.5" d="M14.7446 23.7372H12.9774C13.861 22.3971 14.6857 19.6581 14.9213 17.4933C15.1275 15.6525 14.8182 14.3419 14.5679 13.6203L15.1717 13.6498C15.422 14.4303 15.7607 15.7556 15.8196 17.4933C15.8932 19.6728 15.4662 22.4119 14.7446 23.7372Z" fill="url(#paint12_linear_1_896)"/>
<path d="M18.8974 14.1504H14.1703C13.8463 14.1504 13.5959 13.9001 13.5959 13.5761C13.5959 13.2668 13.8463 13.0018 14.1703 13.0018H18.8974C19.2214 13.0018 19.4864 13.2668 19.4864 13.5761C19.4864 13.9001 19.2214 14.1504 18.8974 14.1504Z" fill="url(#paint13_linear_1_896)"/>
<path style="mix-blend-mode:screen" opacity="0.5" d="M15.3631 14.1504H14.5532C14.4501 14.0473 14.347 13.9295 14.2734 13.797C14.1703 13.6055 14.185 13.3847 14.3323 13.2079C14.4059 13.1049 14.5237 13.0459 14.6415 13.0018H15.2895C15.0391 13.1785 14.8477 13.4288 15.0097 13.7823C15.0833 13.9442 15.2158 14.0621 15.3631 14.1504Z" fill="url(#paint14_linear_1_896)"/>
<path style="mix-blend-mode:multiply" opacity="0.5" d="M19.4717 13.4878C19.4717 13.5172 19.4766 13.5467 19.4864 13.5761C19.4864 13.9001 19.2214 14.1505 18.8974 14.1505H14.1703C13.8463 14.1505 13.5959 13.9001 13.5959 13.5761C13.5959 13.5467 13.5959 13.5172 13.5959 13.4878H19.4717Z" fill="url(#paint15_linear_1_896)"/>
<path d="M20.5173 25.0037V25.0185H16.9093H16.1878H12.5798V25.0037C13.2573 24.9154 13.272 23.8698 12.6093 23.7373H16.1878H16.9093H20.4731C19.8104 23.8698 19.8251 24.9154 20.5173 25.0037Z" fill="url(#paint16_linear_1_896)"/>
<g style="mix-blend-mode:multiply" opacity="0.5">
<path d="M20.5173 25.0037V25.0185H18.1169C17.734 24.8417 17.5868 24.5472 17.7046 24.1496C17.7487 23.9876 17.8518 23.8551 17.9696 23.7373H20.4731C19.8104 23.8698 19.8251 24.9154 20.5173 25.0037Z" fill="#D0D0D1"/>
</g>
<path d="M23.3152 27.9047C23.2563 28.1256 23.0502 28.3023 22.9029 28.4643C22.682 28.6852 21.7984 29.4804 21.7837 29.4804C21.7837 29.4804 18.7059 29.451 16.5412 29.451C14.3764 29.451 11.3134 29.4804 11.3134 29.4804C11.2987 29.4804 10.4004 28.6852 10.1795 28.4643C10.0322 28.3023 9.82604 28.1256 9.76713 27.9047C9.72296 27.728 9.81131 27.5218 9.95857 27.3893C10.1549 27.2322 10.3464 27.0653 10.5329 26.8886C10.7096 26.7414 10.8863 26.5941 11.0483 26.4321C11.3723 26.1376 12.3737 25.1951 12.5798 25.0037H14.4501H18.6323H20.5025C20.7087 25.1951 21.7101 26.1376 22.034 26.4321C22.2108 26.5941 22.3875 26.7414 22.5495 26.8886C22.7458 27.0653 22.9373 27.2322 23.1238 27.3893C23.2711 27.5218 23.3741 27.728 23.3152 27.9047Z" fill="url(#paint17_linear_1_896)"/>
<g style="mix-blend-mode:multiply" opacity="0.5">
<path d="M23.3152 27.9047C23.2563 28.1256 23.0502 28.3023 22.9029 28.4643C22.682 28.6852 21.7984 29.4804 21.7837 29.4804C21.7837 29.4804 21.2094 29.4657 20.37 29.4657C20.532 29.3037 20.694 29.127 20.8412 28.9503C21.121 28.6263 21.3125 28.2434 21.3714 27.8016C21.4303 27.2715 20.7676 26.6824 20.4289 26.2554C20.0902 25.8283 19.7368 25.4307 19.3833 25.0037H20.5025C20.7087 25.1951 21.7101 26.1376 22.0341 26.4321C22.2108 26.5941 22.3875 26.7414 22.5495 26.8886C22.7458 27.0653 22.9373 27.2322 23.1238 27.3893C23.2711 27.5218 23.3741 27.728 23.3152 27.9047Z" fill="#D0D0D1"/>
</g>
<path style="mix-blend-mode:screen" opacity="0.5" d="M23.3152 27.9047C23.2563 28.1256 23.0502 28.3023 22.9029 28.4643C22.682 28.6852 21.7984 29.4804 21.7837 29.4804C21.7837 29.4804 18.7059 29.451 16.5412 29.451C14.3764 29.451 11.3134 29.4804 11.3134 29.4804C11.2987 29.4804 10.4004 28.6852 10.1795 28.4643C10.0322 28.3023 9.82604 28.1256 9.76713 27.9047C9.72296 27.728 9.81131 27.5218 9.95857 27.3893C10.1549 27.2322 10.3464 27.0653 10.5329 26.8886C10.7096 26.7414 10.8863 26.5941 11.0483 26.4321C11.3723 26.1376 12.3737 25.1951 12.5798 25.0037H14.4501H18.6323H20.5025C20.7087 25.1951 21.7101 26.1376 22.034 26.4321C22.2108 26.5941 22.3875 26.7414 22.5495 26.8886C22.7458 27.0653 22.9373 27.2322 23.1238 27.3893C23.2711 27.5218 23.3741 27.728 23.3152 27.9047Z" fill="url(#paint18_linear_1_896)"/>
<path opacity="0.5" d="M11.6668 29.4657C11.4459 29.4657 11.3134 29.4804 11.3134 29.4804C11.2987 29.4804 10.4004 28.6852 10.1795 28.4643C10.0469 28.3318 10.2089 28.1992 10.1353 28.0225C10.5624 27.6544 12.9775 25.3276 13.2425 25.0037H14.2439C12.7418 27.4924 12.2264 27.8164 11.6668 29.4657Z" fill="url(#paint19_linear_1_896)"/>
<path d="M23.33 27.8017C23.33 27.8458 23.33 27.8753 23.3152 27.9048C23.2563 28.1256 23.0502 28.3024 22.9029 28.4643C22.682 28.6852 21.7985 29.4805 21.7837 29.4805C21.7837 29.4805 18.706 29.451 16.5412 29.451C14.3765 29.451 11.3134 29.4805 11.3134 29.4805C11.2987 29.4805 10.4004 28.6852 10.1795 28.4643C10.0322 28.3024 9.82606 28.1256 9.76715 27.9048C9.75243 27.8753 9.75243 27.8458 9.75243 27.8017H23.33Z" fill="url(#paint20_linear_1_896)"/>
<g style="mix-blend-mode:multiply" opacity="0.5">
<path d="M23.33 27.8017C23.33 27.8458 23.33 27.8753 23.3152 27.9048C23.2563 28.1256 23.0502 28.3024 22.9029 28.4643C22.682 28.6852 21.7984 29.4805 21.7837 29.4805C21.7837 29.4805 18.1022 29.4657 16.0994 29.451C16.3056 29.4215 16.5167 29.3921 16.7326 29.3626C17.6751 29.2154 18.1464 28.9503 18.9268 28.3613C19.1183 28.214 19.295 28.0226 19.3981 27.8017H23.33Z" fill="#D0D0D1"/>
</g>
<path d="M23.006 30.2168L10.1648 30.2315C10.15 30.1726 10.15 30.0254 10.15 29.9665C10.15 29.5836 10.4445 29.2743 10.8127 29.2743H22.358C22.7262 29.2743 23.0207 29.5836 23.0207 29.9665C23.0207 30.0254 23.0207 30.1579 23.006 30.2168Z" fill="url(#paint21_linear_1_896)"/>
<g style="mix-blend-mode:multiply" opacity="0.5">
<path d="M23.0207 29.9664C23.0207 30.0253 23.0207 30.1578 23.006 30.2167L10.1648 30.2314C10.15 30.1725 10.15 30.0253 10.15 29.9664C10.15 29.9369 10.15 29.9026 10.15 29.8633H23.006C23.0158 29.9026 23.0207 29.9369 23.0207 29.9664Z" fill="#B9B8B9"/>
</g>
<path d="M25.1707 33H8C8 33 8 32.9951 8 32.9853C8 31.4243 8.98665 30.1431 10.1942 30.1431H22.9765C24.1841 30.1431 25.1707 31.4243 25.1707 32.9853C25.1707 32.9951 25.1707 33 25.1707 33Z" fill="url(#paint22_linear_1_896)"/>
<g style="mix-blend-mode:multiply" opacity="0.5">
<path d="M25.1707 32.9853C25.1707 32.9951 25.1707 33 25.1707 33H12.5504C13.7432 32.8822 14.9066 32.6171 16.0258 32.2784C17.0272 31.9545 19.1772 31.2623 20.1197 30.1431H22.9765C24.1841 30.1431 25.1707 31.4243 25.1707 32.9853Z" fill="#D0D0D1"/>
</g>
<g style="mix-blend-mode:screen" opacity="0.5">
<path d="M13.1836 30.1431C12.5209 30.8205 12.3737 32.1017 12.3589 33H9.26645C9.42844 31.5716 10.5182 30.3493 11.3281 30.1431H13.1836Z" fill="url(#paint23_linear_1_896)"/>
</g>
<defs>
<linearGradient id="paint0_linear_1_896" x1="2869.9" y1="2971.06" x2="3488.3" y2="3083.6" gradientUnits="userSpaceOnUse">
<stop stop-color="#E1E2E2"/>
<stop offset="0.3" stop-color="#C3C2C2"/>
<stop offset="0.9" stop-color="#B9B7B8"/>
</linearGradient>
<linearGradient id="paint1_linear_1_896" x1="2892.65" y1="3126.24" x2="3180.52" y2="3126.24" gradientUnits="userSpaceOnUse">
<stop stop-color="#FEFEFE"/>
<stop offset="0.9" stop-color="#C3C2C2"/>
</linearGradient>
<linearGradient id="paint2_linear_1_896" x1="533.445" y1="1426.47" x2="584.395" y2="1129.13" gradientUnits="userSpaceOnUse">
<stop stop-color="#FEFEFE"/>
<stop offset="0.5" stop-color="#FEFEFE"/>
<stop offset="1" stop-color="#FEFEFE"/>
</linearGradient>
<linearGradient id="paint3_linear_1_896" x1="709.226" y1="2524.88" x2="817.729" y2="1985.55" gradientUnits="userSpaceOnUse">
<stop stop-color="#FEFEFE"/>
<stop offset="0.5" stop-color="#FEFEFE"/>
<stop offset="1" stop-color="#FEFEFE"/>
</linearGradient>
<linearGradient id="paint4_linear_1_896" x1="1609.67" y1="299.127" x2="1609.67" y2="308.983" gradientUnits="userSpaceOnUse">
<stop stop-color="#E1E2E2"/>
<stop offset="0.4" stop-color="#C3C2C2"/>
<stop offset="0.9" stop-color="#B9B7B8"/>
</linearGradient>
<linearGradient id="paint5_linear_1_896" x1="471.676" y1="298.72" x2="471.676" y2="305.528" gradientUnits="userSpaceOnUse">
<stop offset="0.1" stop-color="#FEFEFE"/>
<stop offset="0.9" stop-color="#FEFEFE"/>
</linearGradient>
<linearGradient id="paint6_linear_1_896" x1="1585.79" y1="92.4102" x2="1585.79" y2="94.544" gradientUnits="userSpaceOnUse">
<stop stop-color="#E1E2E2"/>
<stop offset="0.4" stop-color="#C3C2C2"/>
<stop offset="0.9" stop-color="#B9B7B8"/>
</linearGradient>
<linearGradient id="paint7_linear_1_896" x1="1828.7" y1="378.651" x2="1828.7" y2="387.864" gradientUnits="userSpaceOnUse">
<stop stop-color="#E1E2E2"/>
<stop offset="0.4" stop-color="#C3C2C2"/>
<stop offset="0.9" stop-color="#B9B7B8"/>
</linearGradient>
<linearGradient id="paint8_linear_1_896" x1="377.781" y1="378.651" x2="377.781" y2="387.864" gradientUnits="userSpaceOnUse">
<stop stop-color="#FEFEFE"/>
<stop offset="0.9" stop-color="#C3C2C2"/>
</linearGradient>
<linearGradient id="paint9_linear_1_896" x1="1826.64" y1="222.731" x2="1826.64" y2="228.014" gradientUnits="userSpaceOnUse">
<stop stop-color="#E1E2E2"/>
<stop offset="0.4" stop-color="#C3C2C2"/>
<stop offset="0.9" stop-color="#B9B7B8"/>
</linearGradient>
<linearGradient id="paint10_linear_1_896" x1="2609.23" y1="3852.48" x2="2949.73" y2="3852.48" gradientUnits="userSpaceOnUse">
<stop stop-color="#E1E2E2"/>
<stop offset="0.5" stop-color="#C3C2C2"/>
<stop offset="0.9" stop-color="#B9B7B8"/>
</linearGradient>
<linearGradient id="paint11_linear_1_896" x1="2609.23" y1="3852.48" x2="2901.77" y2="3852.48" gradientUnits="userSpaceOnUse">
<stop stop-color="#FEFEFE"/>
<stop offset="0.9" stop-color="#C3C2C2"/>
</linearGradient>
<linearGradient id="paint12_linear_1_896" x1="644.903" y1="4668.4" x2="644.903" y2="3897.5" gradientUnits="userSpaceOnUse">
<stop offset="0.1" stop-color="#FEFEFE"/>
<stop offset="1" stop-color="#FEFEFE"/>
</linearGradient>
<linearGradient id="paint13_linear_1_896" x1="2094.11" y1="440.528" x2="2094.11" y2="452.703" gradientUnits="userSpaceOnUse">
<stop stop-color="#E1E2E2"/>
<stop offset="0.4" stop-color="#C3C2C2"/>
<stop offset="0.9" stop-color="#B9B7B8"/>
</linearGradient>
<linearGradient id="paint14_linear_1_896" x1="412.171" y1="440.528" x2="412.171" y2="452.703" gradientUnits="userSpaceOnUse">
<stop stop-color="#FEFEFE"/>
<stop offset="0.9" stop-color="#C3C2C2"/>
</linearGradient>
<linearGradient id="paint15_linear_1_896" x1="2091.17" y1="260.203" x2="2091.17" y2="267.161" gradientUnits="userSpaceOnUse">
<stop stop-color="#E1E2E2"/>
<stop offset="0.4" stop-color="#C3C2C2"/>
<stop offset="0.9" stop-color="#B9B7B8"/>
</linearGradient>
<linearGradient id="paint16_linear_1_896" x1="2494.61" y1="597.32" x2="2885.92" y2="597.32" gradientUnits="userSpaceOnUse">
<stop stop-color="#B9B7B8"/>
<stop offset="0.2" stop-color="#E1E2E2"/>
<stop offset="0.6" stop-color="#C3C2C2"/>
<stop offset="1" stop-color="#B9B7B8"/>
</linearGradient>
<linearGradient id="paint17_linear_1_896" x1="4219.79" y1="2067.75" x2="5231.22" y2="2067.75" gradientUnits="userSpaceOnUse">
<stop stop-color="#E1E2E2"/>
<stop offset="0.4" stop-color="#C3C2C2"/>
<stop offset="0.9" stop-color="#B9B7B8"/>
</linearGradient>
<linearGradient id="paint18_linear_1_896" x1="4219.79" y1="2067.75" x2="5231.22" y2="2067.75" gradientUnits="userSpaceOnUse">
<stop stop-color="#FEFEFE"/>
<stop offset="0.9" stop-color="#C3C2C2"/>
</linearGradient>
<linearGradient id="paint19_linear_1_896" x1="1230.05" y1="2123.26" x2="1342.32" y2="2005.87" gradientUnits="userSpaceOnUse">
<stop offset="0.1" stop-color="#FEFEFE"/>
<stop offset="1" stop-color="#FEFEFE"/>
</linearGradient>
<linearGradient id="paint20_linear_1_896" x1="3922.8" y1="825.73" x2="5085.04" y2="825.73" gradientUnits="userSpaceOnUse">
<stop stop-color="#B9B7B8"/>
<stop offset="0.2" stop-color="#E1E2E2"/>
<stop offset="0.6" stop-color="#C3C2C2"/>
<stop offset="1" stop-color="#B9B7B8"/>
</linearGradient>
<linearGradient id="paint21_linear_1_896" x1="3813.44" y1="493.805" x2="4693.79" y2="493.805" gradientUnits="userSpaceOnUse">
<stop stop-color="#E1E2E2"/>
<stop offset="0.4" stop-color="#C3C2C2"/>
<stop offset="0.9" stop-color="#B9B7B8"/>
</linearGradient>
<linearGradient id="paint22_linear_1_896" x1="5064.78" y1="1433.44" x2="7066.89" y2="1433.44" gradientUnits="userSpaceOnUse">
<stop stop-color="#E1E2E2"/>
<stop offset="0.4" stop-color="#C3C2C2"/>
<stop offset="0.9" stop-color="#B9B7B8"/>
</linearGradient>
<linearGradient id="paint23_linear_1_896" x1="1218.89" y1="1492.87" x2="1220.76" y2="1394.27" gradientUnits="userSpaceOnUse">
<stop offset="0.1" stop-color="#FEFEFE"/>
<stop offset="0.7" stop-color="#FEFEFE"/>
</linearGradient>
</defs>
</svg>
