<svg width="15" height="35" viewBox="0 0 15 35" fill="none" xmlns="http://www.w3.org/2000/svg">
<path d="M13.3302 29.202H8.93534H5.44064H1.04578L4.03746 25.5749L4.24926 25.2175L7.18799 25.244L10.1267 25.2175L10.2591 25.5749L13.3302 29.202Z" fill="url(#paint0_linear_1_147)"/>
<path d="M8.10136 25.244L10.1267 25.2175L10.2591 25.5749L13.3302 29.202H9.04122C9.07652 29.149 9.10741 29.0961 9.13389 29.0431C9.35893 28.593 9.33245 28.0768 9.21332 27.6135C9.01475 26.753 8.5382 25.9985 8.10136 25.244Z" fill="black"/>
<path d="M3.62709 29.1623H1.37671C1.69441 28.871 4.50077 25.7867 4.77875 25.2704C5.17588 25.2175 5.58624 25.2969 5.98337 25.2969C5.71862 25.8926 3.74622 29.0034 3.62709 29.1623Z" fill="url(#paint1_linear_1_147)"/>
<path d="M13.3302 29.1623L11.8873 31.6774H9.14714H5.22883H2.48867L1.04578 29.1623H7.18799H13.3302Z" fill="url(#paint2_linear_1_147)"/>
<path d="M10.868 25.0851H3.50793C6.0363 20.2799 5.66565 15.2893 5.66565 15.2893L7.18796 15.4879L8.71028 15.2893C8.71028 15.2893 8.33963 20.2799 10.868 25.0851Z" fill="url(#paint3_linear_1_147)"/>
<path d="M10.868 25.0851H9.09417C8.63086 24.1982 8.26021 23.2716 8.00869 22.292C7.70423 21.1271 7.55862 19.5783 7.5189 18.3737C7.46595 16.5072 7.42624 15.8983 7.54538 15.382C7.54538 15.3291 8.52496 15.3555 8.53819 15.3158L8.71028 15.2893C8.71028 15.2893 8.33963 20.2799 10.868 25.0851Z" fill="black"/>
<path d="M5.97013 25.0851H4.22278C6.38049 20.0416 5.99661 16.3086 6.03632 15.7924C6.0628 15.4879 6.23488 15.6335 6.1687 15.3158C6.2746 15.2629 6.3805 15.2232 6.49963 15.1967C6.52611 15.5144 6.39373 19.6577 6.32754 20.677C6.23488 22.1464 6.07603 23.6157 5.97013 25.0851Z" fill="url(#paint4_linear_1_147)"/>
<path d="M10.8548 25.0851L10.2591 25.5749H4.03744L3.50793 25.0851H10.8548Z" fill="url(#paint5_linear_1_147)"/>
<path d="M12.43 32.4849L1.95915 32.5114C1.94591 32.4584 1.93268 32.326 1.93268 32.2731C1.93268 31.9289 2.19743 31.6509 2.52837 31.6509H11.8476C12.1785 31.6509 12.4433 31.9289 12.4433 32.2731C12.4433 32.326 12.4433 32.4452 12.43 32.4849Z" fill="url(#paint6_linear_1_147)"/>
<g style="mix-blend-mode:multiply" opacity="0.5">
<path d="M12.4433 32.2731C12.4433 32.326 12.4433 32.4452 12.43 32.4849L1.95915 32.5114C1.94591 32.4584 1.93268 32.326 1.93268 32.2731C1.93268 32.2378 1.93709 32.2069 1.94592 32.1804H12.43C12.4389 32.2069 12.4433 32.2378 12.4433 32.2731Z" fill="#221F1F"/>
</g>
<path d="M14.3627 35H0C0 35 0 34.9956 0 34.9868C0 33.5836 0.886913 32.4319 1.97239 32.4319H12.4036C13.489 32.4319 14.3627 33.5836 14.3627 34.9868C14.3627 34.9956 14.3627 35 14.3627 35Z" fill="url(#paint7_linear_1_147)"/>
<path d="M14.3627 34.9868C14.3627 34.9956 14.3627 35 14.3627 35H0C3.33586 34.7617 6.632 33.4645 7.46596 33.0673C7.75719 32.935 8.15431 32.7232 8.41906 32.4319H12.4036C13.489 32.4319 14.3627 33.5836 14.3627 34.9868Z" fill="black"/>
<path d="M9.08095 4.91113C9.08095 5.26854 8.23374 5.55977 7.18798 5.55977C6.14221 5.55977 5.29501 5.26854 5.29501 4.91113C5.29501 4.55371 6.14221 4.27573 7.18798 4.27573C8.23374 4.27573 9.08095 4.55371 9.08095 4.91113Z" fill="url(#paint8_linear_1_147)"/>
<path style="mix-blend-mode:screen" opacity="0.5" d="M6.38049 5.52005C6.06279 5.4671 5.7848 5.41415 5.573 5.32148C5.573 5.17587 5.59947 5.03025 5.63919 4.88464C5.71861 4.63313 5.87746 4.50075 6.07602 4.35514C6.19075 4.33749 6.3143 4.31984 6.44668 4.30219C6.28782 4.54047 6.23487 4.83169 6.23487 5.10968C6.23487 5.26853 6.28782 5.40091 6.38049 5.52005Z" fill="url(#paint9_linear_1_147)"/>
<g style="mix-blend-mode:multiply" opacity="0.3">
<path d="M7.17474 4.58019C6.53934 4.58019 5.97013 4.61991 5.69214 4.52724C6.03631 4.36839 6.57905 4.27573 7.18798 4.27573C7.78367 4.27573 8.31317 4.36839 8.65734 4.514C8.39259 4.6199 7.83662 4.58019 7.17474 4.58019Z" fill="#221F1F"/>
</g>
<g style="mix-blend-mode:multiply" opacity="0.5">
<path d="M9.08095 4.91113C9.08095 5.26854 8.23374 5.55977 7.18798 5.55977C6.14221 5.55977 5.29501 5.26854 5.29501 4.91113C5.29501 4.80523 5.37444 4.71256 5.50681 4.6199C5.2553 4.88465 6.39373 4.77875 7.1615 4.77875C7.95576 4.77875 9.02799 4.88465 8.85591 4.60667C9.00152 4.69933 9.08095 4.80523 9.08095 4.91113Z" fill="#221F1F"/>
</g>
<path d="M8.53819 2.89901L7.82337 2.4357L8.29992 3.9183H6.07601L6.53933 2.4357L5.83774 2.89901V1.059L6.6717 1.33699L6.30105 0H6.94969H7.42624H8.07488L7.70423 1.33699L8.53819 1.059V2.89901Z" fill="url(#paint10_linear_1_147)"/>
<path d="M5.83774 1.059L6.6717 1.33699L6.30105 0H7.95574C7.90279 0.476551 7.81013 0.939859 7.61156 1.3767C7.413 1.81354 7.04235 2.15771 6.53933 2.15771C6.18191 2.15771 5.97011 1.99886 5.83774 1.77382V1.059Z" fill="url(#paint11_linear_1_147)"/>
<g style="mix-blend-mode:multiply" opacity="0.5">
<path d="M8.5382 2.89904L7.82337 2.43573L8.29993 3.91833H6.07602L6.26134 3.33588C6.27017 3.34471 6.27458 3.34912 6.27458 3.34912C6.45991 3.65358 6.77761 3.36235 6.88351 3.16379C7.08207 2.76666 7.17473 2.32983 7.21445 1.87976C7.22327 1.87976 7.2321 1.87976 7.24092 1.87976C7.66452 1.82681 8.10136 1.82681 8.5382 1.81357V2.89904Z" fill="#221F1F"/>
</g>
<path style="mix-blend-mode:screen" opacity="0.5" d="M5.83774 1.059L6.6717 1.33699L6.30105 0C6.30105 0 7.16149 1.44289 6.89674 1.54879C6.65846 1.65469 5.83774 1.059 5.83774 1.059Z" fill="url(#paint12_linear_1_147)"/>
<path d="M8.5382 2.89901L7.82337 2.4357L8.29993 3.9183H7.21445V0H8.07489L7.70424 1.33699L8.5382 1.059V2.89901Z" fill="url(#paint13_linear_1_147)"/>
<path d="M7.21445 1.89296V0H8.07489L7.70424 1.33699L8.5382 1.059V1.93267C8.28669 2.118 7.99546 2.21066 7.67776 2.15771C7.46596 2.118 7.32035 2.06505 7.21445 1.89296Z" fill="url(#paint14_linear_1_147)"/>
<g style="mix-blend-mode:multiply" opacity="0.5">
<path d="M8.29993 3.91833H7.21445V1.99889C7.22327 2.00771 7.22769 2.01654 7.22769 2.02536C7.29387 3.21674 7.77042 3.64034 8.12784 3.40207C8.14107 3.40207 8.29993 3.91833 8.29993 3.91833Z" fill="#221F1F"/>
</g>
<path style="mix-blend-mode:screen" opacity="0.5" d="M7.70424 1.33699L8.5382 1.059C8.5382 1.059 7.77042 1.50908 7.51891 1.5885C7.14826 1.6944 8.07489 0 8.07489 0L7.70424 1.33699Z" fill="url(#paint15_linear_1_147)"/>
<path d="M8.4323 4.46106H5.94364C5.73184 4.46106 5.55975 4.28897 5.55975 4.06393C5.55975 3.85213 5.73184 3.68004 5.94364 3.68004H8.4323C8.6441 3.68004 8.81618 3.85213 8.81618 4.06393C8.81618 4.28897 8.6441 4.46106 8.4323 4.46106Z" fill="url(#paint16_linear_1_147)"/>
<path style="mix-blend-mode:screen" opacity="0.5" d="M6.51287 4.46106H6.03632C6.00102 4.43458 5.96572 4.40369 5.93042 4.36839C5.73186 4.15659 5.851 3.79918 6.08927 3.68004H6.57906C6.43345 3.7727 6.34078 3.91831 6.35402 4.11688C6.36726 4.24925 6.42021 4.36839 6.51287 4.46106Z" fill="url(#paint17_linear_1_147)"/>
<g style="mix-blend-mode:multiply" opacity="0.5">
<g style="mix-blend-mode:multiply">
<path d="M8.80295 3.94479C8.81177 3.98891 8.81618 4.02863 8.81618 4.06393C8.81618 4.28896 8.6441 4.46105 8.4323 4.46105H5.94364C5.73184 4.46105 5.55975 4.28896 5.55975 4.06393C5.55975 4.02863 5.56417 3.98891 5.57299 3.94479C5.62594 4.11687 5.77155 4.22277 5.94364 4.22277H8.4323C8.60438 4.22277 8.75 4.11687 8.80295 3.94479Z" fill="#221F1F"/>
</g>
</g>
<path d="M9.09417 16.0041H5.28176C4.99053 16.0041 4.75226 15.7659 4.75226 15.4746C4.75226 15.1834 4.99053 14.9451 5.28176 14.9451H9.09417C9.38539 14.9451 9.62367 15.1834 9.62367 15.4746C9.62367 15.7659 9.38539 16.0041 9.09417 16.0041Z" fill="black"/>
<path d="M5.99661 16.0041H5.28178C5.22883 16.0041 4.71257 15.329 5.37445 14.9451H5.9569C5.75833 15.1172 5.65243 15.2761 5.69215 15.5806C5.70538 15.7394 5.851 15.9644 5.99661 16.0041Z" fill="url(#paint18_linear_1_147)"/>
<path d="M4.81845 15.2231C4.89788 15.051 5.06996 14.9451 5.28176 14.9451H9.09417C9.29274 14.9451 9.47806 15.051 9.55749 15.2231H4.81845Z" fill="url(#paint19_linear_1_147)"/>
<path d="M9.58397 15.66C9.51778 15.8586 9.31922 16.0042 9.09419 16.0042H5.28178C5.05674 16.0042 4.85818 15.8586 4.79199 15.66H9.58397Z" fill="url(#paint20_linear_1_147)"/>
<path d="M11.5961 7.9425C11.1328 9.21331 9.47807 13.7141 9.47807 13.7141H8.55144H5.81127H4.89788C4.89788 13.7141 3.24319 9.21331 2.77988 7.9425C2.31657 6.65846 2.30333 5.73184 3.33586 5.33471C3.60061 5.22881 3.87859 5.16262 4.15658 5.10967C4.75227 5.00377 5.34796 4.93758 5.94365 4.88463C6.2437 4.85816 6.54375 4.84492 6.8438 4.84492C7.74395 4.81845 8.65734 4.88464 9.55749 5.00377C10.0605 5.06996 10.5768 5.14939 11.0401 5.33471C12.0726 5.73184 12.0594 6.65846 11.5961 7.9425Z" fill="url(#paint21_linear_1_147)"/>
<path d="M11.5961 7.9425C11.1328 9.2133 9.47807 13.7141 9.47807 13.7141H7.53215C7.63805 13.2507 7.74395 12.7742 7.84985 12.3109C8.14108 10.9607 8.52497 9.65014 8.81619 8.29992C9.18684 6.55256 9.18684 5.94363 8.77648 5.33471C8.65734 5.16262 8.56468 5.00377 8.4323 4.88463C8.80295 4.9111 9.17802 4.95082 9.55749 5.00377C10.0605 5.06996 10.5768 5.14938 11.0401 5.33471C12.0726 5.73183 12.0594 6.65846 11.5961 7.9425Z" fill="black"/>
<path d="M4.73903 5.01702C5.14939 4.95084 5.54652 4.91112 5.94364 4.88465C6.05837 4.87582 6.16868 4.87141 6.27458 4.87141C5.63918 5.0435 5.37443 5.42739 5.34795 6.26135C5.33472 6.89675 5.48033 7.88957 5.54652 8.52497C5.61712 9.16919 5.69213 9.81783 5.77156 10.4709C5.90393 11.6358 6.04954 12.8007 6.19515 13.9656C5.75832 13.9656 5.37443 13.9259 5.12292 13.8597C4.92436 13.3567 3.82564 8.48526 3.66679 7.74396C3.48147 6.92323 3.45499 6.16869 3.99773 5.48034C4.19629 5.24206 4.43456 5.05674 4.73903 5.01702Z" fill="url(#paint22_linear_1_147)"/>
<path d="M9.39865 14.9452H4.95085C4.61991 14.9452 4.34192 14.6672 4.34192 14.323C4.34192 13.9788 4.61991 13.7141 4.95085 13.7141H9.39865C9.72959 13.7141 10.0076 13.9788 10.0076 14.323C10.0076 14.6672 9.72959 14.9452 9.39865 14.9452Z" fill="url(#paint23_linear_1_147)"/>
<path d="M6.04955 14.9452H5.10968C5.04349 14.9452 4.92435 14.7996 4.88464 14.7598C4.83169 14.6892 4.79198 14.6098 4.76551 14.5216C4.71256 14.3362 4.69932 14.1377 4.80522 13.9788C4.84493 13.8862 5.01702 13.7141 5.12292 13.7141H6.03631C5.79803 13.9126 5.7186 14.2701 5.79803 14.601C5.82451 14.7598 5.93041 14.8657 6.04955 14.9452Z" fill="url(#paint24_linear_1_147)"/>
<g style="mix-blend-mode:multiply" opacity="0.5">
<path d="M9.95463 14.5745C9.86196 14.7996 9.65016 14.9452 9.39865 14.9452H4.95084C4.69933 14.9452 4.48753 14.7996 4.39487 14.5745H9.95463Z" fill="#221F1F"/>
</g>
<g style="mix-blend-mode:screen" opacity="0.5">
<path d="M4.87139 32.3922C4.26246 33.0012 4.14333 34.1528 4.13009 34.9603H1.33698C1.49583 33.6763 2.4754 32.5776 3.20347 32.3922H4.87139Z" fill="url(#paint25_linear_1_147)"/>
</g>
<defs>
<linearGradient id="paint0_linear_1_147" x1="347.466" y1="181.808" x2="972.744" y2="181.808" gradientUnits="userSpaceOnUse">
<stop stop-color="#434546"/>
<stop offset="0.0001" stop-color="#2D2B2C"/>
<stop offset="0.9" stop-color="#201E1E"/>
</linearGradient>
<linearGradient id="paint1_linear_1_147" x1="3.68004" y1="25.2522" x2="3.68004" y2="29.1623" gradientUnits="userSpaceOnUse">
<stop stop-color="white" stop-opacity="0"/>
<stop offset="1" stop-color="white" stop-opacity="0.5"/>
</linearGradient>
<linearGradient id="paint2_linear_1_147" x1="7.18799" y1="29.1623" x2="7.18799" y2="31.6774" gradientUnits="userSpaceOnUse">
<stop stop-color="#252727"/>
<stop offset="1" stop-color="#434546"/>
</linearGradient>
<linearGradient id="paint3_linear_1_147" x1="211.062" y1="400.263" x2="585.689" y2="400.263" gradientUnits="userSpaceOnUse">
<stop stop-color="#434546"/>
<stop offset="0.0001" stop-color="#2D2B2C"/>
<stop offset="0.9" stop-color="#201E1E"/>
</linearGradient>
<linearGradient id="paint4_linear_1_147" x1="5.36293" y1="15.1967" x2="5.36293" y2="25.0851" gradientUnits="userSpaceOnUse">
<stop stop-color="white" stop-opacity="0"/>
<stop offset="1" stop-color="white" stop-opacity="0.5"/>
</linearGradient>
<linearGradient id="paint5_linear_1_147" x1="7.18135" y1="25.0851" x2="7.18135" y2="25.5749" gradientUnits="userSpaceOnUse">
<stop stop-color="#252727"/>
<stop offset="1" stop-color="#434546"/>
</linearGradient>
<linearGradient id="paint6_linear_1_147" x1="7.18797" y1="31.6509" x2="7.18797" y2="32.5114" gradientUnits="userSpaceOnUse">
<stop stop-color="#252727"/>
<stop offset="1" stop-color="#434546"/>
</linearGradient>
<linearGradient id="paint7_linear_1_147" x1="405.028" y1="133.357" x2="1136.09" y2="133.357" gradientUnits="userSpaceOnUse">
<stop stop-color="#434546"/>
<stop offset="0.0001" stop-color="#2D2B2C"/>
<stop offset="0.9" stop-color="#201E1E"/>
</linearGradient>
<linearGradient id="paint8_linear_1_147" x1="1842.99" y1="721.669" x2="1842.99" y2="741.701" gradientUnits="userSpaceOnUse">
<stop stop-color="#201E1E"/>
<stop offset="0.2" stop-color="#A3A5A8"/>
<stop offset="0.6" stop-color="#434546"/>
<stop offset="1" stop-color="#201E1E"/>
</linearGradient>
<linearGradient id="paint9_linear_1_147" x1="425.986" y1="684.717" x2="425.986" y2="703.715" gradientUnits="userSpaceOnUse">
<stop stop-color="#FEFEFE"/>
<stop offset="0.9" stop-color="#434546"/>
</linearGradient>
<linearGradient id="paint10_linear_1_147" x1="1284.5" y1="2085.32" x2="1316.91" y2="2085.32" gradientUnits="userSpaceOnUse">
<stop stop-color="#A3A5A8"/>
<stop offset="0.4" stop-color="#434546"/>
<stop offset="0.9" stop-color="#201E1E"/>
</linearGradient>
<linearGradient id="paint11_linear_1_147" x1="65.5654" y1="84.7982" x2="173.372" y2="84.7982" gradientUnits="userSpaceOnUse">
<stop stop-color="#434546"/>
<stop offset="0.0001" stop-color="#2D2B2C"/>
<stop offset="0.9" stop-color="#201E1E"/>
</linearGradient>
<linearGradient id="paint12_linear_1_147" x1="533.119" y1="856.275" x2="520.111" y2="845.944" gradientUnits="userSpaceOnUse">
<stop stop-color="#FEFEFE"/>
<stop offset="0.6" stop-color="#434546"/>
</linearGradient>
<linearGradient id="paint13_linear_1_147" x1="662.869" y1="2201.3" x2="646.322" y2="2201.3" gradientUnits="userSpaceOnUse">
<stop stop-color="#A3A5A8"/>
<stop offset="0.4" stop-color="#434546"/>
<stop offset="0.9" stop-color="#201E1E"/>
</linearGradient>
<linearGradient id="paint14_linear_1_147" x1="44.5443" y1="85.3789" x2="111.923" y2="85.3789" gradientUnits="userSpaceOnUse">
<stop stop-color="#434546"/>
<stop offset="0.0001" stop-color="#2D2B2C"/>
<stop offset="0.9" stop-color="#201E1E"/>
</linearGradient>
<linearGradient id="paint15_linear_1_147" x1="538.366" y1="853.991" x2="551.258" y2="844.931" gradientUnits="userSpaceOnUse">
<stop stop-color="#FEFEFE"/>
<stop offset="0.6" stop-color="#434546"/>
</linearGradient>
<linearGradient id="paint16_linear_1_147" x1="1583.3" y1="439.331" x2="1583.3" y2="446.595" gradientUnits="userSpaceOnUse">
<stop stop-color="#201E1E"/>
<stop offset="0.2" stop-color="#A3A5A8"/>
<stop offset="0.6" stop-color="#434546"/>
<stop offset="1" stop-color="#201E1E"/>
</linearGradient>
<linearGradient id="paint17_linear_1_147" x1="364.399" y1="439.331" x2="364.399" y2="446.595" gradientUnits="userSpaceOnUse">
<stop stop-color="#FEFEFE"/>
<stop offset="0.9" stop-color="#434546"/>
</linearGradient>
<linearGradient id="paint18_linear_1_147" x1="5.5184" y1="14.9451" x2="5.5184" y2="16.0041" gradientUnits="userSpaceOnUse">
<stop stop-color="white" stop-opacity="0"/>
<stop offset="1" stop-color="white" stop-opacity="0.5"/>
</linearGradient>
<linearGradient id="paint19_linear_1_147" x1="138.459" y1="25.8703" x2="379.676" y2="25.8703" gradientUnits="userSpaceOnUse">
<stop stop-color="#434546"/>
<stop offset="0.0001" stop-color="#2D2B2C"/>
<stop offset="0.9" stop-color="#201E1E"/>
</linearGradient>
<linearGradient id="paint20_linear_1_147" x1="139.926" y1="29.186" x2="383.838" y2="29.186" gradientUnits="userSpaceOnUse">
<stop stop-color="#434546"/>
<stop offset="0.0001" stop-color="#2D2B2C"/>
<stop offset="0.9" stop-color="#201E1E"/>
</linearGradient>
<linearGradient id="paint21_linear_1_147" x1="268.121" y1="353.624" x2="747.596" y2="353.624" gradientUnits="userSpaceOnUse">
<stop stop-color="#434546"/>
<stop offset="0.0001" stop-color="#2D2B2C"/>
<stop offset="0.9" stop-color="#201E1E"/>
</linearGradient>
<linearGradient id="paint22_linear_1_147" x1="4.91068" y1="4.87141" x2="4.91068" y2="13.9656" gradientUnits="userSpaceOnUse">
<stop stop-color="white" stop-opacity="0"/>
<stop offset="1" stop-color="white" stop-opacity="0.5"/>
</linearGradient>
<linearGradient id="paint23_linear_1_147" x1="164.114" y1="62.0958" x2="452.496" y2="62.0958" gradientUnits="userSpaceOnUse">
<stop stop-color="#434546"/>
<stop offset="0.0001" stop-color="#2D2B2C"/>
<stop offset="0.9" stop-color="#201E1E"/>
</linearGradient>
<linearGradient id="paint24_linear_1_147" x1="5.38746" y1="13.7141" x2="5.38746" y2="14.9452" gradientUnits="userSpaceOnUse">
<stop stop-color="white" stop-opacity="0"/>
<stop offset="1" stop-color="white" stop-opacity="0.5"/>
</linearGradient>
<linearGradient id="paint25_linear_1_147" x1="3.10418" y1="32.3922" x2="3.10418" y2="34.9603" gradientUnits="userSpaceOnUse">
<stop stop-color="white" stop-opacity="0"/>
<stop offset="1" stop-color="white" stop-opacity="0.5"/>
</linearGradient>
</defs>
</svg>
