<svg width="18" height="35" viewBox="0 0 18 35" fill="none" xmlns="http://www.w3.org/2000/svg">
<path d="M15.3935 29.2845L8.72055 29.9032L1.76768 29.2845L4.72854 26.2648L6.14269 25.6755L7.38006 26.1911L8.57325 26.2058L9.78116 26.1911L10.4146 25.5724L12.4327 26.2648L15.3935 29.2845Z" fill="url(#paint0_linear_1_193)"/>
<path d="M6.48149 26.0585C6.0543 27.0897 5.08207 29.3287 4.9495 29.5644L2.91667 29.3876C3.01979 29.2551 4.53704 27.0897 5.37669 26.0438C5.74496 26.0438 6.11322 26.0585 6.48149 26.0585Z" fill="url(#paint1_linear_1_193)"/>
<path d="M10.8712 25.7344L12.4327 26.2647L15.3935 29.2845L12.2706 29.5791C12.2559 28.2534 11.6667 26.8834 10.8712 25.7344Z" fill="black"/>
<path d="M15.3935 29.2845V29.2993L14.3919 31.3026L9.78116 31.5236H7.38006L2.7841 31.3026L1.76768 29.2993V29.2845H15.3935Z" fill="url(#paint2_linear_1_193)"/>
<path d="M15.3935 29.2993L14.3918 31.3026L9.78115 31.5236H7.38005H7.26221C7.41933 31.5039 7.57646 31.4794 7.73359 31.4499C8.42593 31.3616 9.11827 31.229 9.76642 30.9786C10.6944 30.625 11.5783 30.0358 12.2706 29.2845H15.3935V29.2993Z" fill="black"/>
<path d="M15.0105 32.2159L2.1654 32.2307C2.15067 32.1717 2.15067 32.0244 2.15067 31.9655C2.15067 31.5825 2.44528 31.2732 2.81354 31.2732H14.3476C14.7159 31.2732 15.0253 31.5825 15.0253 31.9655C15.0253 32.0244 15.0253 32.157 15.0105 32.2159Z" fill="url(#paint3_linear_1_193)"/>
<g style="mix-blend-mode:multiply" opacity="0.5">
<path d="M15.0253 31.9655C15.0253 32.0244 15.0253 32.157 15.0105 32.2159L2.1654 32.2307C2.15067 32.1717 2.15067 32.0244 2.15067 31.9655C2.15067 31.9361 2.15067 31.9017 2.15067 31.8624H15.0105C15.0203 31.9017 15.0253 31.9361 15.0253 31.9655Z" fill="#221F1F"/>
</g>
<path d="M17.1612 35H0C0 33.4238 0.972226 32.1423 2.19487 32.1423H14.9811C16.189 32.1423 17.1612 33.4238 17.1612 35Z" fill="url(#paint4_linear_1_193)"/>
<path d="M17.1612 35H4.55177C5.73022 34.8822 6.90868 34.617 8.01347 34.2782C9.02989 33.9541 11.1658 33.2765 12.1233 32.1423H14.9811C16.189 32.1423 17.1612 33.4238 17.1612 35Z" fill="#020202"/>
<path d="M9.54545 0.795458C9.54545 1.25211 9.14773 1.60564 8.64688 1.60564C8.14604 1.60564 7.73358 1.25211 7.73358 0.795458C7.73358 0.353539 8.14604 0 8.64688 0C9.14773 0 9.54545 0.353539 9.54545 0.795458Z" fill="url(#paint5_linear_1_193)"/>
<path d="M9.54545 0.795458C9.54545 1.25211 9.14773 1.60564 8.64688 1.60564C8.14604 1.60564 7.73358 1.25211 7.73358 0.795458C7.73358 0.353539 8.14604 0 8.64688 0C9.14773 0 9.54545 0.353539 9.54545 0.795458Z" fill="url(#paint6_linear_1_193)"/>
<path style="mix-blend-mode:screen" opacity="0.5" d="M7.73358 0.839649C7.73358 0.824918 7.73358 0.810189 7.73358 0.795458C7.73358 0.353539 8.14604 0 8.64688 0C8.74509 0 8.83838 0.00982223 8.92676 0.0294631C9.2361 0.206231 9.2803 0.854381 8.82365 1.09007C8.47012 1.26684 7.7925 1.20791 7.73358 0.839649Z" fill="url(#paint7_linear_1_193)"/>
<path d="M9.54545 0.795459C9.54545 1.25211 9.14773 1.60564 8.64688 1.60564C8.35227 1.60564 8.10185 1.48779 7.92508 1.2963C7.984 1.35522 8.11658 1.38468 8.19023 1.39941C8.27861 1.41905 8.37191 1.42888 8.47012 1.42888C8.67634 1.39941 8.88258 1.2963 9.04461 1.16373C9.36869 0.869113 9.33923 0.265153 9.04461 0.0736542C9.04461 0.0736542 9.0397 0.0736542 9.02988 0.0736542C9.33922 0.20623 9.54545 0.471385 9.54545 0.795459Z" fill="black"/>
<path d="M13.1103 3.82994C13.1103 5.14097 11.1069 6.21631 8.64688 6.21631C6.18687 6.21631 4.19823 5.14097 4.19823 3.82994C4.19823 2.51892 6.18687 1.45831 8.64688 1.45831C11.1069 1.45831 13.1103 2.51892 13.1103 3.82994Z" fill="url(#paint8_linear_1_193)"/>
<path d="M13.1103 3.82994C13.1103 5.14097 11.1069 6.21631 8.64688 6.21631C6.18687 6.21631 4.19823 5.14097 4.19823 3.82994C4.19823 2.51892 6.18687 1.45831 8.64688 1.45831C11.1069 1.45831 13.1103 2.51892 13.1103 3.82994Z" fill="url(#paint9_linear_1_193)"/>
<g style="mix-blend-mode:screen">
<path style="mix-blend-mode:screen" opacity="0.5" d="M8.82366 6.08373C8.70581 6.09355 8.58306 6.09847 8.45539 6.09847C6.61406 6.09847 4.64015 5.28828 4.64015 4.00671C4.64015 2.72515 6.61406 1.45831 8.45539 1.45831C8.58306 1.45831 8.70581 1.46322 8.82366 1.47304C7.14437 1.60562 5.84807 2.57784 5.84807 3.78575C5.84807 4.97894 7.14437 5.96589 8.82366 6.08373Z" fill="url(#paint10_linear_1_193)"/>
</g>
<g style="mix-blend-mode:multiply" opacity="0.5">
<path d="M13.1103 3.82994C13.1103 5.14097 11.1069 6.21631 8.64688 6.21631C7.96927 6.21631 7.32112 6.12792 6.74663 5.98061C6.79573 5.98061 6.84975 5.98061 6.90867 5.98061C9.36869 5.98061 11.3573 4.92001 11.3573 3.60898C11.3573 2.65149 10.3114 1.84131 8.80892 1.45831C11.1953 1.5025 13.1103 2.54838 13.1103 3.82994Z" fill="url(#paint11_linear_1_193)"/>
</g>
<path d="M13.7732 2.76937L11.4015 10.0168H5.75968L3.38805 2.76937H3.40277C3.62373 3.24075 4.09512 3.56482 4.64015 3.56482C5.34722 3.56482 5.95118 2.99033 5.99537 2.28326C6.21633 2.73991 6.68771 3.06398 7.23274 3.06398C7.93981 3.06398 8.52904 2.50421 8.58796 1.81187C8.63215 2.50421 9.23611 3.07872 9.94318 3.07872C10.4735 3.07872 10.9449 2.75464 11.1658 2.28326H11.1806C11.1953 3.00506 11.7992 3.59429 12.5358 3.59429C13.0808 3.59429 13.5669 3.25548 13.7732 2.76937Z" fill="url(#paint12_linear_1_193)"/>
<path d="M7.15909 10.0168H6.37837C6.28998 9.45708 5.18519 5.58292 4.78746 4.10985C5.27357 4.12459 5.77441 3.8447 5.89226 3.3144C5.89226 3.27511 5.89717 3.24566 5.90699 3.22602C5.96591 3.06398 6.0101 2.88721 6.0101 2.71044C6.02974 2.62206 6.03466 2.52876 6.02484 2.43056C6.03957 2.53367 6.06903 2.63678 6.09849 2.7399C6.17214 2.94613 6.27525 3.13762 6.34891 3.32912C6.40783 3.44697 6.5846 3.78578 7.05598 3.85943C7.12964 5.30304 7.12963 9.25085 7.17383 9.79588C7.16401 9.88426 7.15909 9.95792 7.15909 10.0168Z" fill="url(#paint13_linear_1_193)"/>
<path d="M13.7732 2.76937L11.4015 10.0169H6.9234C7.61574 9.86954 8.29335 9.45708 8.75 9.0299C9.67804 8.14606 10.1641 6.70246 10.5029 5.47981C10.6895 4.79238 10.8565 4.09022 11.0038 3.37333C11.0627 3.03453 11.1658 2.66626 11.1806 2.29799C11.21 3.01979 11.814 3.59429 12.5358 3.59429C13.0808 3.59429 13.5669 3.25548 13.7732 2.76937Z" fill="black"/>
<path style="mix-blend-mode:multiply" d="M5.99538 2.28326C6.21634 2.73991 6.68771 3.06398 7.23275 3.06398C7.93982 3.06398 8.52904 2.50421 8.58797 1.81187C8.63216 2.50421 9.23612 3.07872 9.94319 3.07872C10.4735 3.07872 10.9449 2.75464 11.1658 2.28326H11.1806C11.1953 3.00506 11.7992 3.59429 12.5358 3.59429C13.0808 3.59429 13.5669 3.25548 13.7732 2.76937L13.7142 2.96086C13.4491 3.44697 12.7862 4.47812 12.0055 4.24243C11.1216 3.97728 11.1511 2.41584 11.1511 2.41584C11.1511 2.41584 10.7681 3.90363 9.81061 3.85944C8.72054 3.80052 8.5585 1.98864 8.5585 1.98864C8.54377 2.50422 8.44066 3.75633 7.38005 3.8889C6.15741 4.03621 5.99538 2.28326 5.99538 2.28326Z" fill="url(#paint14_linear_1_193)"/>
<path style="mix-blend-mode:multiply" d="M3.38805 2.76936H3.40277C3.62373 3.24074 4.09512 3.56482 4.64015 3.56482C5.34722 3.56482 5.95118 2.99032 5.99537 2.28325C6.08376 3.15236 5.77441 4.10985 4.80218 4.13931C4.10984 4.16877 3.60901 3.2702 3.38805 2.76936Z" fill="url(#paint15_linear_1_193)"/>
<path d="M11.4015 10.6208V10.6355H5.75967C6.02483 10.5324 6.02483 10.1347 5.78914 10.0168H11.4015C11.1511 10.12 11.1511 10.5177 11.4015 10.6208Z" fill="url(#paint16_linear_1_193)"/>
<path d="M13.6553 25.1452L9.10354 25.5282H8.19024L3.52063 25.1452C8.23444 15.6145 5.70076 12.3295 5.70076 12.3295H8.57324H11.4752C11.4752 12.3295 8.9415 15.6145 13.6553 25.1452Z" fill="url(#paint17_linear_1_193)"/>
<path d="M6.43729 19.4003C7.14436 16.7782 7.01179 12.8157 6.21633 12.3296L6.90867 12.3001C7.08544 12.3001 7.85143 14.9663 7.58628 18.428C7.49789 19.6065 6.79083 24.4971 6.46675 25.3367L4.25716 25.1599C5.34722 23.3628 5.89226 21.4036 6.43729 19.4003Z" fill="url(#paint18_linear_1_193)"/>
<path d="M11.4752 12.3295C11.4752 12.3295 8.9415 15.6145 13.6553 25.1452L11.1069 25.3514C11.3131 23.6869 10.4588 22.0518 9.88426 20.5345C9.25084 18.8258 8.83838 16.9844 8.95623 15.1578C9.00042 14.4066 9.22138 13.6406 9.58965 12.963C9.72222 12.742 9.86953 12.5358 10.0316 12.3295H11.4752Z" fill="black"/>
<path d="M11.3573 11.4752H5.80387C5.56818 11.4752 5.36195 11.2837 5.36195 11.048C5.36195 10.7976 5.56818 10.6061 5.80387 10.6061H11.3573C11.593 10.6061 11.7992 10.7976 11.7992 11.048C11.7992 11.2837 11.593 11.4752 11.3573 11.4752Z" fill="url(#paint19_linear_1_193)"/>
<path style="mix-blend-mode:screen" opacity="0.5" d="M6.9234 11.4752H6.05429C5.98555 11.3966 5.92663 11.3082 5.87753 11.21C5.75968 10.9007 5.95117 10.7092 6.20159 10.6061H7.04124C6.83501 10.7976 6.70244 11.048 6.83502 11.3426C6.86448 11.3868 6.87921 11.431 6.9234 11.4752Z" fill="url(#paint20_linear_1_193)"/>
<path style="mix-blend-mode:multiply" opacity="0.7" d="M11.7992 11.0332C11.7992 11.0431 11.7992 11.048 11.7992 11.048C11.7992 11.2837 11.593 11.4752 11.3573 11.4752H5.80387C5.56818 11.4752 5.36195 11.2837 5.36195 11.048C5.36195 11.048 5.36686 11.0431 5.37668 11.0332H11.7992Z" fill="url(#paint21_linear_1_193)"/>
<path d="M11.4015 12.3296H5.75968C5.50926 12.3296 5.31776 12.1381 5.31776 11.9024C5.31776 11.6519 5.50926 11.4604 5.75968 11.4604H11.4015C11.6519 11.4604 11.8434 11.6519 11.8434 11.9024C11.8434 12.1381 11.6519 12.3296 11.4015 12.3296Z" fill="url(#paint22_linear_1_193)"/>
<path style="mix-blend-mode:screen" opacity="0.5" d="M6.87921 12.3296H5.96591C5.68603 12.0939 5.61237 11.6667 6.0101 11.4604H6.90867C6.83502 11.5194 6.76136 11.593 6.71717 11.6814C6.65824 11.814 6.65825 11.9613 6.70244 12.0791C6.7319 12.197 6.79083 12.2706 6.87921 12.3296Z" fill="url(#paint23_linear_1_193)"/>
<path style="mix-blend-mode:multiply" opacity="0.7" d="M11.8434 11.9466C11.814 12.1675 11.6372 12.3296 11.4015 12.3296H5.75968C5.52399 12.3296 5.33249 12.1528 5.31776 11.9318C5.37669 11.9416 5.4307 11.9466 5.47981 11.9466H11.8434Z" fill="url(#paint24_linear_1_193)"/>
<path d="M12.4474 26.2647H4.72854L3.52063 25.1452H13.6406L12.4474 26.2647Z" fill="url(#paint25_linear_1_193)"/>
<path d="M13.6406 25.1452L12.4474 26.2647H8.85312C9.516 26.0143 10.5766 25.6755 11.1216 25.1452H13.6406Z" fill="black"/>
<g style="mix-blend-mode:screen" opacity="0.5">
<path d="M5.08207 32.0981C4.40446 32.7757 4.25716 34.0572 4.25716 34.9558H1.14899C1.31102 33.5269 2.40109 32.3043 3.21128 32.0981H5.08207Z" fill="url(#paint26_linear_1_193)"/>
</g>
<defs>
<linearGradient id="paint0_linear_1_193" x1="386.017" y1="195.773" x2="1079.57" y2="195.773" gradientUnits="userSpaceOnUse">
<stop stop-color="#434546"/>
<stop offset="0.0001" stop-color="#2D2B2C"/>
<stop offset="0.9" stop-color="#201E1E"/>
</linearGradient>
<linearGradient id="paint1_linear_1_193" x1="4.69908" y1="26.0438" x2="4.69908" y2="29.5644" gradientUnits="userSpaceOnUse">
<stop stop-color="white" stop-opacity="0"/>
<stop offset="1" stop-color="white" stop-opacity="0.5"/>
</linearGradient>
<linearGradient id="paint2_linear_1_193" x1="8.58061" y1="29.2845" x2="8.58061" y2="31.5236" gradientUnits="userSpaceOnUse">
<stop stop-color="#252727"/>
<stop offset="1" stop-color="#434546"/>
</linearGradient>
<linearGradient id="paint3_linear_1_193" x1="8.58796" y1="31.2732" x2="8.58796" y2="32.2307" gradientUnits="userSpaceOnUse">
<stop stop-color="#252727"/>
<stop offset="1" stop-color="#434546"/>
</linearGradient>
<linearGradient id="paint4_linear_1_193" x1="483.946" y1="144.451" x2="1357.45" y2="144.451" gradientUnits="userSpaceOnUse">
<stop stop-color="#434546"/>
<stop offset="0.0001" stop-color="#2D2B2C"/>
<stop offset="0.9" stop-color="#201E1E"/>
</linearGradient>
<linearGradient id="paint5_linear_1_193" x1="1112.43" y1="887.921" x2="1128.58" y2="910.703" gradientUnits="userSpaceOnUse">
<stop stop-color="#A3A5A8"/>
<stop offset="0.4" stop-color="#434546"/>
<stop offset="0.9" stop-color="#201E1E"/>
</linearGradient>
<linearGradient id="paint6_linear_1_193" x1="58.8282" y1="63.1018" x2="151.052" y2="63.1018" gradientUnits="userSpaceOnUse">
<stop stop-color="#434546"/>
<stop offset="0.0001" stop-color="#2D2B2C"/>
<stop offset="0.9" stop-color="#201E1E"/>
</linearGradient>
<linearGradient id="paint7_linear_1_193" x1="876.604" y1="657.239" x2="889.251" y2="676.393" gradientUnits="userSpaceOnUse">
<stop stop-color="#FEFEFE"/>
<stop offset="0.9" stop-color="#434546"/>
</linearGradient>
<linearGradient id="paint8_linear_1_193" x1="5514.51" y1="2696.39" x2="5514.51" y2="2797.26" gradientUnits="userSpaceOnUse">
<stop stop-color="#A3A5A8"/>
<stop offset="0.4" stop-color="#434546"/>
<stop offset="0.9" stop-color="#201E1E"/>
</linearGradient>
<linearGradient id="paint9_linear_1_193" x1="8.65425" y1="1.45831" x2="8.65425" y2="6.21631" gradientUnits="userSpaceOnUse">
<stop stop-color="#252727"/>
<stop offset="1" stop-color="#434546"/>
</linearGradient>
<linearGradient id="paint10_linear_1_193" x1="1847.89" y1="3455.12" x2="1847.89" y2="2924.29" gradientUnits="userSpaceOnUse">
<stop stop-color="#FEFEFE"/>
<stop offset="0.9" stop-color="#434546"/>
</linearGradient>
<linearGradient id="paint11_linear_1_193" x1="4018.39" y1="2696.39" x2="4018.39" y2="2797.26" gradientUnits="userSpaceOnUse">
<stop stop-color="#A3A5A8"/>
<stop offset="0.4" stop-color="#434546"/>
<stop offset="0.9" stop-color="#201E1E"/>
</linearGradient>
<linearGradient id="paint12_linear_1_193" x1="296.248" y1="324.267" x2="824.85" y2="324.267" gradientUnits="userSpaceOnUse">
<stop stop-color="#434546"/>
<stop offset="0.0001" stop-color="#2D2B2C"/>
<stop offset="0.9" stop-color="#201E1E"/>
</linearGradient>
<linearGradient id="paint13_linear_1_193" x1="5.98064" y1="2.43056" x2="5.98064" y2="10.0168" gradientUnits="userSpaceOnUse">
<stop stop-color="white" stop-opacity="0"/>
<stop offset="1" stop-color="white" stop-opacity="0.5"/>
</linearGradient>
<linearGradient id="paint14_linear_1_193" x1="4470.44" y1="1410.11" x2="5018.77" y2="1410.11" gradientUnits="userSpaceOnUse">
<stop stop-color="#A3A5A8"/>
<stop offset="0.4" stop-color="#434546"/>
<stop offset="0.9" stop-color="#201E1E"/>
</linearGradient>
<linearGradient id="paint15_linear_1_193" x1="1508.25" y1="1068.99" x2="1693.34" y2="1068.99" gradientUnits="userSpaceOnUse">
<stop stop-color="#A3A5A8"/>
<stop offset="0.4" stop-color="#434546"/>
<stop offset="0.9" stop-color="#201E1E"/>
</linearGradient>
<linearGradient id="paint16_linear_1_193" x1="8.5806" y1="10.0168" x2="8.5806" y2="10.6355" gradientUnits="userSpaceOnUse">
<stop stop-color="#252727"/>
<stop offset="1" stop-color="#434546"/>
</linearGradient>
<linearGradient id="paint17_linear_1_193" x1="289.319" y1="531.037" x2="805.174" y2="531.037" gradientUnits="userSpaceOnUse">
<stop stop-color="#434546"/>
<stop offset="0.0001" stop-color="#2D2B2C"/>
<stop offset="0.9" stop-color="#201E1E"/>
</linearGradient>
<linearGradient id="paint18_linear_1_193" x1="5.94934" y1="12.3001" x2="5.94934" y2="25.3367" gradientUnits="userSpaceOnUse">
<stop stop-color="white" stop-opacity="0"/>
<stop offset="1" stop-color="white" stop-opacity="0.5"/>
</linearGradient>
<linearGradient id="paint19_linear_1_193" x1="186.893" y1="44.7622" x2="514.551" y2="44.7622" gradientUnits="userSpaceOnUse">
<stop stop-color="#434546"/>
<stop offset="0.0001" stop-color="#2D2B2C"/>
<stop offset="0.9" stop-color="#201E1E"/>
</linearGradient>
<linearGradient id="paint20_linear_1_193" x1="534.278" y1="657.486" x2="534.278" y2="558.059" gradientUnits="userSpaceOnUse">
<stop stop-color="#FEFEFE"/>
<stop offset="0.9" stop-color="#434546"/>
</linearGradient>
<linearGradient id="paint21_linear_1_193" x1="3786.62" y1="291.166" x2="4067.93" y2="291.166" gradientUnits="userSpaceOnUse">
<stop stop-color="#A3A5A8"/>
<stop offset="0.2" stop-color="#434546"/>
<stop offset="0.9" stop-color="#201E1E"/>
</linearGradient>
<linearGradient id="paint22_linear_1_193" x1="189.342" y1="45.6165" x2="521.499" y2="45.6165" gradientUnits="userSpaceOnUse">
<stop stop-color="#434546"/>
<stop offset="0.0001" stop-color="#2D2B2C"/>
<stop offset="0.9" stop-color="#201E1E"/>
</linearGradient>
<linearGradient id="paint23_linear_1_193" x1="523.392" y1="658.34" x2="523.392" y2="558.914" gradientUnits="userSpaceOnUse">
<stop stop-color="#FEFEFE"/>
<stop offset="0.9" stop-color="#434546"/>
</linearGradient>
<linearGradient id="paint24_linear_1_193" x1="3836.55" y1="266.479" x2="4125.63" y2="266.479" gradientUnits="userSpaceOnUse">
<stop stop-color="#A3A5A8"/>
<stop offset="0.2" stop-color="#434546"/>
<stop offset="0.9" stop-color="#201E1E"/>
</linearGradient>
<linearGradient id="paint25_linear_1_193" x1="8.5806" y1="25.1452" x2="8.5806" y2="26.2647" gradientUnits="userSpaceOnUse">
<stop stop-color="#252727"/>
<stop offset="1" stop-color="#434546"/>
</linearGradient>
<linearGradient id="paint26_linear_1_193" x1="3.11553" y1="32.0981" x2="3.11553" y2="34.9558" gradientUnits="userSpaceOnUse">
<stop stop-color="white" stop-opacity="0"/>
<stop offset="1" stop-color="white" stop-opacity="0.5"/>
</linearGradient>
</defs>
</svg>
